JetBrainsMoro-Medium.ufo
<glyph name="exclam" format="2">
  <advance width="600.0"/>
  <unicode hex="0021"/>
  <outline>
    <contour>
      <point x="264.4" y="219.5" type="line"/>
      <point x="335.6" y="219.5" type="line"/>
      <point x="356.9" y="605.5" type="line"/>
      <point x="356.9" y="730.0" type="line"/>
      <point x="243.1" y="730.0" type="line"/>
      <point x="243.1" y="605.5" type="line"/>
    </contour>
    <contour>
      <point x="285.0" y="-5.0" type="curve" smooth="yes"/>
      <point x="314.85" y="-5.0" type="line" smooth="yes"/>
      <point x="351.5" y="-5.0"/>
      <point x="377.25" y="21.15"/>
      <point x="377.25" y="57.35" type="curve" smooth="yes"/>
      <point x="377.25" y="92.55"/>
      <point x="354.05" y="118.0"/>
      <point x="315.0" y="118.0" type="curve" smooth="yes"/>
      <point x="285.0" y="118.0" type="line" smooth="yes"/>
      <point x="248.5" y="118.0"/>
      <point x="222.75" y="92.55"/>
      <point x="222.75" y="56.5" type="curve" smooth="yes"/>
      <point x="222.75" y="20.45"/>
      <point x="248.5" y="-5.0"/>
    </contour>
  </outline>
</glyph>
<glyph name="quotedbl" format="2">
  <advance width="600.0"/>
  <unicode hex="0022"/>
  <outline>
    <contour>
      <point x="363.65" y="430.0" type="line"/>
      <point x="444.7" y="430.0" type="line"/>
      <point x="456.0" y="629.5" type="line"/>
      <point x="456.0" y="730.0" type="line"/>
      <point x="351.35" y="730.0" type="line"/>
      <point x="351.35" y="629.5" type="line"/>
    </contour>
    <contour>
      <point x="156.3" y="430.0" type="line"/>
      <point x="237.35" y="430.0" type="line"/>
      <point x="248.65" y="629.5" type="line"/>
      <point x="248.65" y="730.0" type="line"/>
      <point x="144.0" y="730.0" type="line"/>
      <point x="144.0" y="629.5" type="line"/>
    </contour>
  </outline>
</glyph>
<glyph name="numbersign" format="2">
  <advance width="600.0"/>
  <unicode hex="0023"/>
  <outline>
    <contour>
      <point x="81.5" y="0.0" type="line"/>
      <point x="156.0" y="0.0" type="line"/>
      <point x="193.65" y="204.75" type="line"/>
      <point x="349.15" y="204.75" type="line"/>
      <point x="311.5" y="0.0" type="line"/>
      <point x="386.0" y="0.0" type="line"/>
      <point x="423.65" y="204.75" type="line"/>
      <point x="530.0" y="204.75" type="line"/>
      <point x="530.0" y="275.0" type="line"/>
      <point x="435.55" y="275.0" type="line"/>
      <point x="468.8" y="455.0" type="line"/>
      <point x="565.0" y="455.0" type="line"/>
      <point x="565.0" y="525.25" type="line"/>
      <point x="480.7" y="525.25" type="line"/>
      <point x="518.5" y="730.0" type="line"/>
      <point x="444.0" y="730.0" type="line"/>
      <point x="406.2" y="525.25" type="line"/>
      <point x="250.7" y="525.25" type="line"/>
      <point x="288.5" y="730.0" type="line"/>
      <point x="214.0" y="730.0" type="line"/>
      <point x="176.2" y="525.25" type="line"/>
      <point x="70.0" y="525.25" type="line"/>
      <point x="70.0" y="455.0" type="line"/>
      <point x="164.3" y="455.0" type="line"/>
      <point x="131.05" y="275.0" type="line"/>
      <point x="35.0" y="275.0" type="line"/>
      <point x="35.0" y="204.75" type="line"/>
      <point x="119.15" y="204.75" type="line"/>
    </contour>
    <contour>
      <point x="205.55" y="275.0" type="line"/>
      <point x="238.8" y="455.0" type="line"/>
      <point x="394.3" y="455.0" type="line"/>
      <point x="361.05" y="275.0" type="line"/>
    </contour>
  </outline>
</glyph>
<glyph name="dollar" format="2">
  <advance width="600.0"/>
  <unicode hex="0024"/>
  <outline>
    <contour>
      <point x="273.35" y="-140.0" type="line"/>
      <point x="334.1" y="-140.0" type="line"/>
      <point x="334.1" y="-9.0" type="line"/>
      <point x="454.1" y="2.7"/>
      <point x="531.75" y="80.75"/>
      <point x="531.75" y="192.4" type="curve" smooth="yes"/>
      <point x="531.75" y="294.25"/>
      <point x="473.95" y="371.4"/>
      <point x="372.15" y="402.25" type="curve" smooth="yes"/>
      <point x="334.1" y="414.2" type="line"/>
      <point x="334.1" y="650.35" type="line"/>
      <point x="391.1" y="640.5"/>
      <point x="423.3" y="601.75"/>
      <point x="423.3" y="543.5" type="curve"/>
      <point x="522.3" y="543.5" type="line"/>
      <point x="520.6" y="653.55"/>
      <point x="448.1" y="728.0"/>
      <point x="334.1" y="739.0" type="curve"/>
      <point x="334.1" y="870.0" type="line"/>
      <point x="273.35" y="870.0" type="line"/>
      <point x="273.35" y="738.0" type="line"/>
      <point x="158.95" y="727.0"/>
      <point x="86.75" y="652.1"/>
      <point x="86.75" y="543.45" type="curve" smooth="yes"/>
      <point x="86.75" y="442.9"/>
      <point x="145.15" y="366.7"/>
      <point x="248.75" y="336.0" type="curve" smooth="yes"/>
      <point x="273.35" y="328.75" type="line"/>
      <point x="273.35" y="79.8" type="line"/>
      <point x="205.85" y="88.95"/>
      <point x="167.25" y="129.7"/>
      <point x="167.25" y="191.5" type="curve"/>
      <point x="68.25" y="191.5" type="line"/>
      <point x="69.95" y="76.05"/>
      <point x="146.3" y="1.3"/>
      <point x="273.35" y="-8.85" type="curve"/>
    </contour>
    <contour>
      <point x="334.1" y="79.5" type="curve"/>
      <point x="334.1" y="320.55" type="line"/>
      <point x="335.45" y="307.85" type="line" smooth="yes"/>
      <point x="397.2" y="293.3"/>
      <point x="432.75" y="247.5"/>
      <point x="432.75" y="189.65" type="curve" smooth="yes"/>
      <point x="432.75" y="128.8"/>
      <point x="396.4" y="89.05"/>
    </contour>
    <contour>
      <point x="273.35" y="388.7" type="line"/>
      <point x="307.8" y="425.75" type="line"/>
      <point x="229.6" y="435.35"/>
      <point x="185.75" y="483.55"/>
      <point x="185.75" y="551.15" type="curve" smooth="yes"/>
      <point x="185.75" y="605.3"/>
      <point x="217.65" y="641.35"/>
      <point x="273.35" y="650.35" type="curve"/>
    </contour>
  </outline>
</glyph>
<glyph name="percent" format="2">
  <advance width="600.0"/>
  <unicode hex="0025"/>
  <outline>
    <contour>
      <point x="9.65" y="0.0" type="line"/>
      <point x="87.85" y="0.0" type="line"/>
      <point x="590.35" y="730.0" type="line"/>
      <point x="512.15" y="730.0" type="line"/>
    </contour>
    <contour>
      <point x="444.25" y="-5.0" type="curve" smooth="yes"/>
      <point x="528.7" y="-5.0"/>
      <point x="584.9" y="46.45"/>
      <point x="584.9" y="130.0" type="curve" smooth="yes"/>
      <point x="584.9" y="195.0" type="line" smooth="yes"/>
      <point x="584.9" y="278.55"/>
      <point x="528.7" y="330.0"/>
      <point x="444.25" y="330.0" type="curve" smooth="yes"/>
      <point x="359.8" y="330.0"/>
      <point x="303.6" y="278.55"/>
      <point x="303.6" y="195.0" type="curve" smooth="yes"/>
      <point x="303.6" y="130.0" type="line" smooth="yes"/>
      <point x="303.6" y="46.45"/>
      <point x="359.8" y="-5.0"/>
    </contour>
    <contour>
      <point x="444.25" y="66.25" type="curve" smooth="yes"/>
      <point x="401.9" y="66.25"/>
      <point x="381.35" y="86.35"/>
      <point x="381.35" y="130.0" type="curve" smooth="yes"/>
      <point x="381.35" y="195.0" type="line" smooth="yes"/>
      <point x="381.35" y="238.65"/>
      <point x="401.9" y="259.75"/>
      <point x="444.25" y="259.75" type="curve" smooth="yes"/>
      <point x="486.45" y="259.75"/>
      <point x="507.15" y="238.65"/>
      <point x="507.15" y="195.0" type="curve" smooth="yes"/>
      <point x="507.15" y="130.0" type="line" smooth="yes"/>
      <point x="507.15" y="86.35"/>
      <point x="486.6" y="66.25"/>
    </contour>
    <contour>
      <point x="155.75" y="400.0" type="curve" smooth="yes"/>
      <point x="239.75" y="400.0"/>
      <point x="296.4" y="451.0"/>
      <point x="296.4" y="535.0" type="curve" smooth="yes"/>
      <point x="296.4" y="600.0" type="line" smooth="yes"/>
      <point x="296.4" y="684.0"/>
      <point x="239.75" y="735.0"/>
      <point x="155.75" y="735.0" type="curve" smooth="yes"/>
      <point x="71.75" y="735.0"/>
      <point x="15.1" y="684.0"/>
      <point x="15.1" y="600.0" type="curve" smooth="yes"/>
      <point x="15.1" y="535.0" type="line" smooth="yes"/>
      <point x="15.1" y="451.0"/>
      <point x="71.75" y="400.0"/>
    </contour>
    <contour>
      <point x="155.75" y="470.25" type="curve" smooth="yes"/>
      <point x="114.25" y="470.25"/>
      <point x="92.85" y="491.35"/>
      <point x="92.85" y="535.0" type="curve" smooth="yes"/>
      <point x="92.85" y="600.0" type="line" smooth="yes"/>
      <point x="92.85" y="643.65"/>
      <point x="114.25" y="664.75"/>
      <point x="155.75" y="664.75" type="curve" smooth="yes"/>
      <point x="197.25" y="664.75"/>
      <point x="218.65" y="643.65"/>
      <point x="218.65" y="600.0" type="curve" smooth="yes"/>
      <point x="218.65" y="535.0" type="line" smooth="yes"/>
      <point x="218.65" y="491.35"/>
      <point x="197.25" y="470.25"/>
    </contour>
  </outline>
</glyph>
<glyph name="ampersand" format="2">
  <advance width="600.0"/>
  <unicode hex="0026"/>
  <outline>
    <contour>
      <point x="230.75" y="-10.0" type="curve" smooth="yes"/>
      <point x="295.9" y="-10.0"/>
      <point x="356.15" y="22.05"/>
      <point x="403.55" y="81.6" type="curve"/>
      <point x="462.5" y="0.0" type="line"/>
      <point x="568.1" y="0.0" type="line"/>
      <point x="452.45" y="160.1" type="line"/>
      <point x="563.8" y="360.0" type="line"/>
      <point x="462.9" y="360.0" type="line"/>
      <point x="396.1" y="238.7" type="line"/>
      <point x="232.65" y="464.9" type="line" smooth="yes"/>
      <point x="206.75" y="500.4"/>
      <point x="191.0" y="541.8"/>
      <point x="191.0" y="574.65" type="curve" smooth="yes"/>
      <point x="191.0" y="624.3"/>
      <point x="224.95" y="655.7"/>
      <point x="278.0" y="655.7" type="curve" smooth="yes"/>
      <point x="336.15" y="655.7"/>
      <point x="372.65" y="621.75"/>
      <point x="372.65" y="566.15" type="curve"/>
      <point x="469.4" y="566.15" type="line"/>
      <point x="469.4" y="672.5"/>
      <point x="395.05" y="740.0"/>
      <point x="278.0" y="740.0" type="curve" smooth="yes"/>
      <point x="168.2" y="740.0"/>
      <point x="95.0" y="675.65"/>
      <point x="95.0" y="578.6" type="curve" smooth="yes"/>
      <point x="95.0" y="529.1"/>
      <point x="114.05" y="481.3"/>
      <point x="155.2" y="424.85" type="curve" smooth="yes"/>
      <point x="163.7" y="424.3" type="line"/>
      <point x="92.1" y="405.95"/>
      <point x="51.85" y="352.55"/>
      <point x="51.85" y="277.75" type="curve" smooth="yes"/>
      <point x="51.85" y="161.0" type="line" smooth="yes"/>
      <point x="51.85" y="54.1"/>
      <point x="118.9" y="-10.0"/>
    </contour>
    <contour>
      <point x="237.1" y="76.0" type="curve" smooth="yes"/>
      <point x="181.9" y="76.0"/>
      <point x="149.35" y="106.85"/>
      <point x="149.35" y="161.0" type="curve" smooth="yes"/>
      <point x="149.35" y="277.75" type="line" smooth="yes"/>
      <point x="149.35" y="320.1"/>
      <point x="168.55" y="346.5"/>
      <point x="205.95" y="354.55" type="curve"/>
      <point x="350.4" y="154.4" type="line"/>
      <point x="322.75" y="105.45"/>
      <point x="280.3" y="76.0"/>
    </contour>
  </outline>
</glyph>
<glyph name="quotesingle" format="2">
  <advance width="600.0"/>
  <unicode hex="0027"/>
  <outline>
    <contour>
      <point x="255.3" y="430.0" type="line"/>
      <point x="336.35" y="430.0" type="line"/>
      <point x="347.65" y="578.5" type="line"/>
      <point x="347.65" y="730.0" type="line"/>
      <point x="243.0" y="730.0" type="line"/>
      <point x="243.0" y="578.5" type="line"/>
    </contour>
  </outline>
</glyph>
<glyph name="parenleft" format="2">
  <advance width="600.0"/>
  <unicode hex="0028"/>
  <outline>
    <contour>
      <point x="485.0" y="-120.0" type="curve"/>
      <point x="485.0" y="-21.55" type="line"/>
      <point x="358.55" y="8.0"/>
      <point x="279.5" y="120.1"/>
      <point x="279.5" y="269.85" type="curve" smooth="yes"/>
      <point x="279.5" y="450.0" type="line" smooth="yes"/>
      <point x="279.5" y="601.9"/>
      <point x="359.25" y="715.55"/>
      <point x="485.0" y="745.25" type="curve"/>
      <point x="485.0" y="840.0" type="line"/>
      <point x="296.7" y="792.5"/>
      <point x="180.5" y="644.25"/>
      <point x="180.5" y="450.0" type="curve" smooth="yes"/>
      <point x="180.5" y="269.85" type="line" smooth="yes"/>
      <point x="180.5" y="71.75"/>
      <point x="292.55" y="-71.5"/>
    </contour>
  </outline>
</glyph>
<glyph name="parenright" format="2">
  <advance width="600.0"/>
  <unicode hex="0029"/>
  <outline>
    <contour>
      <point x="115.0" y="-120.0" type="line"/>
      <point x="307.45" y="-71.5"/>
      <point x="419.5" y="71.75"/>
      <point x="419.5" y="269.85" type="curve" smooth="yes"/>
      <point x="419.5" y="450.0" type="line" smooth="yes"/>
      <point x="419.5" y="644.25"/>
      <point x="303.3" y="792.5"/>
      <point x="115.0" y="840.0" type="curve"/>
      <point x="115.0" y="745.25" type="line"/>
      <point x="240.75" y="715.55"/>
      <point x="320.5" y="601.9"/>
      <point x="320.5" y="450.0" type="curve" smooth="yes"/>
      <point x="320.5" y="269.85" type="line" smooth="yes"/>
      <point x="320.5" y="120.1"/>
      <point x="241.45" y="8.0"/>
      <point x="115.0" y="-21.55" type="curve"/>
    </contour>
  </outline>
</glyph>
<glyph name="asterisk" format="2">
  <advance width="600.0"/>
  <unicode hex="002A"/>
  <outline>
    <contour>
      <point x="183.4" y="92.2" type="line"/>
      <point x="234.1" y="165.25" type="line" smooth="yes"/>
      <point x="261.15" y="202.9"/>
      <point x="283.45" y="262.95"/>
      <point x="296.15" y="299.85" type="curve"/>
      <point x="303.0" y="299.85" type="line"/>
      <point x="314.85" y="262.95"/>
      <point x="338.0" y="202.9"/>
      <point x="364.2" y="165.25" type="curve" smooth="yes"/>
      <point x="415.75" y="92.2" type="line"/>
      <point x="492.85" y="145.8" type="line"/>
      <point x="441.45" y="219.0" type="line" smooth="yes"/>
      <point x="415.25" y="256.5"/>
      <point x="367.8" y="297.85"/>
      <point x="336.9" y="322.0" type="curve"/>
      <point x="340.6" y="329.4" type="line"/>
      <point x="379.65" y="331.95"/>
      <point x="440.1" y="338.35"/>
      <point x="482.75" y="353.95" type="curve" smooth="yes"/>
      <point x="566.2" y="384.0" type="line"/>
      <point x="533.95" y="472.85" type="line"/>
      <point x="450.5" y="442.8" type="line" smooth="yes"/>
      <point x="407.0" y="427.2"/>
      <point x="354.9" y="391.65"/>
      <point x="323.45" y="367.75" type="curve"/>
      <point x="318.6" y="371.6" type="line"/>
      <point x="330.2" y="409.2"/>
      <point x="347.15" y="473.2"/>
      <point x="347.15" y="521.0" type="curve" smooth="yes"/>
      <point x="347.15" y="610.0" type="line"/>
      <point x="252.85" y="610.0" type="line"/>
      <point x="252.85" y="521.0" type="line" smooth="yes"/>
      <point x="252.85" y="473.2"/>
      <point x="269.8" y="409.2"/>
      <point x="280.55" y="371.6" type="curve"/>
      <point x="275.55" y="367.6" type="line"/>
      <point x="244.1" y="391.5"/>
      <point x="192.0" y="427.2"/>
      <point x="148.5" y="442.8" type="curve" smooth="yes"/>
      <point x="65.9" y="472.85" type="line"/>
      <point x="33.8" y="384.0" type="line"/>
      <point x="116.25" y="353.95" type="line" smooth="yes"/>
      <point x="158.9" y="338.35"/>
      <point x="220.35" y="331.95"/>
      <point x="259.4" y="329.4" type="curve"/>
      <point x="262.25" y="322.85" type="line"/>
      <point x="232.2" y="298.7"/>
      <point x="183.9" y="257.35"/>
      <point x="156.85" y="218.85" type="curve" smooth="yes"/>
      <point x="106.3" y="145.8" type="line"/>
    </contour>
  </outline>
</glyph>
<glyph name="plus" format="2">
  <advance width="600.0"/>
  <unicode hex="002B"/>
  <outline>
    <contour>
      <point x="251.35" y="94.25" type="line"/>
      <point x="348.65" y="94.25" type="line"/>
      <point x="348.65" y="285.5" type="line"/>
      <point x="536.5" y="285.5" type="line"/>
      <point x="536.5" y="374.5" type="line"/>
      <point x="348.65" y="374.5" type="line"/>
      <point x="348.65" y="565.75" type="line"/>
      <point x="251.35" y="565.75" type="line"/>
      <point x="251.35" y="374.5" type="line"/>
      <point x="63.5" y="374.5" type="line"/>
      <point x="63.5" y="285.5" type="line"/>
      <point x="251.35" y="285.5" type="line"/>
    </contour>
  </outline>
</glyph>
<glyph name="comma" format="2">
  <advance width="600.0"/>
  <unicode hex="002C"/>
  <outline>
    <contour>
      <point x="204.75" y="-160.0" type="line"/>
      <point x="302.25" y="-160.0" type="line"/>
      <point x="373.75" y="151.0" type="line"/>
      <point x="259.3" y="151.0" type="line"/>
    </contour>
  </outline>
</glyph>
<glyph name="period" format="2">
  <advance width="600.0"/>
  <unicode hex="002E"/>
  <outline>
    <contour>
      <point x="300.0" y="-10.0" type="curve" smooth="yes"/>
      <point x="352.65" y="-10.0"/>
      <point x="385.7" y="22.2"/>
      <point x="385.7" y="74.0" type="curve" smooth="yes"/>
      <point x="385.7" y="127.5"/>
      <point x="352.65" y="161.4"/>
      <point x="300.0" y="161.4" type="curve" smooth="yes"/>
      <point x="247.35" y="161.4"/>
      <point x="214.3" y="127.5"/>
      <point x="214.3" y="74.0" type="curve" smooth="yes"/>
      <point x="214.3" y="22.2"/>
      <point x="247.35" y="-10.0"/>
    </contour>
  </outline>
</glyph>
<glyph name="slash" format="2">
  <advance width="600.0"/>
  <unicode hex="002F"/>
  <outline>
    <contour>
      <point x="71.25" y="-110.0" type="line"/>
      <point x="175.25" y="-110.0" type="line"/>
      <point x="528.75" y="830.0" type="line"/>
      <point x="424.75" y="830.0" type="line"/>
    </contour>
  </outline>
</glyph>
<glyph name="zero" format="2">
  <advance width="600.0"/>
  <unicode hex="0030"/>
  <outline>
    <contour>
      <point x="300.0" y="-10.0" type="curve" smooth="yes"/>
      <point x="435.95" y="-10.0"/>
      <point x="523.0" y="75.45"/>
      <point x="523.0" y="205.75" type="curve" smooth="yes"/>
      <point x="523.0" y="524.25" type="line" smooth="yes"/>
      <point x="523.0" y="655.4"/>
      <point x="436.8" y="740.0"/>
      <point x="300.0" y="740.0" type="curve" smooth="yes"/>
      <point x="163.2" y="740.0"/>
      <point x="77.0" y="655.4"/>
      <point x="77.0" y="524.25" type="curve" smooth="yes"/>
      <point x="77.0" y="205.75" type="line" smooth="yes"/>
      <point x="77.0" y="74.6"/>
      <point x="163.2" y="-10.0"/>
    </contour>
    <contour>
      <point x="300.0" y="74.95" type="curve" smooth="yes"/>
      <point x="222.7" y="74.95"/>
      <point x="171.95" y="128.5"/>
      <point x="171.95" y="205.75" type="curve" smooth="yes"/>
      <point x="171.95" y="524.25" type="line" smooth="yes"/>
      <point x="171.95" y="601.5"/>
      <point x="222.55" y="655.05"/>
      <point x="300.0" y="655.05" type="curve" smooth="yes"/>
      <point x="377.45" y="655.05"/>
      <point x="428.05" y="601.5"/>
      <point x="428.05" y="524.25" type="curve" smooth="yes"/>
      <point x="428.05" y="205.75" type="line" smooth="yes"/>
      <point x="428.05" y="128.5"/>
      <point x="377.3" y="74.95"/>
    </contour>
    <contour>
      <point x="300.0" y="304.5" type="curve" smooth="yes"/>
      <point x="336.9" y="304.5"/>
      <point x="361.5" y="330.1"/>
      <point x="361.5" y="368.0" type="curve" smooth="yes"/>
      <point x="361.5" y="404.9"/>
      <point x="336.9" y="429.5"/>
      <point x="300.0" y="429.5" type="curve" smooth="yes"/>
      <point x="263.1" y="429.5"/>
      <point x="238.5" y="404.9"/>
      <point x="238.5" y="368.0" type="curve" smooth="yes"/>
      <point x="238.5" y="330.1"/>
      <point x="263.1" y="304.5"/>
    </contour>
  </outline>
</glyph>
<glyph name="one" format="2">
  <advance width="600.0"/>
  <unicode hex="0031"/>
  <outline>
    <contour>
      <point x="88.5" y="0.0" type="line"/>
      <point x="543.0" y="0.0" type="line"/>
      <point x="543.0" y="89.95" type="line"/>
      <point x="383.4" y="89.95" type="line"/>
      <point x="383.4" y="730.0" type="line"/>
      <point x="254.1" y="730.0" type="line"/>
      <point x="88.2" y="607.45" type="line"/>
      <point x="88.2" y="499.2" type="line"/>
      <point x="284.4" y="645.7" type="line"/>
      <point x="284.4" y="89.95" type="line"/>
      <point x="88.5" y="89.95" type="line"/>
    </contour>
  </outline>
</glyph>
<glyph name="two" format="2">
  <advance width="600.0"/>
  <unicode hex="0032"/>
  <outline>
    <contour>
      <point x="88.7" y="0.0" type="line"/>
      <point x="528.4" y="0.0" type="line"/>
      <point x="528.4" y="89.95" type="line"/>
      <point x="204.6" y="89.95" type="line"/>
      <point x="389.35" y="287.7" type="line" smooth="yes"/>
      <point x="478.45" y="383.15"/>
      <point x="517.0" y="455.0"/>
      <point x="517.0" y="526.95" type="curve" smooth="yes"/>
      <point x="517.0" y="657.7"/>
      <point x="430.65" y="740.0"/>
      <point x="294.45" y="740.0" type="curve" smooth="yes"/>
      <point x="159.75" y="740.0"/>
      <point x="72.1" y="655.65"/>
      <point x="68.7" y="522.0" type="curve"/>
      <point x="167.7" y="522.0" type="line"/>
      <point x="167.7" y="602.0"/>
      <point x="216.45" y="651.75"/>
      <point x="294.0" y="651.75" type="curve" smooth="yes"/>
      <point x="370.4" y="651.75"/>
      <point x="418.0" y="603.15"/>
      <point x="418.0" y="525.7" type="curve" smooth="yes"/>
      <point x="418.0" y="471.8"/>
      <point x="389.5" y="419.35"/>
      <point x="325.3" y="349.9" type="curve" smooth="yes"/>
      <point x="88.7" y="95.45" type="line"/>
    </contour>
  </outline>
</glyph>
<glyph name="three" format="2">
  <advance width="600.0"/>
  <unicode hex="0033"/>
  <outline>
    <contour>
      <point x="290.05" y="-10.0" type="curve" smooth="yes"/>
      <point x="424.75" y="-10.0"/>
      <point x="514.5" y="73.55"/>
      <point x="514.5" y="200.0" type="curve" smooth="yes"/>
      <point x="514.5" y="251.35" type="line" smooth="yes"/>
      <point x="514.5" y="379.65"/>
      <point x="428.15" y="461.65"/>
      <point x="292.6" y="461.65" type="curve"/>
      <point x="292.6" y="428.5" type="line"/>
      <point x="490.75" y="641.2" type="line"/>
      <point x="490.75" y="730.0" type="line"/>
      <point x="98.05" y="730.0" type="line"/>
      <point x="98.05" y="641.55" type="line"/>
      <point x="380.35" y="641.55" type="line"/>
      <point x="210.25" y="458.3" type="line"/>
      <point x="210.25" y="374.6" type="line"/>
      <point x="290.9" y="374.6" type="line" smooth="yes"/>
      <point x="369.6" y="374.6"/>
      <point x="415.5" y="329.15"/>
      <point x="415.5" y="251.2" type="curve" smooth="yes"/>
      <point x="415.5" y="200.0" type="line" smooth="yes"/>
      <point x="415.5" y="125.45"/>
      <point x="369.75" y="76.75"/>
      <point x="290.9" y="76.75" type="curve" smooth="yes"/>
      <point x="213.05" y="76.75"/>
      <point x="166.3" y="123.05"/>
      <point x="166.3" y="200.0" type="curve"/>
      <point x="67.3" y="200.0" type="line"/>
      <point x="67.3" y="73.55"/>
      <point x="155.35" y="-10.0"/>
    </contour>
  </outline>
</glyph>
<glyph name="four" format="2">
  <advance width="600.0"/>
  <unicode hex="0034"/>
  <outline>
    <contour>
      <point x="395.5" y="0.0" type="line"/>
      <point x="494.5" y="0.0" type="line"/>
      <point x="494.5" y="420.0" type="line"/>
      <point x="395.5" y="420.0" type="line"/>
      <point x="395.5" y="245.3" type="line"/>
      <point x="164.5" y="245.3" type="line"/>
      <point x="164.5" y="285.7" type="line"/>
      <point x="443.1" y="730.0" type="line"/>
      <point x="334.2" y="730.0" type="line"/>
      <point x="67.0" y="307.3" type="line"/>
      <point x="67.0" y="156.1" type="line"/>
      <point x="395.5" y="156.1" type="line"/>
    </contour>
  </outline>
</glyph>
<glyph name="five" format="2">
  <advance width="600.0"/>
  <unicode hex="0035"/>
  <outline>
    <contour>
      <point x="298.15" y="-10.0" type="curve" smooth="yes"/>
      <point x="437.25" y="-10.0"/>
      <point x="518.75" y="71.0"/>
      <point x="518.75" y="200.75" type="curve" smooth="yes"/>
      <point x="518.75" y="271.75" type="line" smooth="yes"/>
      <point x="518.75" y="403.15"/>
      <point x="448.9" y="480.7"/>
      <point x="330.75" y="479.85" type="curve" smooth="yes"/>
      <point x="247.05" y="479.85"/>
      <point x="193.65" y="441.0"/>
      <point x="193.65" y="379.15" type="curve"/>
      <point x="222.25" y="405.0" type="line"/>
      <point x="193.8" y="405.0" type="line"/>
      <point x="196.65" y="640.05" type="line"/>
      <point x="492.6" y="640.05" type="line"/>
      <point x="492.6" y="730.0" type="line"/>
      <point x="101.55" y="730.0" type="line"/>
      <point x="96.55" y="326.6" type="line"/>
      <point x="194.8" y="326.6" type="line"/>
      <point x="211.5" y="367.85"/>
      <point x="250.25" y="394.85"/>
      <point x="299.85" y="394.85" type="curve" smooth="yes"/>
      <point x="379.4" y="394.85"/>
      <point x="419.75" y="350.4"/>
      <point x="419.75" y="271.75" type="curve" smooth="yes"/>
      <point x="419.75" y="200.75" type="line" smooth="yes"/>
      <point x="419.75" y="122.1"/>
      <point x="379.25" y="77.5"/>
      <point x="299.0" y="77.5" type="curve" smooth="yes"/>
      <point x="227.85" y="77.5"/>
      <point x="186.5" y="109.45"/>
      <point x="180.25" y="164.5" type="curve"/>
      <point x="81.25" y="164.5" type="line"/>
      <point x="92.75" y="57.65"/>
      <point x="175.25" y="-10.0"/>
    </contour>
  </outline>
</glyph>
<glyph name="six" format="2">
  <advance width="600.0"/>
  <unicode hex="0036"/>
  <outline>
    <contour>
      <point x="300.85" y="-10.0" type="curve" smooth="yes"/>
      <point x="443.65" y="-10.0"/>
      <point x="538.85" y="85.0"/>
      <point x="538.85" y="226.85" type="curve" smooth="yes"/>
      <point x="538.85" y="359.7"/>
      <point x="458.45" y="448.55"/>
      <point x="339.35" y="448.55" type="curve" smooth="yes"/>
      <point x="282.35" y="448.55"/>
      <point x="235.85" y="425.25"/>
      <point x="211.1" y="388.2" type="curve"/>
      <point x="206.65" y="391.35" type="line"/>
      <point x="405.55" y="730.0" type="line"/>
      <point x="297.8" y="730.0" type="line"/>
      <point x="127.9" y="431.35" type="line" smooth="yes"/>
      <point x="85.0" y="356.7"/>
      <point x="61.15" y="289.25"/>
      <point x="61.15" y="225.85" type="curve" smooth="yes"/>
      <point x="61.15" y="85.05"/>
      <point x="157.2" y="-10.0"/>
    </contour>
    <contour>
      <point x="300.0" y="76.75" type="curve" smooth="yes"/>
      <point x="216.3" y="76.75"/>
      <point x="159.55" y="136.2"/>
      <point x="159.55" y="224.85" type="curve" smooth="yes"/>
      <point x="159.55" y="313.65"/>
      <point x="216.3" y="373.25"/>
      <point x="300.0" y="373.25" type="curve" smooth="yes"/>
      <point x="383.7" y="373.25"/>
      <point x="440.45" y="313.65"/>
      <point x="440.45" y="224.85" type="curve" smooth="yes"/>
      <point x="440.45" y="136.2"/>
      <point x="383.7" y="76.75"/>
    </contour>
  </outline>
</glyph>
<glyph name="seven" format="2">
  <advance width="600.0"/>
  <unicode hex="0037"/>
  <outline>
    <contour>
      <point x="182.75" y="0.0" type="line"/>
      <point x="291.5" y="0.0" type="line"/>
      <point x="548.0" y="639.25" type="line"/>
      <point x="548.0" y="730.0" type="line"/>
      <point x="76.25" y="730.0" type="line"/>
      <point x="76.25" y="522.5" type="line"/>
      <point x="175.25" y="522.5" type="line"/>
      <point x="175.25" y="640.8" type="line"/>
      <point x="445.25" y="640.8" type="line"/>
    </contour>
  </outline>
</glyph>
<glyph name="eight" format="2">
  <advance width="600.0"/>
  <unicode hex="0038"/>
  <outline>
    <contour>
      <point x="300.0" y="-10.0" type="curve" smooth="yes"/>
      <point x="442.65" y="-10.0"/>
      <point x="537.0" y="68.85"/>
      <point x="537.0" y="184.35" type="curve" smooth="yes"/>
      <point x="537.0" y="272.6"/>
      <point x="473.4" y="351.6"/>
      <point x="372.95" y="389.95" type="curve" smooth="yes"/>
      <point x="272.2" y="428.65" type="line" smooth="yes"/>
      <point x="214.9" y="450.2"/>
      <point x="175.55" y="495.4"/>
      <point x="175.55" y="548.45" type="curve" smooth="yes"/>
      <point x="175.55" y="610.05"/>
      <point x="226.3" y="654.25"/>
      <point x="300.0" y="654.25" type="curve" smooth="yes"/>
      <point x="373.55" y="654.25"/>
      <point x="424.15" y="610.9"/>
      <point x="424.15" y="548.45" type="curve" smooth="yes"/>
      <point x="424.15" y="496.95"/>
      <point x="383.25" y="450.75"/>
      <point x="324.4" y="427.65" type="curve" smooth="yes"/>
      <point x="223.65" y="388.25" type="line" smooth="yes"/>
      <point x="126.4" y="350.8"/>
      <point x="63.0" y="272.65"/>
      <point x="63.0" y="184.35" type="curve" smooth="yes"/>
      <point x="63.0" y="69.3"/>
      <point x="157.35" y="-10.0"/>
    </contour>
    <contour>
      <point x="300.0" y="76.6" type="curve" smooth="yes"/>
      <point x="216.2" y="76.6"/>
      <point x="159.7" y="124.95"/>
      <point x="159.7" y="196.5" type="curve" smooth="yes"/>
      <point x="159.7" y="250.95"/>
      <point x="195.85" y="300.6"/>
      <point x="256.7" y="324.7" type="curve" smooth="yes"/>
      <point x="358.85" y="365.3" type="line" smooth="yes"/>
      <point x="465.75" y="407.1"/>
      <point x="520.85" y="475.15"/>
      <point x="520.85" y="552.5" type="curve" smooth="yes"/>
      <point x="520.85" y="661.65"/>
      <point x="428.85" y="740.85"/>
      <point x="300.0" y="740.85" type="curve" smooth="yes"/>
      <point x="171.0" y="740.85"/>
      <point x="78.85" y="661.65"/>
      <point x="78.85" y="552.5" type="curve" smooth="yes"/>
      <point x="78.85" y="474.75"/>
      <point x="133.25" y="407.25"/>
      <point x="238.75" y="366.15" type="curve" smooth="yes"/>
      <point x="340.75" y="325.55" type="line" smooth="yes"/>
      <point x="402.45" y="301.45"/>
      <point x="440.3" y="252.5"/>
      <point x="440.3" y="196.35" type="curve" smooth="yes"/>
      <point x="440.3" y="124.95"/>
      <point x="383.8" y="76.6"/>
    </contour>
  </outline>
</glyph>
<glyph name="nine" format="2">
  <advance width="600.0"/>
  <unicode hex="0039"/>
  <outline>
    <contour>
      <point x="195.2" y="0.0" type="line"/>
      <point x="305.1" y="0.0" type="line"/>
      <point x="471.25" y="298.8" type="line" smooth="yes"/>
      <point x="513.0" y="373.45"/>
      <point x="538.85" y="441.05"/>
      <point x="538.85" y="504.75" type="curve" smooth="yes"/>
      <point x="538.85" y="644.65"/>
      <point x="442.2" y="740.0"/>
      <point x="299.15" y="740.0" type="curve" smooth="yes"/>
      <point x="156.95" y="740.0"/>
      <point x="61.15" y="644.4"/>
      <point x="61.15" y="502.7" type="curve" smooth="yes"/>
      <point x="61.15" y="370.15"/>
      <point x="141.85" y="280.55"/>
      <point x="260.65" y="280.55" type="curve" smooth="yes"/>
      <point x="317.65" y="280.55"/>
      <point x="362.9" y="303.85"/>
      <point x="387.65" y="340.9" type="curve"/>
      <point x="392.1" y="337.75" type="line"/>
    </contour>
    <contour>
      <point x="300.0" y="355.85" type="curve" smooth="yes"/>
      <point x="216.45" y="355.85"/>
      <point x="159.55" y="415.6"/>
      <point x="159.55" y="504.7" type="curve" smooth="yes"/>
      <point x="159.55" y="593.5"/>
      <point x="216.45" y="653.25"/>
      <point x="300.0" y="653.25" type="curve" smooth="yes"/>
      <point x="383.55" y="653.25"/>
      <point x="440.45" y="593.5"/>
      <point x="440.45" y="504.7" type="curve" smooth="yes"/>
      <point x="440.45" y="415.6"/>
      <point x="383.55" y="355.85"/>
    </contour>
  </outline>
</glyph>
<glyph name="colon" format="2">
  <advance width="600.0"/>
  <unicode hex="003A"/>
  <outline>
    <contour>
      <point x="300.0" y="405.5" type="curve" smooth="yes"/>
      <point x="351.5" y="405.5"/>
      <point x="385.55" y="436.4"/>
      <point x="385.55" y="482.75" type="curve" smooth="yes"/>
      <point x="385.55" y="529.1"/>
      <point x="351.5" y="560.0"/>
      <point x="300.0" y="560.0" type="curve" smooth="yes"/>
      <point x="248.5" y="560.0"/>
      <point x="214.45" y="529.1"/>
      <point x="214.45" y="482.75" type="curve" smooth="yes"/>
      <point x="214.45" y="436.4"/>
      <point x="248.5" y="405.5"/>
    </contour>
    <contour>
      <point x="300.0" y="-10.0" type="curve" smooth="yes"/>
      <point x="351.5" y="-10.0"/>
      <point x="385.55" y="20.9"/>
      <point x="385.55" y="67.25" type="curve" smooth="yes"/>
      <point x="385.55" y="113.6"/>
      <point x="351.5" y="144.5"/>
      <point x="300.0" y="144.5" type="curve" smooth="yes"/>
      <point x="248.5" y="144.5"/>
      <point x="214.45" y="113.6"/>
      <point x="214.45" y="67.25" type="curve" smooth="yes"/>
      <point x="214.45" y="20.9"/>
      <point x="248.5" y="-10.0"/>
    </contour>
  </outline>
</glyph>
<glyph name="semicolon" format="2">
  <advance width="600.0"/>
  <unicode hex="003B"/>
  <outline>
    <contour>
      <point x="290.0" y="405.5" type="curve" smooth="yes"/>
      <point x="310.0" y="405.5" type="line" smooth="yes"/>
      <point x="355.2" y="405.5"/>
      <point x="387.25" y="437.55"/>
      <point x="387.25" y="482.75" type="curve" smooth="yes"/>
      <point x="387.25" y="527.1"/>
      <point x="354.35" y="560.0"/>
      <point x="310.0" y="560.0" type="curve" smooth="yes"/>
      <point x="290.0" y="560.0" type="line" smooth="yes"/>
      <point x="245.65" y="560.0"/>
      <point x="212.75" y="527.1"/>
      <point x="212.75" y="482.75" type="curve" smooth="yes"/>
      <point x="212.75" y="437.55"/>
      <point x="244.8" y="405.5"/>
    </contour>
    <component base="comma" xOffset="-5.0"/>
  </outline>
</glyph>
<glyph name="less" format="2">
  <advance width="600.0"/>
  <unicode hex="003C"/>
  <outline>
    <contour>
      <point x="517.25" y="62.6" type="line"/>
      <point x="517.25" y="159.65" type="line"/>
      <point x="212.35" y="307.85" type="line" smooth="yes"/>
      <point x="188.75" y="319.85"/>
      <point x="162.55" y="328.55"/>
      <point x="149.8" y="331.55" type="curve"/>
      <point x="161.7" y="334.55"/>
      <point x="187.05" y="343.4"/>
      <point x="212.35" y="355.4" type="curve" smooth="yes"/>
      <point x="517.25" y="502.75" type="line"/>
      <point x="517.25" y="597.1" type="line"/>
      <point x="82.75" y="383.0" type="line"/>
      <point x="82.75" y="276.55" type="line"/>
    </contour>
  </outline>
</glyph>
<glyph name="equal" format="2">
  <advance width="600.0"/>
  <unicode hex="003D"/>
  <outline>
    <contour>
      <point x="84.25" y="406.25" type="line"/>
      <point x="515.75" y="406.25" type="line"/>
      <point x="515.75" y="495.25" type="line"/>
      <point x="84.25" y="495.25" type="line"/>
    </contour>
    <contour>
      <point x="84.25" y="164.75" type="line"/>
      <point x="515.75" y="164.75" type="line"/>
      <point x="515.75" y="253.75" type="line"/>
      <point x="84.25" y="253.75" type="line"/>
    </contour>
  </outline>
</glyph>
<glyph name="greater" format="2">
  <advance width="600.0"/>
  <unicode hex="003E"/>
  <outline>
    <contour>
      <point x="82.75" y="62.6" type="line"/>
      <point x="517.25" y="276.7" type="line"/>
      <point x="517.25" y="383.15" type="line"/>
      <point x="82.75" y="597.1" type="line"/>
      <point x="82.75" y="500.05" type="line"/>
      <point x="387.65" y="351.85" type="line" smooth="yes"/>
      <point x="411.25" y="339.85"/>
      <point x="437.45" y="331.15"/>
      <point x="450.2" y="328.15" type="curve"/>
      <point x="438.3" y="325.15"/>
      <point x="412.95" y="316.3"/>
      <point x="387.65" y="304.3" type="curve" smooth="yes"/>
      <point x="82.75" y="156.95" type="line"/>
    </contour>
  </outline>
</glyph>
<glyph name="question" format="2">
  <advance width="600.0"/>
  <unicode hex="003F"/>
  <outline>
    <contour>
      <point x="201.5" y="208.0" type="line"/>
      <point x="296.75" y="208.0" type="line"/>
      <point x="296.75" y="309.25" type="line"/>
      <point x="410.85" y="314.35"/>
      <point x="488.75" y="398.35"/>
      <point x="488.75" y="515.0" type="curve" smooth="yes"/>
      <point x="488.75" y="646.0"/>
      <point x="397.7" y="730.0"/>
      <point x="255.75" y="730.0" type="curve" smooth="yes"/>
      <point x="126.25" y="730.0" type="line"/>
      <point x="126.25" y="636.75" type="line"/>
      <point x="257.25" y="636.75" type="line" smooth="yes"/>
      <point x="338.6" y="636.75"/>
      <point x="389.75" y="589.05"/>
      <point x="389.75" y="515.0" type="curve" smooth="yes"/>
      <point x="389.75" y="441.1"/>
      <point x="338.6" y="393.25"/>
      <point x="258.25" y="393.25" type="curve" smooth="yes"/>
      <point x="200.75" y="393.25" type="line"/>
    </contour>
    <contour>
      <point x="233.35" y="-5.0" type="curve" smooth="yes"/>
      <point x="263.2" y="-5.0" type="line" smooth="yes"/>
      <point x="299.85" y="-5.0"/>
      <point x="325.6" y="21.15"/>
      <point x="325.6" y="57.35" type="curve" smooth="yes"/>
      <point x="325.6" y="92.55"/>
      <point x="302.4" y="118.0"/>
      <point x="263.35" y="118.0" type="curve" smooth="yes"/>
      <point x="233.35" y="118.0" type="line" smooth="yes"/>
      <point x="196.85" y="118.0"/>
      <point x="171.1" y="92.55"/>
      <point x="171.1" y="56.5" type="curve" smooth="yes"/>
      <point x="171.1" y="20.45"/>
      <point x="196.85" y="-5.0"/>
    </contour>
  </outline>
</glyph>
<glyph name="at" format="2">
  <advance width="600.0"/>
  <unicode hex="0040"/>
  <outline>
    <contour>
      <point x="325.0" y="-179.85" type="curve" smooth="yes"/>
      <point x="395.0" y="-179.85" type="line"/>
      <point x="395.0" y="-99.6" type="line"/>
      <point x="325.0" y="-99.6" type="line" smooth="yes"/>
      <point x="202.2" y="-99.6"/>
      <point x="128.0" y="-20.3"/>
      <point x="128.0" y="110.15" type="curve" smooth="yes"/>
      <point x="128.0" y="450.0" type="line" smooth="yes"/>
      <point x="128.0" y="586.0"/>
      <point x="196.8" y="664.75"/>
      <point x="313.95" y="664.75" type="curve" smooth="yes"/>
      <point x="419.75" y="664.75"/>
      <point x="477.0" y="604.7"/>
      <point x="477.0" y="495.75" type="curve" smooth="yes"/>
      <point x="477.0" y="489.55" type="line"/>
      <point x="479.85" y="410.0" type="line"/>
      <point x="462.85" y="410.0" type="line"/>
      <point x="477.0" y="399.15" type="line"/>
      <point x="477.0" y="451.9"/>
      <point x="434.7" y="486.5"/>
      <point x="370.4" y="486.5" type="curve" smooth="yes"/>
      <point x="284.15" y="486.5"/>
      <point x="237.75" y="431.45"/>
      <point x="237.75" y="330.0" type="curve" smooth="yes"/>
      <point x="237.75" y="211.5" type="line" smooth="yes"/>
      <point x="237.75" y="110.05"/>
      <point x="284.15" y="55.0"/>
      <point x="370.4" y="55.0" type="curve" smooth="yes"/>
      <point x="434.55" y="55.0"/>
      <point x="477.0" y="89.75"/>
      <point x="477.0" y="141.65" type="curve"/>
      <point x="458.9" y="131.5" type="line"/>
      <point x="479.15" y="131.5" type="line"/>
      <point x="479.15" y="65.0" type="line"/>
      <point x="563.0" y="65.0" type="line"/>
      <point x="563.0" y="495.75" type="line" smooth="yes"/>
      <point x="563.0" y="645.65"/>
      <point x="469.1" y="740.0"/>
      <point x="315.0" y="740.0" type="curve" smooth="yes"/>
      <point x="145.2" y="740.0"/>
      <point x="42.0" y="630.0"/>
      <point x="42.0" y="450.0" type="curve" smooth="yes"/>
      <point x="42.0" y="110.15" type="line" smooth="yes"/>
      <point x="42.0" y="-67.3"/>
      <point x="151.75" y="-179.85"/>
    </contour>
    <contour>
      <point x="400.0" y="121.3" type="curve" smooth="yes"/>
      <point x="348.25" y="121.3"/>
      <point x="323.0" y="149.25"/>
      <point x="323.0" y="211.5" type="curve" smooth="yes"/>
      <point x="323.0" y="330.0" type="line" smooth="yes"/>
      <point x="323.0" y="391.2"/>
      <point x="348.25" y="420.2"/>
      <point x="400.0" y="420.2" type="curve" smooth="yes"/>
      <point x="452.45" y="420.2"/>
      <point x="477.0" y="392.05"/>
      <point x="477.0" y="330.85" type="curve" smooth="yes"/>
      <point x="477.0" y="220.0" type="line" smooth="yes"/>
      <point x="477.0" y="152.5"/>
      <point x="453.05" y="121.3"/>
    </contour>
  </outline>
</glyph>
<glyph name="A" format="2">
  <advance width="600.0"/>
  <unicode hex="0041"/>
  <anchor x="300.0" y="0.0" name="bottom"/>
  <anchor x="494.75" y="0.0" name="ogonek"/>
  <anchor x="300.0" y="730.0" name="top"/>
  <outline>
    <contour>
      <point x="46.25" y="0.0" type="line"/>
      <point x="147.4" y="0.0" type="line"/>
      <point x="193.45" y="189.65" type="line"/>
      <point x="407.4" y="189.65" type="line"/>
      <point x="453.45" y="0.0" type="line"/>
      <point x="553.75" y="0.0" type="line"/>
      <point x="365.95" y="730.0" type="line"/>
      <point x="234.6" y="730.0" type="line"/>
    </contour>
    <contour>
      <point x="212.5" y="272.25" type="line"/>
      <point x="265.65" y="490.9" type="line" smooth="yes"/>
      <point x="285.0" y="569.8"/>
      <point x="296.7" y="629.05"/>
      <point x="300.0" y="648.55" type="curve"/>
      <point x="303.3" y="629.05"/>
      <point x="315.15" y="569.8"/>
      <point x="334.5" y="489.9" type="curve" smooth="yes"/>
      <point x="387.35" y="272.25" type="line"/>
    </contour>
  </outline>
</glyph>
<glyph name="B" format="2">
  <advance width="600.0"/>
  <unicode hex="0042"/>
  <anchor x="300.0" y="0.0" name="bottom"/>
  <anchor x="300.0" y="730.0" name="top"/>
  <outline>
    <contour>
      <point x="88.95" y="0.0" type="line"/>
      <point x="314.25" y="0.0" type="line" smooth="yes"/>
      <point x="449.8" y="0.0"/>
      <point x="534.5" y="78.9"/>
      <point x="534.5" y="204.2" type="curve" smooth="yes"/>
      <point x="534.5" y="320.0"/>
      <point x="459.95" y="394.4"/>
      <point x="346.0" y="392.55" type="curve"/>
      <point x="346.0" y="378.75" type="line"/>
      <point x="451.8" y="377.05"/>
      <point x="517.65" y="441.05"/>
      <point x="517.65" y="541.3" type="curve" smooth="yes"/>
      <point x="517.65" y="658.4"/>
      <point x="435.1" y="730.0"/>
      <point x="300.15" y="730.0" type="curve" smooth="yes"/>
      <point x="88.95" y="730.0" type="line"/>
    </contour>
    <contour>
      <point x="185.5" y="87.0" type="line"/>
      <point x="185.5" y="337.55" type="line"/>
      <point x="304.85" y="337.55" type="line" smooth="yes"/>
      <point x="386.0" y="337.55"/>
      <point x="436.2" y="285.1"/>
      <point x="436.2" y="207.95" type="curve" smooth="yes"/>
      <point x="436.2" y="133.35"/>
      <point x="386.0" y="87.0"/>
      <point x="304.85" y="87.0" type="curve" smooth="yes"/>
    </contour>
    <contour>
      <point x="185.5" y="421.55" type="line"/>
      <point x="185.5" y="643.0" type="line"/>
      <point x="299.85" y="643.0" type="line" smooth="yes"/>
      <point x="374.0" y="643.0"/>
      <point x="419.35" y="600.8"/>
      <point x="419.35" y="532.35" type="curve" smooth="yes"/>
      <point x="419.35" y="463.9"/>
      <point x="373.15" y="421.55"/>
      <point x="299.0" y="421.55" type="curve" smooth="yes"/>
    </contour>
  </outline>
</glyph>
<glyph name="C" format="2">
  <advance width="600.0"/>
  <unicode hex="0043"/>
  <anchor x="305.0" y="0.0" name="bottom"/>
  <anchor x="305.0" y="730.0" name="top"/>
  <outline>
    <contour>
      <point x="304.0" y="-10.0" type="curve" smooth="yes"/>
      <point x="437.4" y="-10.0"/>
      <point x="522.5" y="71.9"/>
      <point x="522.5" y="201.5" type="curve"/>
      <point x="423.5" y="201.5" type="line"/>
      <point x="423.5" y="122.25"/>
      <point x="379.3" y="78.35"/>
      <point x="304.0" y="78.35" type="curve" smooth="yes"/>
      <point x="227.85" y="78.35"/>
      <point x="182.8" y="122.25"/>
      <point x="182.8" y="201.5" type="curve" smooth="yes"/>
      <point x="182.8" y="529.35" type="line" smooth="yes"/>
      <point x="182.8" y="607.75"/>
      <point x="227.85" y="651.65"/>
      <point x="304.0" y="651.65" type="curve" smooth="yes"/>
      <point x="379.3" y="651.65"/>
      <point x="423.5" y="607.75"/>
      <point x="423.5" y="528.5" type="curve"/>
      <point x="522.5" y="528.5" type="line"/>
      <point x="522.5" y="658.1"/>
      <point x="437.4" y="740.0"/>
      <point x="304.0" y="740.0" type="curve" smooth="yes"/>
      <point x="168.9" y="740.0"/>
      <point x="83.8" y="659.8"/>
      <point x="83.8" y="528.5" type="curve" smooth="yes"/>
      <point x="83.8" y="201.5" type="line" smooth="yes"/>
      <point x="83.8" y="70.35"/>
      <point x="168.9" y="-10.0"/>
    </contour>
  </outline>
</glyph>
<glyph name="D" format="2">
  <advance width="600.0"/>
  <unicode hex="0044"/>
  <anchor x="300.0" y="0.0" name="bottom"/>
  <anchor x="300.0" y="365.0" name="center"/>
  <anchor x="300.0" y="730.0" name="top"/>
  <outline>
    <contour>
      <point x="87.65" y="0.0" type="line"/>
      <point x="283.85" y="0.0" type="line" smooth="yes"/>
      <point x="426.35" y="0.0"/>
      <point x="518.0" y="87.2"/>
      <point x="518.0" y="222.25" type="curve" smooth="yes"/>
      <point x="518.0" y="508.75" type="line" smooth="yes"/>
      <point x="518.0" y="642.95"/>
      <point x="426.35" y="730.0"/>
      <point x="283.85" y="730.0" type="curve" smooth="yes"/>
      <point x="87.65" y="730.0" type="line"/>
    </contour>
    <contour>
      <point x="186.65" y="88.25" type="line"/>
      <point x="186.65" y="641.75" type="line"/>
      <point x="283.85" y="641.75" type="line" smooth="yes"/>
      <point x="367.65" y="641.75"/>
      <point x="419.0" y="591.55"/>
      <point x="419.0" y="508.75" type="curve" smooth="yes"/>
      <point x="419.0" y="222.25" type="line" smooth="yes"/>
      <point x="419.0" y="138.6"/>
      <point x="367.65" y="88.25"/>
      <point x="283.85" y="88.25" type="curve" smooth="yes"/>
    </contour>
  </outline>
</glyph>
<glyph name="E" format="2">
  <advance width="600.0"/>
  <unicode hex="0045"/>
  <anchor x="320.0" y="0.0" name="bottom"/>
  <anchor x="438.5" y="0.0" name="ogonek"/>
  <anchor x="320.0" y="730.0" name="top"/>
  <anchor x="20.0" y="730.0" name="topleft"/>
  <outline>
    <contour>
      <point x="97.0" y="0.0" type="line"/>
      <point x="521.5" y="0.0" type="line"/>
      <point x="521.5" y="89.2" type="line"/>
      <point x="194.7" y="89.2" type="line"/>
      <point x="194.7" y="337.5" type="line"/>
      <point x="486.5" y="337.5" type="line"/>
      <point x="486.5" y="424.1" type="line"/>
      <point x="194.7" y="424.1" type="line"/>
      <point x="194.7" y="640.8" type="line"/>
      <point x="521.5" y="640.8" type="line"/>
      <point x="521.5" y="730.0" type="line"/>
      <point x="97.0" y="730.0" type="line"/>
    </contour>
  </outline>
</glyph>
<glyph name="F" format="2">
  <advance width="600.0"/>
  <unicode hex="0046"/>
  <anchor x="300.0" y="0.0" name="bottom"/>
  <anchor x="300.0" y="730.0" name="top"/>
  <outline>
    <contour>
      <point x="91.25" y="0.0" type="line"/>
      <point x="190.25" y="0.0" type="line"/>
      <point x="190.25" y="318.6" type="line"/>
      <point x="501.25" y="318.6" type="line"/>
      <point x="501.25" y="409.3" type="line"/>
      <point x="188.25" y="409.3" type="line"/>
      <point x="188.25" y="639.3" type="line"/>
      <point x="527.25" y="639.3" type="line"/>
      <point x="527.25" y="730.0" type="line"/>
      <point x="91.25" y="730.0" type="line"/>
    </contour>
  </outline>
</glyph>
<glyph name="G" format="2">
  <advance width="600.0"/>
  <unicode hex="0047"/>
  <anchor x="304.0" y="0.0" name="bottom"/>
  <anchor x="300.0" y="730.0" name="top"/>
  <outline>
    <contour>
      <point x="304.0" y="-10.0" type="curve" smooth="yes"/>
      <point x="437.4" y="-10.0"/>
      <point x="522.5" y="71.9"/>
      <point x="522.5" y="201.5" type="curve" smooth="yes"/>
      <point x="522.5" y="376.2" type="line"/>
      <point x="281.5" y="376.2" type="line"/>
      <point x="281.5" y="287.45" type="line"/>
      <point x="423.5" y="287.45" type="line"/>
      <point x="423.5" y="201.5" type="line" smooth="yes"/>
      <point x="423.5" y="122.25"/>
      <point x="379.3" y="77.5"/>
      <point x="304.0" y="77.5" type="curve" smooth="yes"/>
      <point x="227.85" y="77.5"/>
      <point x="182.8" y="122.25"/>
      <point x="182.8" y="201.5" type="curve" smooth="yes"/>
      <point x="182.8" y="529.35" type="line" smooth="yes"/>
      <point x="182.8" y="607.75"/>
      <point x="227.85" y="651.65"/>
      <point x="304.0" y="651.65" type="curve" smooth="yes"/>
      <point x="379.3" y="651.65"/>
      <point x="423.5" y="607.75"/>
      <point x="423.5" y="528.5" type="curve"/>
      <point x="522.5" y="528.5" type="line"/>
      <point x="522.5" y="658.1"/>
      <point x="437.4" y="740.0"/>
      <point x="304.0" y="740.0" type="curve" smooth="yes"/>
      <point x="168.9" y="740.0"/>
      <point x="83.8" y="659.8"/>
      <point x="83.8" y="528.5" type="curve" smooth="yes"/>
      <point x="83.8" y="201.5" type="line" smooth="yes"/>
      <point x="83.8" y="70.35"/>
      <point x="168.90595000000002" y="-10.0"/>
    </contour>
  </outline>
</glyph>
<glyph name="H" format="2">
  <advance width="600.0"/>
  <unicode hex="0048"/>
  <anchor x="300.0" y="0.0" name="bottom"/>
  <anchor x="300.0" y="365.0" name="center"/>
  <anchor x="300.0" y="730.0" name="top"/>
  <anchor x="20.0" y="730.0" name="topleft"/>
  <outline>
    <contour>
      <point x="88.95" y="0.0" type="line"/>
      <point x="187.95" y="0.0" type="line"/>
      <point x="187.95" y="332.85" type="line"/>
      <point x="412.05" y="332.85" type="line"/>
      <point x="412.05" y="0.0" type="line"/>
      <point x="511.05" y="0.0" type="line"/>
      <point x="511.05" y="730.0" type="line"/>
      <point x="412.05" y="730.0" type="line"/>
      <point x="412.05" y="422.8" type="line"/>
      <point x="187.95" y="422.8" type="line"/>
      <point x="187.95" y="730.0" type="line"/>
      <point x="88.95" y="730.0" type="line"/>
    </contour>
  </outline>
</glyph>
<glyph name="I" format="2">
  <advance width="600.0"/>
  <unicode hex="0049"/>
  <anchor x="300.0" y="0.0" name="bottom"/>
  <anchor x="320.0" y="0.0" name="ogonek"/>
  <anchor x="300.0" y="730.0" name="top"/>
  <anchor x="20.0" y="730.0" name="topleft"/>
  <outline>
    <contour>
      <point x="101.25" y="0.0" type="line"/>
      <point x="498.75" y="0.0" type="line"/>
      <point x="498.75" y="89.95" type="line"/>
      <point x="350.35" y="89.95" type="line"/>
      <point x="350.35" y="640.05" type="line"/>
      <point x="498.75" y="640.05" type="line"/>
      <point x="498.75" y="730.0" type="line"/>
      <point x="101.25" y="730.0" type="line"/>
      <point x="101.25" y="640.05" type="line"/>
      <point x="249.65" y="640.05" type="line"/>
      <point x="249.65" y="89.95" type="line"/>
      <point x="101.25" y="89.95" type="line"/>
    </contour>
  </outline>
</glyph>
<glyph name="J" format="2">
  <advance width="600.0"/>
  <unicode hex="004A"/>
  <anchor x="300.0" y="0.0" name="bottom"/>
  <anchor x="360.0" y="730.0" name="top"/>
  <outline>
    <contour>
      <point x="270.0" y="-10.0" type="curve" smooth="yes"/>
      <point x="411.25" y="-10.0"/>
      <point x="498.75" y="74.6"/>
      <point x="498.75" y="211.35" type="curve" smooth="yes"/>
      <point x="498.75" y="730.0" type="line"/>
      <point x="194.75" y="730.0" type="line"/>
      <point x="194.75" y="640.05" type="line"/>
      <point x="399.75" y="640.05" type="line"/>
      <point x="399.75" y="211.35" type="line" smooth="yes"/>
      <point x="399.75" y="126.55"/>
      <point x="351.4" y="77.5"/>
      <point x="270.0" y="77.5" type="curve" smooth="yes"/>
      <point x="188.45" y="77.5"/>
      <point x="140.25" y="126.7"/>
      <point x="140.25" y="211.65" type="curve"/>
      <point x="41.25" y="211.65" type="line"/>
      <point x="41.25" y="74.75"/>
      <point x="127.9" y="-10.0"/>
    </contour>
  </outline>
</glyph>
<glyph name="K" format="2">
  <advance width="600.0"/>
  <unicode hex="004B"/>
  <anchor x="300.0" y="0.0" name="bottom"/>
  <anchor x="300.0" y="730.0" name="top"/>
  <outline>
    <contour>
      <point x="87.95" y="0.0" type="line"/>
      <point x="186.95" y="0.0" type="line"/>
      <point x="186.95" y="334.25" type="line"/>
      <point x="286.85" y="334.25" type="line"/>
      <point x="450.1" y="0.0" type="line"/>
      <point x="562.25" y="0.0" type="line"/>
      <point x="376.2" y="379.75" type="line"/>
      <point x="552.85" y="730.0" type="line"/>
      <point x="445.25" y="730.0" type="line"/>
      <point x="289.25" y="420.9" type="line"/>
      <point x="186.95" y="420.9" type="line"/>
      <point x="186.95" y="730.0" type="line"/>
      <point x="87.95" y="730.0" type="line"/>
    </contour>
  </outline>
</glyph>
<glyph name="L" format="2">
  <advance width="600.0"/>
  <unicode hex="004C"/>
  <anchor x="340.0" y="0.0" name="bottom"/>
  <anchor x="300.0" y="365.0" name="center"/>
  <anchor x="177.25" y="730.0" name="top"/>
  <anchor x="580.0" y="730.0" name="topright"/>
  <outline>
    <contour>
      <point x="127.75" y="0.0" type="line"/>
      <point x="551.5" y="0.0" type="line"/>
      <point x="551.5" y="89.95" type="line"/>
      <point x="226.75" y="89.95" type="line"/>
      <point x="226.75" y="730.0" type="line"/>
      <point x="127.75" y="730.0" type="line"/>
    </contour>
  </outline>
</glyph>
<glyph name="M" format="2">
  <advance width="600.0"/>
  <unicode hex="004D"/>
  <anchor x="300.0" y="0.0" name="bottom"/>
  <anchor x="300.0" y="730.0" name="top"/>
  <outline>
    <contour>
      <point x="70.9" y="0.0" type="line"/>
      <point x="166.25" y="0.0" type="line"/>
      <point x="166.25" y="335.25" type="line" smooth="yes"/>
      <point x="166.25" y="469.55"/>
      <point x="152.8" y="577.55"/>
      <point x="139.1" y="676.45" type="curve"/>
      <point x="253.85" y="318.5" type="line"/>
      <point x="345.7" y="318.5" type="line"/>
      <point x="459.6" y="678.25" type="line"/>
      <point x="446.05" y="573.7"/>
      <point x="433.75" y="457.45"/>
      <point x="433.75" y="335.25" type="curve" smooth="yes"/>
      <point x="433.75" y="0.0" type="line"/>
      <point x="529.1" y="0.0" type="line"/>
      <point x="529.1" y="730.0" type="line"/>
      <point x="403.3" y="730.0" type="line"/>
      <point x="330.35" y="495.75" type="line" smooth="yes"/>
      <point x="316.35" y="451.15"/>
      <point x="305.95" y="406.35"/>
      <point x="301.55" y="384.55" type="curve"/>
      <point x="297.0" y="406.35"/>
      <point x="286.6" y="451.15"/>
      <point x="272.6" y="494.9" type="curve" smooth="yes"/>
      <point x="196.55" y="730.0" type="line"/>
      <point x="70.9" y="730.0" type="line"/>
    </contour>
  </outline>
</glyph>
<glyph name="N" format="2">
  <advance width="600.0"/>
  <unicode hex="004E"/>
  <anchor x="300.0" y="0.0" name="bottom"/>
  <anchor x="300.0" y="730.0" name="top"/>
  <outline>
    <contour>
      <point x="85.5" y="0.0" type="line"/>
      <point x="179.25" y="0.0" type="line"/>
      <point x="179.25" y="396.5" type="line" smooth="yes"/>
      <point x="179.25" y="468.9"/>
      <point x="173.8" y="564.75"/>
      <point x="169.5" y="616.0" type="curve"/>
      <point x="386.25" y="0.0" type="line"/>
      <point x="514.5" y="0.0" type="line"/>
      <point x="514.5" y="730.0" type="line"/>
      <point x="420.75" y="730.0" type="line"/>
      <point x="420.75" y="336.5" type="line" smooth="yes"/>
      <point x="420.75" y="264.1"/>
      <point x="427.2" y="166.6"/>
      <point x="431.65" y="114.0" type="curve"/>
      <point x="213.75" y="730.0" type="line"/>
      <point x="85.5" y="730.0" type="line"/>
    </contour>
  </outline>
</glyph>
<glyph name="O" format="2">
  <advance width="600.0"/>
  <unicode hex="004F"/>
  <anchor x="300.0" y="0.0" name="bottom"/>
  <anchor x="300.0" y="365.0" name="center"/>
  <anchor x="320.0" y="700.0" name="horn"/>
  <anchor x="349.25" y="0.0" name="ogonek"/>
  <anchor x="300.0" y="730.0" name="top"/>
  <anchor x="20.0" y="730.0" name="topleft"/>
  <anchor x="580.0" y="730.0" name="topright"/>
  <outline>
    <contour>
      <point x="300.0" y="-10.0" type="curve" smooth="yes"/>
      <point x="433.4" y="-10.0"/>
      <point x="516.2" y="70.35"/>
      <point x="516.2" y="201.5" type="curve" smooth="yes"/>
      <point x="516.2" y="529.35" type="line" smooth="yes"/>
      <point x="516.2" y="659.65"/>
      <point x="433.4" y="740.0"/>
      <point x="300.0" y="740.0" type="curve" smooth="yes"/>
      <point x="166.6" y="740.0"/>
      <point x="83.8" y="659.65"/>
      <point x="83.8" y="528.5" type="curve" smooth="yes"/>
      <point x="83.8" y="201.5" type="line" smooth="yes"/>
      <point x="83.8" y="70.35"/>
      <point x="166.6" y="-10.0"/>
    </contour>
    <contour>
      <point x="300.0" y="78.35" type="curve" smooth="yes"/>
      <point x="224.7" y="78.35"/>
      <point x="182.8" y="122.25"/>
      <point x="182.8" y="201.5" type="curve" smooth="yes"/>
      <point x="182.8" y="528.5" type="line" smooth="yes"/>
      <point x="182.8" y="607.75"/>
      <point x="224.55" y="651.65"/>
      <point x="300.0" y="651.65" type="curve" smooth="yes"/>
      <point x="375.45" y="651.65"/>
      <point x="417.2" y="607.75"/>
      <point x="417.2" y="528.5" type="curve" smooth="yes"/>
      <point x="417.2" y="201.5" type="line" smooth="yes"/>
      <point x="417.2" y="122.25"/>
      <point x="375.3" y="78.35"/>
    </contour>
  </outline>
</glyph>
<glyph name="P" format="2">
  <advance width="600.0"/>
  <unicode hex="0050"/>
  <anchor x="300.0" y="0.0" name="bottom"/>
  <anchor x="300.0" y="730.0" name="top"/>
  <outline>
    <contour>
      <point x="88.1" y="0.0" type="line"/>
      <point x="187.1" y="0.0" type="line"/>
      <point x="187.1" y="294.9" type="line"/>
      <point x="325.2" y="294.9" type="line" smooth="yes"/>
      <point x="463.75" y="294.9"/>
      <point x="553.0" y="380.25"/>
      <point x="553.0" y="512.45" type="curve" smooth="yes"/>
      <point x="553.0" y="644.8"/>
      <point x="463.9" y="730.0"/>
      <point x="325.2" y="730.0" type="curve" smooth="yes"/>
      <point x="88.1" y="730.0" type="line"/>
    </contour>
    <contour>
      <point x="187.1" y="383.25" type="line"/>
      <point x="187.1" y="641.65" type="line"/>
      <point x="325.2" y="641.65" type="line" smooth="yes"/>
      <point x="401.95" y="641.65"/>
      <point x="451.45" y="591.0"/>
      <point x="451.45" y="512.45" type="curve" smooth="yes"/>
      <point x="451.45" y="433.9"/>
      <point x="401.95" y="383.25"/>
      <point x="325.2" y="383.25" type="curve" smooth="yes"/>
    </contour>
  </outline>
</glyph>
<glyph name="Q" format="2">
  <advance width="600.0"/>
  <unicode hex="0051"/>
  <anchor x="300.0" y="0.0" name="bottom"/>
  <anchor x="300.0" y="730.0" name="top"/>
  <outline>
    <contour>
      <point x="418.7" y="-180.0" type="line"/>
      <point x="530.5" y="-180.0" type="line"/>
      <point x="412.6" y="14.05" type="line"/>
      <point x="482.45" y="47.35"/>
      <point x="523.0" y="116.2"/>
      <point x="523.0" y="205.75" type="curve" smooth="yes"/>
      <point x="523.0" y="524.25" type="line" smooth="yes"/>
      <point x="523.0" y="655.4"/>
      <point x="436.35" y="740.0"/>
      <point x="300.0" y="740.0" type="curve" smooth="yes"/>
      <point x="163.5" y="740.0"/>
      <point x="77.0" y="655.55"/>
      <point x="77.0" y="524.25" type="curve" smooth="yes"/>
      <point x="77.0" y="205.75" type="line" smooth="yes"/>
      <point x="77.0" y="74.75105"/>
      <point x="163.65" y="-10.0"/>
      <point x="300.0" y="-10.0" type="curve" smooth="yes"/>
      <point x="309.4" y="-10.0"/>
      <point x="319.1" y="-9.0"/>
      <point x="324.1" y="-9.0" type="curve"/>
      <point x="310.95" y="-1.95" type="line"/>
    </contour>
    <contour>
      <point x="300.0" y="77.65" type="curve" smooth="yes"/>
      <point x="223.55" y="77.65"/>
      <point x="176.0" y="127.5"/>
      <point x="176.0" y="205.75" type="curve" smooth="yes"/>
      <point x="176.0" y="524.25" type="line" smooth="yes"/>
      <point x="176.0" y="602.65"/>
      <point x="224.15" y="652.5"/>
      <point x="300.0" y="652.5" type="curve" smooth="yes"/>
      <point x="375.85" y="652.5"/>
      <point x="424.0" y="602.65"/>
      <point x="424.0" y="524.25" type="curve" smooth="yes"/>
      <point x="424.0" y="205.75" type="line" smooth="yes"/>
      <point x="424.0" y="127.5"/>
      <point x="376.45" y="77.65"/>
    </contour>
  </outline>
</glyph>
<glyph name="R" format="2">
  <advance width="600.0"/>
  <unicode hex="0052"/>
  <anchor x="300.0" y="0.0" name="bottom"/>
  <anchor x="300.0" y="730.0" name="top"/>
  <outline>
    <contour>
      <point x="87.95" y="0.0" type="line"/>
      <point x="186.8" y="0.0" type="line"/>
      <point x="186.8" y="304.9" type="line"/>
      <point x="296.75" y="304.9" type="line"/>
      <point x="433.45" y="0.0" type="line"/>
      <point x="548.0" y="0.0" type="line"/>
      <point x="397.25" y="317.0" type="line"/>
      <point x="483.75" y="344.9"/>
      <point x="538.0" y="419.8"/>
      <point x="538.0" y="518.2" type="curve" smooth="yes"/>
      <point x="538.0" y="644.85"/>
      <point x="449.05" y="730.0"/>
      <point x="315.3" y="730.0" type="curve" smooth="yes"/>
      <point x="87.95" y="730.0" type="line"/>
    </contour>
    <contour>
      <point x="186.8" y="393.25" type="line"/>
      <point x="186.8" y="641.65" type="line"/>
      <point x="315.3" y="641.65" type="line" smooth="yes"/>
      <point x="388.1" y="641.65"/>
      <point x="436.45" y="592.75"/>
      <point x="436.45" y="517.15" type="curve" smooth="yes"/>
      <point x="436.45" y="441.85"/>
      <point x="388.95" y="393.25"/>
      <point x="315.3" y="393.25" type="curve" smooth="yes"/>
    </contour>
  </outline>
</glyph>
<glyph name="S" format="2">
  <advance width="600.0"/>
  <unicode hex="0053"/>
  <anchor x="300.0" y="0.0" name="bottom"/>
  <anchor x="300.0" y="730.0" name="top"/>
  <outline>
    <contour>
      <point x="303.4" y="-10.0" type="curve" smooth="yes"/>
      <point x="441.95" y="-10.0"/>
      <point x="531.75" y="70.2"/>
      <point x="531.75" y="194.1" type="curve" smooth="yes"/>
      <point x="531.75" y="295.95"/>
      <point x="472.25" y="374.8"/>
      <point x="374.7" y="404.8" type="curve" smooth="yes"/>
      <point x="268.55" y="437.95" type="line" smooth="yes"/>
      <point x="215.15" y="454.05"/>
      <point x="184.05" y="492.84985"/>
      <point x="184.05" y="544.6" type="curve" smooth="yes"/>
      <point x="184.05" y="610.2"/>
      <point x="231.35" y="652.5"/>
      <point x="304.5" y="652.5" type="curve" smooth="yes"/>
      <point x="377.4" y="652.5"/>
      <point x="423.3" y="609.9"/>
      <point x="423.3" y="543.5" type="curve"/>
      <point x="522.3" y="543.5" type="line"/>
      <point x="522.3" y="663.4"/>
      <point x="436.8" y="740.0"/>
      <point x="304.8" y="740.0" type="curve" smooth="yes"/>
      <point x="172.1" y="740.0"/>
      <point x="86.75" y="662.95"/>
      <point x="86.75" y="542.6" type="curve" smooth="yes"/>
      <point x="86.75" y="445.45"/>
      <point x="146.85" y="370.1"/>
      <point x="248.75" y="339.4" type="curve" smooth="yes"/>
      <point x="351.65" y="307.95" type="line" smooth="yes"/>
      <point x="403.05" y="292.7"/>
      <point x="434.45" y="247.95"/>
      <point x="434.45" y="193.05" type="curve" smooth="yes"/>
      <point x="434.45" y="123.5"/>
      <point x="383.85" y="77.5"/>
      <point x="303.85" y="77.5" type="curve" smooth="yes"/>
      <point x="221.0" y="77.5"/>
      <point x="167.25" y="123.8"/>
      <point x="167.25" y="193.2" type="curve"/>
      <point x="68.25" y="193.2" type="line"/>
      <point x="68.25" y="69.45"/>
      <point x="160.45" y="-10.0"/>
    </contour>
  </outline>
</glyph>
<glyph name="T" format="2">
  <advance width="600.0"/>
  <unicode hex="0054"/>
  <anchor x="300.0" y="0.0" name="bottom"/>
  <anchor x="300.0" y="365.0" name="center"/>
  <anchor x="300.0" y="730.0" name="top"/>
  <outline>
    <contour>
      <point x="250.5" y="0.0" type="line"/>
      <point x="349.5" y="0.0" type="line"/>
      <point x="349.5" y="640.05" type="line"/>
      <point x="547.25" y="640.05" type="line"/>
      <point x="547.25" y="730.0" type="line"/>
      <point x="52.75" y="730.0" type="line"/>
      <point x="52.75" y="640.05" type="line"/>
      <point x="250.5" y="640.05" type="line"/>
    </contour>
  </outline>
</glyph>
<glyph name="U" format="2">
  <advance width="600.0"/>
  <unicode hex="0055"/>
  <anchor x="300.0" y="0.0" name="bottom"/>
  <anchor x="385.0" y="730.0" name="horn"/>
  <anchor x="349.25" y="0.0" name="ogonek"/>
  <anchor x="300.0" y="730.0" name="top"/>
  <anchor x="580.0" y="730.0" name="topright"/>
  <outline>
    <contour>
      <point x="300.0" y="-10.0" type="curve" smooth="yes"/>
      <point x="438.65" y="-10.0"/>
      <point x="514.5" y="70.05"/>
      <point x="514.5" y="202.1" type="curve" smooth="yes"/>
      <point x="514.5" y="730.0" type="line"/>
      <point x="415.5" y="730.0" type="line"/>
      <point x="415.5" y="202.25" type="line" smooth="yes"/>
      <point x="415.5" y="125.1"/>
      <point x="376.4" y="77.5"/>
      <point x="300.0" y="77.5" type="curve" smooth="yes"/>
      <point x="222.6" y="77.5"/>
      <point x="184.5" y="125.1"/>
      <point x="184.5" y="202.25" type="curve" smooth="yes"/>
      <point x="184.5" y="730.0" type="line"/>
      <point x="85.5" y="730.0" type="line"/>
      <point x="85.5" y="202.1" type="line" smooth="yes"/>
      <point x="85.5" y="70.75"/>
      <point x="162.2" y="-10.0"/>
    </contour>
  </outline>
</glyph>
<glyph name="V" format="2">
  <advance width="600.0"/>
  <unicode hex="0056"/>
  <anchor x="300.0" y="0.0" name="bottom"/>
  <anchor x="300.0" y="730.0" name="top"/>
  <outline>
    <contour>
      <point x="233.2" y="0.0" type="line"/>
      <point x="366.25" y="0.0" type="line"/>
      <point x="553.75" y="730.0" type="line"/>
      <point x="452.05" y="730.0" type="line"/>
      <point x="335.35" y="239.4" type="line" smooth="yes"/>
      <point x="319.85" y="175.8"/>
      <point x="306.6" y="111.85"/>
      <point x="301.6" y="81.25" type="curve"/>
      <point x="296.45" y="111.85"/>
      <point x="284.6" y="174.95"/>
      <point x="269.1" y="238.4" type="curve" smooth="yes"/>
      <point x="147.7" y="730.0" type="line"/>
      <point x="46.25" y="730.0" type="line"/>
    </contour>
  </outline>
</glyph>
<glyph name="W" format="2">
  <advance width="600.0"/>
  <unicode hex="0057"/>
  <anchor x="300.0" y="0.0" name="bottom"/>
  <anchor x="300.0" y="730.0" name="top"/>
  <outline>
    <contour>
      <point x="104.35" y="0.0" type="line"/>
      <point x="223.95" y="0.0" type="line"/>
      <point x="289.0" y="540.25" type="line" smooth="yes"/>
      <point x="293.85" y="583.6"/>
      <point x="298.7" y="635.65"/>
      <point x="301.7" y="662.95" type="curve"/>
      <point x="303.85" y="635.65"/>
      <point x="308.85" y="583.6"/>
      <point x="313.7" y="540.25" type="curve" smooth="yes"/>
      <point x="373.75" y="0.0" type="line"/>
      <point x="493.2" y="0.0" type="line"/>
      <point x="577.25" y="730.0" type="line"/>
      <point x="488.95" y="730.0" type="line"/>
      <point x="435.4" y="197.8" type="line" smooth="yes"/>
      <point x="430.85" y="156.05"/>
      <point x="427.0" y="100.65"/>
      <point x="425.15" y="70.25" type="curve"/>
      <point x="421.85" y="100.65"/>
      <point x="415.55" y="156.05"/>
      <point x="410.85" y="197.8" type="curve" smooth="yes"/>
      <point x="350.35" y="730.0" type="line"/>
      <point x="254.2" y="730.0" type="line"/>
      <point x="188.3" y="197.8" type="line" smooth="yes"/>
      <point x="182.75" y="156.05"/>
      <point x="178.3" y="100.65"/>
      <point x="175.15" y="70.25" type="curve"/>
      <point x="174.15" y="100.65"/>
      <point x="170.3" y="156.05"/>
      <point x="166.6" y="197.8" type="curve" smooth="yes"/>
      <point x="114.3" y="730.0" type="line"/>
      <point x="22.75" y="730.0" type="line"/>
    </contour>
  </outline>
</glyph>
<glyph name="X" format="2">
  <advance width="600.0"/>
  <unicode hex="0058"/>
  <anchor x="300.0" y="0.0" name="bottom"/>
  <anchor x="300.0" y="730.0" name="top"/>
  <outline>
    <contour>
      <point x="37.0" y="0.0" type="line"/>
      <point x="146.15" y="0.0" type="line"/>
      <point x="266.45" y="225.05" type="line" smooth="yes"/>
      <point x="278.75" y="248.1"/>
      <point x="292.15" y="276.95"/>
      <point x="298.7" y="292.5" type="curve"/>
      <point x="305.4" y="276.95"/>
      <point x="318.95" y="248.1"/>
      <point x="331.25" y="224.2" type="curve" smooth="yes"/>
      <point x="450.7" y="0.0" type="line"/>
      <point x="563.0" y="0.0" type="line"/>
      <point x="355.1" y="376.15" type="line"/>
      <point x="551.7" y="730.0" type="line"/>
      <point x="443.4" y="730.0" type="line"/>
      <point x="333.95" y="522.4" type="line" smooth="yes"/>
      <point x="321.65" y="498.5"/>
      <point x="308.4" y="469.95"/>
      <point x="302.0" y="455.55" type="curve"/>
      <point x="294.75" y="469.95"/>
      <point x="281.35" y="498.5"/>
      <point x="268.9" y="522.4" type="curve" smooth="yes"/>
      <point x="161.45" y="730.0" type="line"/>
      <point x="48.3" y="730.0" type="line"/>
      <point x="244.9" y="371.05" type="line"/>
    </contour>
  </outline>
</glyph>
<glyph name="Y" format="2">
  <advance width="600.0"/>
  <unicode hex="0059"/>
  <anchor x="300.0" y="0.0" name="bottom"/>
  <anchor x="300.0" y="730.0" name="top"/>
  <anchor x="20.0" y="730.0" name="topleft"/>
  <outline>
    <contour>
      <point x="250.5" y="0.0" type="line"/>
      <point x="349.5" y="0.0" type="line"/>
      <point x="349.5" y="271.05" type="line"/>
      <point x="568.0" y="730.0" type="line"/>
      <point x="465.55" y="730.0" type="line"/>
      <point x="331.5" y="442.0" type="line" smooth="yes"/>
      <point x="315.2" y="407.35"/>
      <point x="304.75" y="377.7"/>
      <point x="301.3" y="364.7" type="curve"/>
      <point x="297.85" y="377.7"/>
      <point x="287.95" y="407.35"/>
      <point x="271.65" y="442.0" type="curve" smooth="yes"/>
      <point x="134.6" y="730.0" type="line"/>
      <point x="32.0" y="730.0" type="line"/>
      <point x="250.5" y="271.05" type="line"/>
    </contour>
  </outline>
</glyph>
<glyph name="Z" format="2">
  <advance width="600.0"/>
  <unicode hex="005A"/>
  <anchor x="300.0" y="0.0" name="bottom"/>
  <anchor x="300.0" y="365.0" name="center"/>
  <anchor x="300.0" y="730.0" name="top"/>
  <outline>
    <contour>
      <point x="83.5" y="0.0" type="line"/>
      <point x="516.5" y="0.0" type="line"/>
      <point x="516.5" y="89.95" type="line"/>
      <point x="186.35" y="89.95" type="line"/>
      <point x="506.35" y="633.25" type="line"/>
      <point x="506.35" y="730.0" type="line"/>
      <point x="88.95" y="730.0" type="line"/>
      <point x="88.95" y="640.05" type="line"/>
      <point x="403.35" y="640.05" type="line"/>
      <point x="83.5" y="96.75" type="line"/>
    </contour>
  </outline>
</glyph>
<glyph name="backslash" format="2">
  <advance width="600.0"/>
  <unicode hex="005C"/>
  <outline>
    <contour>
      <point x="424.6" y="-110.0" type="line"/>
      <point x="528.6" y="-110.0" type="line"/>
      <point x="175.1" y="830.0" type="line"/>
      <point x="71.1" y="830.0" type="line"/>
    </contour>
  </outline>
</glyph>
<glyph name="bracketright" format="2">
  <advance width="600.0"/>
  <unicode hex="005D"/>
  <outline>
    <contour>
      <point x="146.25" y="-110.0" type="line"/>
      <point x="400.25" y="-110.0" type="line"/>
      <point x="400.25" y="830.0" type="line"/>
      <point x="146.25" y="830.0" type="line"/>
      <point x="146.25" y="741.0" type="line"/>
      <point x="301.25" y="741.0" type="line"/>
      <point x="301.25" y="-21.0" type="line"/>
      <point x="146.25" y="-21.0" type="line"/>
    </contour>
  </outline>
</glyph>
<glyph name="asciicircum" format="2">
  <advance width="600.0"/>
  <unicode hex="005E"/>
  <outline>
    <contour>
      <point x="77.0" y="340.0" type="line"/>
      <point x="167.0" y="340.0" type="line"/>
      <point x="276.75" y="590.8" type="line" smooth="yes"/>
      <point x="288.6" y="617.4"/>
      <point x="298.15" y="644.7"/>
      <point x="302.7" y="658.55" type="curve"/>
      <point x="306.4" y="644.7"/>
      <point x="315.1" y="617.4"/>
      <point x="326.1" y="590.8" type="curve" smooth="yes"/>
      <point x="432.85" y="340.0" type="line"/>
      <point x="523.0" y="340.0" type="line"/>
      <point x="347.65" y="730.0" type="line"/>
      <point x="254.35" y="730.0" type="line"/>
    </contour>
  </outline>
</glyph>
<glyph name="a" format="2">
  <advance width="600.0"/>
  <unicode hex="0061"/>
  <anchor x="305.0" y="0.0" name="bottom"/>
  <anchor x="461.25" y="0.0" name="ogonek"/>
  <anchor x="305.0" y="550.0" name="top"/>
  <outline>
    <contour>
      <point x="248.55" y="-10.0" type="curve" smooth="yes"/>
      <point x="351.25" y="-10.0"/>
      <point x="417.65" y="40.3"/>
      <point x="417.65" y="120.75" type="curve"/>
      <point x="401.0" y="102.0" type="line"/>
      <point x="417.35" y="102.0" type="line"/>
      <point x="417.35" y="0.0" type="line"/>
      <point x="513.9" y="0.0" type="line"/>
      <point x="513.9" y="376.8" type="line" smooth="yes"/>
      <point x="513.9" y="489.7"/>
      <point x="433.4" y="560.0"/>
      <point x="305.0" y="560.0" type="curve" smooth="yes"/>
      <point x="186.25" y="560.0"/>
      <point x="99.65" y="495.1"/>
      <point x="89.85" y="401.25" type="curve"/>
      <point x="187.35" y="401.25" type="line"/>
      <point x="193.3" y="439.8"/>
      <point x="234.95" y="474.7"/>
      <point x="301.55" y="474.7" type="curve" smooth="yes"/>
      <point x="371.0" y="474.7"/>
      <point x="414.9" y="437.8"/>
      <point x="414.9" y="374.25" type="curve" smooth="yes"/>
      <point x="414.9" y="321.5" type="line"/>
      <point x="254.65" y="321.5" type="line" smooth="yes"/>
      <point x="136.25" y="321.5"/>
      <point x="62.6" y="258.8"/>
      <point x="62.6" y="155.3" type="curve" smooth="yes"/>
      <point x="62.6" y="53.15"/>
      <point x="133.3" y="-10.0"/>
    </contour>
    <contour>
      <point x="275.65" y="66.7" type="curve" smooth="yes"/>
      <point x="203.95" y="66.7"/>
      <point x="161.6" y="102.2"/>
      <point x="161.6" y="161.65" type="curve" smooth="yes"/>
      <point x="161.6" y="216.7"/>
      <point x="197.85" y="251.2"/>
      <point x="256.8" y="251.2" type="curve" smooth="yes"/>
      <point x="414.9" y="251.2" type="line"/>
      <point x="414.9" y="176.2" type="line" smooth="yes"/>
      <point x="414.9" y="111.6"/>
      <point x="356.75" y="66.7"/>
    </contour>
  </outline>
</glyph>
<glyph name="b" format="2">
  <advance width="600.0"/>
  <unicode hex="0062"/>
  <anchor x="300.0" y="0.0" name="bottom"/>
  <anchor x="300.0" y="730.0" name="top"/>
  <outline>
    <contour>
      <point x="335.75" y="-10.0" type="curve" smooth="yes"/>
      <point x="445.9" y="-10.0"/>
      <point x="518.75" y="68.75"/>
      <point x="518.75" y="195.65" type="curve" smooth="yes"/>
      <point x="518.75" y="353.5" type="line" smooth="yes"/>
      <point x="518.75" y="481.1"/>
      <point x="446.75" y="560.0"/>
      <point x="335.75" y="560.0" type="curve" smooth="yes"/>
      <point x="245.6" y="560.0"/>
      <point x="185.6" y="506.7"/>
      <point x="185.6" y="421.9" type="curve"/>
      <point x="206.9" y="445.0" type="line"/>
      <point x="184.65" y="445.0" type="line"/>
      <point x="187.1" y="571.5" type="line"/>
      <point x="187.1" y="730.0" type="line"/>
      <point x="88.1" y="730.0" type="line"/>
      <point x="88.1" y="0.0" type="line"/>
      <point x="186.35" y="0.0" type="line"/>
      <point x="186.35" y="105.0" type="line"/>
      <point x="206.9" y="105.0" type="line"/>
      <point x="185.6" y="128.1" type="line"/>
      <point x="185.6" y="42.45"/>
      <point x="244.75" y="-10.0"/>
    </contour>
    <contour>
      <point x="302.15" y="75.8" type="curve" smooth="yes"/>
      <point x="231.0" y="75.8"/>
      <point x="187.1" y="122.25"/>
      <point x="187.1" y="201.5" type="curve" smooth="yes"/>
      <point x="187.1" y="348.5" type="line" smooth="yes"/>
      <point x="187.1" y="427.6"/>
      <point x="231.0" y="474.2"/>
      <point x="302.15" y="474.2" type="curve" smooth="yes"/>
      <point x="375.15" y="474.2"/>
      <point x="419.75" y="429.3"/>
      <point x="419.75" y="348.5" type="curve" smooth="yes"/>
      <point x="419.75" y="201.5" type="line" smooth="yes"/>
      <point x="419.75" y="120.55"/>
      <point x="375.15" y="75.8"/>
    </contour>
  </outline>
</glyph>
<glyph name="c" format="2">
  <advance width="600.0"/>
  <unicode hex="0063"/>
  <anchor x="303.85" y="0.0" name="bottom"/>
  <anchor x="303.85" y="550.0" name="top"/>
  <outline>
    <contour>
      <point x="303.85" y="-10.0" type="curve" smooth="yes"/>
      <point x="433.55" y="-10.0"/>
      <point x="518.05" y="63.75"/>
      <point x="522.2" y="182.25" type="curve"/>
      <point x="423.8" y="182.25" type="line"/>
      <point x="419.8" y="115.55"/>
      <point x="375.0" y="77.5"/>
      <point x="303.85" y="77.5" type="curve" smooth="yes"/>
      <point x="227.7" y="77.5"/>
      <point x="180.25" y="122.25"/>
      <point x="180.25" y="201.5" type="curve" smooth="yes"/>
      <point x="180.25" y="349.35" type="line" smooth="yes"/>
      <point x="180.25" y="427.75"/>
      <point x="227.7" y="472.5"/>
      <point x="303.85" y="472.5" type="curve" smooth="yes"/>
      <point x="374.85" y="472.5"/>
      <point x="419.8" y="434.3"/>
      <point x="423.8" y="367.75" type="curve"/>
      <point x="522.2" y="367.75" type="line"/>
      <point x="518.05" y="486.25"/>
      <point x="433.55" y="560.0"/>
      <point x="303.85" y="560.0" type="curve" smooth="yes"/>
      <point x="168.75" y="560.0"/>
      <point x="81.25" y="479.8"/>
      <point x="81.25" y="348.5" type="curve" smooth="yes"/>
      <point x="81.25" y="201.5" type="line" smooth="yes"/>
      <point x="81.25" y="70.2"/>
      <point x="168.75" y="-10.0"/>
    </contour>
  </outline>
</glyph>
<glyph name="d" format="2">
  <advance width="600.0"/>
  <unicode hex="0064"/>
  <anchor x="300.0" y="0.0" name="bottom"/>
  <anchor x="300.0" y="275.0" name="center"/>
  <anchor x="300.0" y="730.0" name="top"/>
  <anchor x="580.0" y="550.0" name="topright"/>
  <outline>
    <contour>
      <point x="263.5" y="-10.0" type="curve" smooth="yes"/>
      <point x="356.15" y="-10.0"/>
      <point x="415.45" y="45.45"/>
      <point x="415.45" y="135.6" type="curve"/>
      <point x="393.1" y="103.5" type="line"/>
      <point x="413.65" y="103.5" type="line"/>
      <point x="413.65" y="0.0" type="line"/>
      <point x="511.9" y="0.0" type="line"/>
      <point x="511.9" y="730.0" type="line"/>
      <point x="412.9" y="730.0" type="line"/>
      <point x="412.9" y="571.5" type="line"/>
      <point x="415.35" y="446.5" type="line"/>
      <point x="393.1" y="446.5" type="line"/>
      <point x="415.45" y="414.4" type="line"/>
      <point x="415.45" y="503.7"/>
      <point x="355.3" y="560.0"/>
      <point x="263.5" y="560.0" type="curve" smooth="yes"/>
      <point x="153.25" y="560.0"/>
      <point x="81.25" y="481.1"/>
      <point x="81.25" y="353.5" type="curve" smooth="yes"/>
      <point x="81.25" y="195.65" type="line" smooth="yes"/>
      <point x="81.25" y="68.9"/>
      <point x="154.1" y="-10.0"/>
    </contour>
    <contour>
      <point x="297.7" y="75.8" type="curve" smooth="yes"/>
      <point x="224.85" y="75.8"/>
      <point x="180.25" y="120.55"/>
      <point x="180.25" y="201.5" type="curve" smooth="yes"/>
      <point x="180.25" y="348.5" type="line" smooth="yes"/>
      <point x="180.25" y="429.45"/>
      <point x="224.85" y="474.2"/>
      <point x="297.7" y="474.2" type="curve" smooth="yes"/>
      <point x="369.15" y="474.2"/>
      <point x="412.9" y="427.45"/>
      <point x="412.9" y="347.75" type="curve" smooth="yes"/>
      <point x="412.9" y="202.25" type="line" smooth="yes"/>
      <point x="412.9" y="122.55"/>
      <point x="369.15" y="75.8"/>
    </contour>
  </outline>
</glyph>
<glyph name="e" format="2">
  <advance width="600.0"/>
  <unicode hex="0065"/>
  <anchor x="300.0" y="0.0" name="bottom"/>
  <anchor x="349.25" y="0.0" name="ogonek"/>
  <anchor x="300.0" y="550.0" name="top"/>
  <outline>
    <contour>
      <point x="300.15" y="-10.0" type="curve" smooth="yes"/>
      <point x="416.6" y="-10.0"/>
      <point x="502.5" y="48.9"/>
      <point x="516.3" y="141.5" type="curve"/>
      <point x="417.75" y="141.5" type="line"/>
      <point x="407.9" y="95.65"/>
      <point x="366.15" y="71.85"/>
      <point x="300.45" y="71.85" type="curve" smooth="yes"/>
      <point x="220.7" y="71.85"/>
      <point x="177.5" y="117.2"/>
      <point x="177.5" y="201.5" type="curve" smooth="yes"/>
      <point x="177.5" y="251.05" type="line"/>
      <point x="518.75" y="251.05" type="line"/>
      <point x="518.75" y="348.5" type="line" smooth="yes"/>
      <point x="518.75" y="476.25"/>
      <point x="432.55" y="560.0"/>
      <point x="300.15" y="560.0" type="curve" smooth="yes"/>
      <point x="167.6" y="560.0"/>
      <point x="81.25" y="476.25"/>
      <point x="81.25" y="348.5" type="curve" smooth="yes"/>
      <point x="81.25" y="201.5" type="line" smooth="yes"/>
      <point x="81.25" y="73.75"/>
      <point x="167.6" y="-10.0"/>
    </contour>
    <contour>
      <point x="422.5" y="313.6" type="line"/>
      <point x="429.95" y="321.9" type="line"/>
      <point x="177.5" y="321.6" type="line"/>
      <point x="177.5" y="348.5" type="line" smooth="yes"/>
      <point x="177.5" y="432.65"/>
      <point x="220.55" y="479.3"/>
      <point x="300.15" y="479.3" type="curve" smooth="yes"/>
      <point x="379.6" y="479.3"/>
      <point x="422.5" y="432.95"/>
      <point x="422.5" y="348.8" type="curve" smooth="yes"/>
    </contour>
  </outline>
</glyph>
<glyph name="f" format="2">
  <advance width="600.0"/>
  <unicode hex="0066"/>
  <anchor x="300.0" y="0.0" name="bottom"/>
  <anchor x="300.0" y="730.0" name="top"/>
  <outline>
    <contour>
      <point x="216.25" y="0.0" type="line"/>
      <point x="315.25" y="0.0" type="line"/>
      <point x="315.25" y="403.55" type="line"/>
      <point x="536.65" y="403.55" type="line"/>
      <point x="536.65" y="493.5" type="line"/>
      <point x="315.25" y="493.5" type="line"/>
      <point x="315.25" y="584.75" type="line" smooth="yes"/>
      <point x="315.25" y="621.1"/>
      <point x="337.5" y="640.8"/>
      <point x="376.4" y="640.8" type="curve" smooth="yes"/>
      <point x="536.65" y="640.8" type="line"/>
      <point x="536.65" y="730.0" type="line"/>
      <point x="375.65" y="730.0" type="line" smooth="yes"/>
      <point x="276.95" y="730.0"/>
      <point x="216.25" y="674.75"/>
      <point x="216.25" y="585.5" type="curve" smooth="yes"/>
      <point x="216.25" y="493.5" type="line"/>
      <point x="58.35" y="493.5" type="line"/>
      <point x="58.35" y="403.55" type="line"/>
      <point x="216.25" y="403.55" type="line"/>
    </contour>
  </outline>
</glyph>
<glyph name="g" format="2">
  <advance width="600.0"/>
  <unicode hex="0067"/>
  <anchor x="300.0" y="-270.0" name="bottom"/>
  <anchor x="297.0" y="550.0" name="top"/>
  <outline>
    <contour>
      <point x="158.6" y="-180.0" type="line"/>
      <point x="330.5" y="-180.0" type="line" smooth="yes"/>
      <point x="443.45" y="-180.0"/>
      <point x="511.05" y="-117.05"/>
      <point x="511.05" y="-14.9" type="curve" smooth="yes"/>
      <point x="511.05" y="550.0" type="line"/>
      <point x="412.9" y="550.0" type="line"/>
      <point x="413.65" y="445.0" type="line"/>
      <point x="393.95" y="445.0" type="line"/>
      <point x="413.65" y="427.0" type="line"/>
      <point x="413.65" y="509.25"/>
      <point x="356.1" y="560.0"/>
      <point x="266.8" y="560.0" type="curve" smooth="yes"/>
      <point x="154.1" y="560.0"/>
      <point x="83.8" y="480.25"/>
      <point x="83.8" y="354.35" type="curve" smooth="yes"/>
      <point x="83.8" y="240.75" type="line" smooth="yes"/>
      <point x="83.8" y="113.85"/>
      <point x="154.1" y="34.25"/>
      <point x="266.8" y="34.25" type="curve" smooth="yes"/>
      <point x="356.1" y="34.25"/>
      <point x="413.65" y="85.0"/>
      <point x="413.65" y="167.25" type="curve"/>
      <point x="393.95" y="149.25" type="line"/>
      <point x="414.5" y="149.25" type="line"/>
      <point x="412.5" y="48.5" type="line"/>
      <point x="412.5" y="-14.15" type="line" smooth="yes"/>
      <point x="412.5" y="-66.7"/>
      <point x="386.6" y="-92.3"/>
      <point x="330.6" y="-92.3" type="curve" smooth="yes"/>
      <point x="158.6" y="-92.3" type="line"/>
    </contour>
    <contour>
      <point x="297.85" y="120.05" type="curve" smooth="yes"/>
      <point x="224.85" y="120.05"/>
      <point x="182.8" y="164.8"/>
      <point x="182.8" y="245.75" type="curve" smooth="yes"/>
      <point x="182.8" y="348.5" type="line" smooth="yes"/>
      <point x="182.8" y="429.3"/>
      <point x="224.85" y="474.2"/>
      <point x="297.85" y="474.2" type="curve" smooth="yes"/>
      <point x="369.0" y="474.2"/>
      <point x="412.9" y="427.6"/>
      <point x="412.9" y="348.5" type="curve" smooth="yes"/>
      <point x="412.9" y="245.75" type="line" smooth="yes"/>
      <point x="412.9" y="166.5"/>
      <point x="369.0" y="120.05"/>
    </contour>
  </outline>
</glyph>
<glyph name="k" format="2">
  <advance width="600.0"/>
  <unicode hex="006B"/>
  <anchor x="300.0" y="0.0" name="bottom"/>
  <anchor x="300.0" y="730.0" name="top"/>
  <outline>
    <contour>
      <point x="91.1" y="0.0" type="line"/>
      <point x="190.1" y="0.0" type="line"/>
      <point x="190.1" y="240.65" type="line"/>
      <point x="292.3" y="240.65" type="line"/>
      <point x="445.7" y="0.0" type="line"/>
      <point x="560.15" y="0.0" type="line"/>
      <point x="376.95" y="286.95" type="line"/>
      <point x="557.15" y="550.0" type="line"/>
      <point x="444.85" y="550.0" type="line"/>
      <point x="291.6" y="325.85" type="line"/>
      <point x="190.1" y="325.85" type="line"/>
      <point x="190.1" y="730.0" type="line"/>
      <point x="91.1" y="730.0" type="line"/>
    </contour>
  </outline>
</glyph>
<glyph name="l" format="2">
  <advance width="600.0"/>
  <unicode hex="006C"/>
  <anchor x="320.0" y="0.0" name="bottom"/>
  <anchor x="300.0" y="365.0" name="center"/>
  <anchor x="253.0" y="730.0" name="top"/>
  <anchor x="580.0" y="730.0" name="topright"/>
  <outline>
    <contour>
      <point x="382.25" y="0.0" type="curve" smooth="yes"/>
      <point x="552.25" y="0.0" type="line"/>
      <point x="552.25" y="89.95" type="line"/>
      <point x="384.5" y="89.95" type="line" smooth="yes"/>
      <point x="342.55" y="89.95"/>
      <point x="316.0" y="117.65"/>
      <point x="316.0" y="161.75" type="curve" smooth="yes"/>
      <point x="316.0" y="730.0" type="line"/>
      <point x="29.25" y="730.0" type="line"/>
      <point x="29.25" y="640.05" type="line"/>
      <point x="217.0" y="640.05" type="line"/>
      <point x="217.0" y="161.0" type="line" smooth="yes"/>
      <point x="217.0" y="63.55"/>
      <point x="282.25" y="0.0"/>
    </contour>
  </outline>
</glyph>
<glyph name="m" format="2">
  <advance width="600.0"/>
  <unicode hex="006D"/>
  <anchor x="300.0" y="0.0" name="bottom"/>
  <anchor x="300.0" y="550.0" name="top"/>
  <outline>
    <contour>
      <point x="57.3" y="0.0" type="line"/>
      <point x="146.75" y="0.0" type="line"/>
      <point x="146.75" y="417.45" type="line" smooth="yes"/>
      <point x="146.75" y="460.35"/>
      <point x="166.7" y="485.0"/>
      <point x="202.75" y="485.0" type="curve" smooth="yes"/>
      <point x="239.65" y="485.0"/>
      <point x="261.3" y="460.35"/>
      <point x="261.3" y="416.6" type="curve" smooth="yes"/>
      <point x="261.3" y="0.0" type="line"/>
      <point x="338.85" y="0.0" type="line"/>
      <point x="338.85" y="417.45" type="line" smooth="yes"/>
      <point x="338.85" y="460.35"/>
      <point x="359.65" y="485.0"/>
      <point x="396.55" y="485.0" type="curve" smooth="yes"/>
      <point x="432.6" y="485.0"/>
      <point x="453.4" y="460.35"/>
      <point x="453.4" y="416.6" type="curve" smooth="yes"/>
      <point x="453.4" y="0.0" type="line"/>
      <point x="542.85" y="0.0" type="line"/>
      <point x="542.85" y="418.3" type="line" smooth="yes"/>
      <point x="542.85" y="502.0"/>
      <point x="496.7" y="560.0"/>
      <point x="430.85" y="560.0" type="curve" smooth="yes"/>
      <point x="374.0" y="560.0"/>
      <point x="334.85" y="518.7"/>
      <point x="334.85" y="459.4" type="curve"/>
      <point x="352.35" y="481.9" type="line"/>
      <point x="312.45" y="481.9" type="line"/>
      <point x="338.55" y="431.5" type="line"/>
      <point x="338.55" y="507.45"/>
      <point x="298.25" y="560.0"/>
      <point x="239.7" y="560.0" type="curve" smooth="yes"/>
      <point x="184.15" y="560.0"/>
      <point x="146.0" y="518.7"/>
      <point x="146.0" y="459.4" type="curve"/>
      <point x="161.05" y="481.9" type="line"/>
      <point x="142.15" y="481.9" type="line"/>
      <point x="142.15" y="550.0" type="line"/>
      <point x="57.3" y="550.0" type="line"/>
    </contour>
  </outline>
</glyph>
<glyph name="o" format="2">
  <advance width="600.0"/>
  <unicode hex="006F"/>
  <anchor x="300.0" y="0.0" name="bottom"/>
  <anchor x="300.0" y="275.0" name="center"/>
  <anchor x="330.2" y="550.0" name="horn"/>
  <anchor x="349.25" y="0.0" name="ogonek"/>
  <anchor x="300.0" y="550.0" name="top"/>
  <anchor x="580.0" y="550.0" name="topright"/>
  <outline>
    <contour>
      <point x="300.0" y="-8.3" type="curve" smooth="yes"/>
      <point x="435.1" y="-8.3"/>
      <point x="518.75" y="72.9"/>
      <point x="518.75" y="203.2" type="curve" smooth="yes"/>
      <point x="518.75" y="347.65" type="line" smooth="yes"/>
      <point x="518.75" y="477.1"/>
      <point x="435.1" y="558.3"/>
      <point x="300.0" y="558.3" type="curve" smooth="yes"/>
      <point x="164.9" y="558.3"/>
      <point x="81.25" y="477.1"/>
      <point x="81.25" y="346.8" type="curve" smooth="yes"/>
      <point x="81.25" y="203.2" type="line" smooth="yes"/>
      <point x="81.25" y="72.9"/>
      <point x="164.9" y="-8.3"/>
    </contour>
    <contour>
      <point x="300.0" y="79.2" type="curve" smooth="yes"/>
      <point x="225.0" y="79.2"/>
      <point x="180.25" y="122.25"/>
      <point x="180.25" y="203.2" type="curve" smooth="yes"/>
      <point x="180.25" y="346.8" type="line" smooth="yes"/>
      <point x="180.25" y="427.75"/>
      <point x="225.0" y="470.8"/>
      <point x="300.0" y="470.8" type="curve" smooth="yes"/>
      <point x="375.0" y="470.8"/>
      <point x="419.75" y="427.75"/>
      <point x="419.75" y="346.8" type="curve" smooth="yes"/>
      <point x="419.75" y="203.2" type="line" smooth="yes"/>
      <point x="419.75" y="122.25"/>
      <point x="375.0" y="79.2"/>
    </contour>
  </outline>
</glyph>
<glyph name="p" format="2">
  <advance width="600.0"/>
  <unicode hex="0070"/>
  <anchor x="300.0" y="0.0" name="bottom"/>
  <anchor x="300.0" y="550.0" name="top"/>
  <outline>
    <contour>
      <point x="88.95" y="-180.0" type="line"/>
      <point x="187.95" y="-180.0" type="line"/>
      <point x="187.95" y="-21.5" type="line"/>
      <point x="185.5" y="103.5" type="line"/>
      <point x="207.75" y="103.5" type="line"/>
      <point x="185.4" y="135.6" type="line"/>
      <point x="185.4" y="46.3"/>
      <point x="246.4" y="-10.0"/>
      <point x="338.2" y="-10.0" type="curve" smooth="yes"/>
      <point x="448.45" y="-10.0"/>
      <point x="519.6" y="68.9"/>
      <point x="519.6" y="196.5" type="curve" smooth="yes"/>
      <point x="519.6" y="354.35" type="line" smooth="yes"/>
      <point x="519.6" y="481.1"/>
      <point x="447.6" y="560.0"/>
      <point x="338.2" y="560.0" type="curve" smooth="yes"/>
      <point x="245.55" y="560.0"/>
      <point x="185.4" y="504.55"/>
      <point x="185.4" y="414.4" type="curve"/>
      <point x="207.75" y="446.5" type="line"/>
      <point x="187.2" y="446.5" type="line"/>
      <point x="187.2" y="550.0" type="line"/>
      <point x="88.95" y="550.0" type="line"/>
    </contour>
    <contour>
      <point x="304.0" y="75.8" type="curve" smooth="yes"/>
      <point x="232.55" y="75.8"/>
      <point x="187.95" y="122.55"/>
      <point x="187.95" y="202.25" type="curve" smooth="yes"/>
      <point x="187.95" y="347.75" type="line" smooth="yes"/>
      <point x="187.95" y="427.45"/>
      <point x="232.55" y="474.2"/>
      <point x="304.0" y="474.2" type="curve" smooth="yes"/>
      <point x="376.85" y="474.2"/>
      <point x="420.6" y="429.45"/>
      <point x="420.6" y="348.5" type="curve" smooth="yes"/>
      <point x="420.6" y="201.5" type="line" smooth="yes"/>
      <point x="420.6" y="120.55"/>
      <point x="376.85" y="75.8"/>
    </contour>
  </outline>
</glyph>
<glyph name="q" format="2">
  <advance width="600.0"/>
  <unicode hex="0071"/>
  <anchor x="300.0" y="0.0" name="bottom"/>
  <anchor x="300.0" y="550.0" name="top"/>
  <outline>
    <contour>
      <point x="412.9" y="-180.0" type="line"/>
      <point x="511.9" y="-180.0" type="line"/>
      <point x="511.9" y="550.0" type="line"/>
      <point x="413.65" y="550.0" type="line"/>
      <point x="413.65" y="446.5" type="line"/>
      <point x="393.1" y="446.5" type="line"/>
      <point x="415.45" y="414.4" type="line"/>
      <point x="415.45" y="504.55"/>
      <point x="356.15" y="560.0"/>
      <point x="263.5" y="560.0" type="curve" smooth="yes"/>
      <point x="154.1" y="560.0"/>
      <point x="83.8" y="481.1"/>
      <point x="83.8" y="354.35" type="curve" smooth="yes"/>
      <point x="83.8" y="196.5" type="line" smooth="yes"/>
      <point x="83.8" y="68.9"/>
      <point x="153.25" y="-10.0"/>
      <point x="263.5" y="-10.0" type="curve" smooth="yes"/>
      <point x="355.3" y="-10.0"/>
      <point x="415.45" y="46.3"/>
      <point x="415.45" y="135.6" type="curve"/>
      <point x="393.1" y="103.5" type="line"/>
      <point x="415.35" y="103.5" type="line"/>
      <point x="412.9" y="-21.5" type="line"/>
    </contour>
    <contour>
      <point x="297.7" y="75.8" type="curve" smooth="yes"/>
      <point x="224.85" y="75.8"/>
      <point x="182.8" y="120.55"/>
      <point x="182.8" y="201.5" type="curve" smooth="yes"/>
      <point x="182.8" y="348.5" type="line" smooth="yes"/>
      <point x="182.8" y="429.45"/>
      <point x="224.85" y="474.2"/>
      <point x="297.7" y="474.2" type="curve" smooth="yes"/>
      <point x="369.15" y="474.2"/>
      <point x="412.9" y="427.45"/>
      <point x="412.9" y="347.75" type="curve" smooth="yes"/>
      <point x="412.9" y="202.25" type="line" smooth="yes"/>
      <point x="412.9" y="122.55"/>
      <point x="369.15" y="75.8"/>
    </contour>
  </outline>
</glyph>
<glyph name="r" format="2">
  <advance width="600.0"/>
  <unicode hex="0072"/>
  <anchor x="145.0" y="0.0" name="bottom"/>
  <anchor x="320.0" y="550.0" name="top"/>
  <outline>
    <contour>
      <point x="104.95" y="0.0" type="line"/>
      <point x="203.95" y="0.0" type="line"/>
      <point x="203.95" y="346.7" type="line" smooth="yes"/>
      <point x="203.95" y="430.7"/>
      <point x="244.3" y="474.2"/>
      <point x="319.45" y="474.2" type="curve" smooth="yes"/>
      <point x="396.85" y="474.2"/>
      <point x="438.9" y="428.45"/>
      <point x="438.9" y="348.5" type="curve" smooth="yes"/>
      <point x="438.9" y="317.0" type="line"/>
      <point x="539.4" y="317.0" type="line"/>
      <point x="539.4" y="356.8" type="line" smooth="yes"/>
      <point x="539.4" y="481.55"/>
      <point x="465.4" y="560.0"/>
      <point x="351.7" y="560.0" type="curve" smooth="yes"/>
      <point x="259.1" y="560.0"/>
      <point x="203.2" y="508.8"/>
      <point x="203.2" y="421.9" type="curve"/>
      <point x="225.95" y="445.0" type="line"/>
      <point x="203.2" y="445.0" type="line"/>
      <point x="203.2" y="550.0" type="line"/>
      <point x="104.95" y="550.0" type="line"/>
    </contour>
  </outline>
</glyph>
<glyph name="s" format="2">
  <advance width="600.0"/>
  <unicode hex="0073"/>
  <anchor x="300.0" y="0.0" name="bottom"/>
  <anchor x="300.0" y="550.0" name="top"/>
  <outline>
    <contour>
      <point x="282.1" y="-8.3" type="curve" smooth="yes"/>
      <point x="324.4" y="-8.3" type="line" smooth="yes"/>
      <point x="457.4" y="-8.3"/>
      <point x="524.5" y="52.85"/>
      <point x="524.5" y="155.75" type="curve" smooth="yes"/>
      <point x="524.5" y="252.2"/>
      <point x="470.4" y="300.85"/>
      <point x="351.05" y="319.4" type="curve" smooth="yes"/>
      <point x="276.0" y="331.25" type="line" smooth="yes"/>
      <point x="221.95" y="339.8"/>
      <point x="194.0" y="362.05"/>
      <point x="194.0" y="402.25" type="curve" smooth="yes"/>
      <point x="194.0" y="447.7"/>
      <point x="227.35" y="473.2"/>
      <point x="287.95" y="473.2" type="curve" smooth="yes"/>
      <point x="325.95" y="473.2" type="line" smooth="yes"/>
      <point x="382.3" y="473.2"/>
      <point x="417.35" y="452.1"/>
      <point x="417.35" y="417.55" type="curve"/>
      <point x="518.05" y="417.55" type="line"/>
      <point x="518.05" y="502.8"/>
      <point x="442.95" y="558.3"/>
      <point x="327.65" y="558.3" type="curve" smooth="yes"/>
      <point x="289.65" y="558.3" type="line" smooth="yes"/>
      <point x="165.5" y="558.3"/>
      <point x="97.45" y="503.15"/>
      <point x="97.45" y="402.25" type="curve" smooth="yes"/>
      <point x="97.45" y="312.05"/>
      <point x="150.1" y="260.85"/>
      <point x="260.75" y="243.3" type="curve" smooth="yes"/>
      <point x="335.5" y="231.6" type="line" smooth="yes"/>
      <point x="395.0" y="222.05"/>
      <point x="427.95" y="196.95"/>
      <point x="427.95" y="152.05" type="curve" smooth="yes"/>
      <point x="427.95" y="106.0"/>
      <point x="394.7" y="76.8"/>
      <point x="326.1" y="76.8" type="curve" smooth="yes"/>
      <point x="283.8" y="76.8" type="line" smooth="yes"/>
      <point x="226.0" y="76.8"/>
      <point x="184.7" y="100.05"/>
      <point x="184.7" y="141.3" type="curve"/>
      <point x="84.0" y="141.3" type="line"/>
      <point x="84.0" y="48.65"/>
      <point x="165.65" y="-8.3"/>
    </contour>
  </outline>
</glyph>
<glyph name="t" format="2">
  <advance width="600.0"/>
  <unicode hex="0074"/>
  <anchor x="360.0" y="0.0" name="bottom"/>
  <anchor x="300.0" y="275.0" name="center"/>
  <anchor x="300.0" y="705.0" name="top"/>
  <anchor x="580.0" y="550.0" name="topright"/>
  <outline>
    <contour>
      <point x="360.0" y="0.0" type="curve" smooth="yes"/>
      <point x="512.25" y="0.0" type="line"/>
      <point x="512.25" y="89.95" type="line"/>
      <point x="362.25" y="89.95" type="line" smooth="yes"/>
      <point x="327.3" y="89.95"/>
      <point x="304.5" y="114.35"/>
      <point x="304.5" y="151.0" type="curve" smooth="yes"/>
      <point x="304.5" y="460.05" type="line"/>
      <point x="522.25" y="460.05" type="line"/>
      <point x="522.25" y="550.0" type="line"/>
      <point x="304.5" y="550.0" type="line"/>
      <point x="304.5" y="705.0" type="line"/>
      <point x="205.5" y="705.0" type="line"/>
      <point x="205.5" y="550.0" type="line"/>
      <point x="52.0" y="550.0" type="line"/>
      <point x="52.0" y="460.05" type="line"/>
      <point x="205.5" y="460.05" type="line"/>
      <point x="205.5" y="150.25" type="line" smooth="yes"/>
      <point x="205.5" y="58.65"/>
      <point x="265.85" y="0.0"/>
    </contour>
  </outline>
</glyph>
<glyph name="u" format="2">
  <advance width="600.0"/>
  <unicode hex="0075"/>
  <anchor x="300.0" y="0.0" name="bottom"/>
  <anchor x="418.5" y="550.0" name="horn"/>
  <anchor x="349.25" y="0.0" name="ogonek"/>
  <anchor x="300.0" y="550.0" name="top"/>
  <anchor x="580.0" y="550.0" name="topright"/>
  <outline>
    <contour>
      <point x="299.15" y="-10.0" type="curve" smooth="yes"/>
      <point x="429.0" y="-10.0"/>
      <point x="513.9" y="71.45"/>
      <point x="513.9" y="202.1" type="curve" smooth="yes"/>
      <point x="513.9" y="550.0" type="line"/>
      <point x="414.9" y="550.0" type="line"/>
      <point x="414.9" y="202.25" type="line" smooth="yes"/>
      <point x="414.9" y="122.4"/>
      <point x="371.15" y="76.65"/>
      <point x="299.15" y="76.65" type="curve" smooth="yes"/>
      <point x="227.85" y="76.65"/>
      <point x="185.1" y="122.4"/>
      <point x="185.1" y="202.25" type="curve" smooth="yes"/>
      <point x="185.1" y="550.0" type="line"/>
      <point x="86.1" y="550.0" type="line"/>
      <point x="86.1" y="202.1" type="line" smooth="yes"/>
      <point x="86.1" y="71.6"/>
      <point x="169.0" y="-10.0"/>
    </contour>
  </outline>
</glyph>
<glyph name="v" format="2">
  <advance width="600.0"/>
  <unicode hex="0076"/>
  <anchor x="300.0" y="0.0" name="bottom"/>
  <anchor x="300.0" y="550.0" name="top"/>
  <outline>
    <contour>
      <point x="235.9" y="0.0" type="line"/>
      <point x="364.4" y="0.0" type="line"/>
      <point x="554.5" y="550.0" type="line"/>
      <point x="451.65" y="550.0" type="line"/>
      <point x="331.55" y="189.0" type="line" smooth="yes"/>
      <point x="317.15" y="146.2"/>
      <point x="308.0" y="100.45"/>
      <point x="302.0" y="77.7" type="curve"/>
      <point x="296.0" y="100.45"/>
      <point x="286.15" y="146.2"/>
      <point x="271.6" y="189.15" type="curve" smooth="yes"/>
      <point x="147.8" y="550.0" type="line"/>
      <point x="45.5" y="550.0" type="line"/>
    </contour>
  </outline>
</glyph>
<glyph name="w" format="2">
  <advance width="600.0"/>
  <unicode hex="0077"/>
  <anchor x="300.0" y="0.0" name="bottom"/>
  <anchor x="300.0" y="550.0" name="top"/>
  <outline>
    <contour>
      <point x="118.05" y="0.0" type="line"/>
      <point x="224.85" y="0.0" type="line"/>
      <point x="283.85" y="369.5" type="line" smooth="yes"/>
      <point x="289.7" y="406.5"/>
      <point x="294.85" y="450.35"/>
      <point x="297.15" y="474.3" type="curve"/>
      <point x="301.3" y="474.3" type="line"/>
      <point x="303.45" y="450.35"/>
      <point x="309.6" y="406.5"/>
      <point x="315.45" y="369.5" type="curve" smooth="yes"/>
      <point x="371.75" y="0.0" type="line"/>
      <point x="478.4" y="0.0" type="line"/>
      <point x="568.75" y="550.0" type="line"/>
      <point x="489.05" y="550.0" type="line"/>
      <point x="434.3" y="173.5" type="line" smooth="yes"/>
      <point x="430.0" y="141.95"/>
      <point x="425.3" y="99.5"/>
      <point x="422.3" y="75.25" type="curve"/>
      <point x="418.0" y="75.25" type="line"/>
      <point x="415.7" y="100.2"/>
      <point x="410.7" y="141.25"/>
      <point x="405.4" y="173.5" type="curve" smooth="yes"/>
      <point x="346.95" y="550.0" type="line"/>
      <point x="253.35" y="550.0" type="line"/>
      <point x="194.6" y="173.5" type="line" smooth="yes"/>
      <point x="189.3" y="141.8"/>
      <point x="184.3" y="99.65"/>
      <point x="182.0" y="75.4" type="curve"/>
      <point x="177.7" y="75.4" type="line"/>
      <point x="175.55" y="99.5"/>
      <point x="171.85" y="142.25"/>
      <point x="167.55" y="173.5" type="curve" smooth="yes"/>
      <point x="114.8" y="550.0" type="line"/>
      <point x="31.25" y="550.0" type="line"/>
    </contour>
  </outline>
</glyph>
<glyph name="x" format="2">
  <advance width="600.0"/>
  <unicode hex="0078"/>
  <anchor x="300.0" y="0.0" name="bottom"/>
  <anchor x="300.0" y="550.0" name="top"/>
  <outline>
    <contour>
      <point x="46.4" y="0.0" type="line"/>
      <point x="160.7" y="0.0" type="line"/>
      <point x="274.0" y="172.5" type="line" smooth="yes"/>
      <point x="284.15" y="187.95"/>
      <point x="295.0" y="210.25"/>
      <point x="300.85" y="222.4" type="curve"/>
      <point x="306.7" y="210.25"/>
      <point x="316.0" y="187.95"/>
      <point x="326.15" y="172.5" type="curve" smooth="yes"/>
      <point x="438.45" y="0.0" type="line"/>
      <point x="553.6" y="0.0" type="line"/>
      <point x="360.35" y="282.45" type="line"/>
      <point x="542.3" y="550.0" type="line"/>
      <point x="428.0" y="550.0" type="line"/>
      <point x="324.3" y="389.0" type="line" smooth="yes"/>
      <point x="314.3" y="373.55"/>
      <point x="305.0" y="353.8"/>
      <point x="300.85" y="342.5" type="curve"/>
      <point x="295.85" y="353.8"/>
      <point x="285.85" y="373.55"/>
      <point x="276.55" y="389.0" type="curve" smooth="yes"/>
      <point x="173.7" y="550.0" type="line"/>
      <point x="58.55" y="550.0" type="line"/>
      <point x="240.65" y="283.3" type="line"/>
    </contour>
  </outline>
</glyph>
<glyph name="y" format="2">
  <advance width="600.0"/>
  <unicode hex="0079"/>
  <anchor x="300.0" y="0.0" name="bottom"/>
  <anchor x="300.0" y="550.0" name="top"/>
  <outline>
    <contour>
      <point x="175.7" y="-180.0" type="line"/>
      <point x="279.15" y="-180.0" type="line"/>
      <point x="554.65" y="550.0" type="line"/>
      <point x="451.35" y="550.0" type="line"/>
      <point x="332.05" y="225.0" type="line" smooth="yes"/>
      <point x="322.45" y="200.05"/>
      <point x="311.15" y="160.45"/>
      <point x="305.85" y="137.8" type="curve"/>
      <point x="300.55" y="160.45"/>
      <point x="290.1" y="200.05"/>
      <point x="280.5" y="225.0" type="curve" smooth="yes"/>
      <point x="153.1" y="550.0" type="line"/>
      <point x="45.35" y="550.0" type="line"/>
      <point x="255.8" y="32.95" type="line"/>
    </contour>
  </outline>
</glyph>
<glyph name="z" format="2">
  <advance width="600.0"/>
  <unicode hex="007A"/>
  <anchor x="300.0" y="0.0" name="bottom"/>
  <anchor x="300.0" y="275.0" name="center"/>
  <anchor x="300.0" y="550.0" name="top"/>
  <outline>
    <contour>
      <point x="87.0" y="0.0" type="line"/>
      <point x="513.0" y="0.0" type="line"/>
      <point x="513.0" y="89.2" type="line"/>
      <point x="194.3" y="89.2" type="line"/>
      <point x="502.0" y="454.0" type="line"/>
      <point x="502.0" y="550.0" type="line"/>
      <point x="95.3" y="550.0" type="line"/>
      <point x="95.3" y="460.8" type="line"/>
      <point x="389.6" y="460.8" type="line"/>
      <point x="87.0" y="96.0" type="line"/>
    </contour>
  </outline>
</glyph>
<glyph name="braceleft" format="2">
  <advance width="600.0"/>
  <unicode hex="007B"/>
  <outline>
    <contour>
      <point x="455.5" y="-110.15" type="curve" smooth="yes"/>
      <point x="506.5" y="-110.15" type="line"/>
      <point x="506.5" y="-21.15" type="line"/>
      <point x="460.0" y="-21.15" type="line" smooth="yes"/>
      <point x="400.45" y="-21.15"/>
      <point x="365.4" y="7.1"/>
      <point x="370.25" y="60.95" type="curve" smooth="yes"/>
      <point x="385.25" y="222.85" type="line" smooth="yes"/>
      <point x="393.1" y="307.05"/>
      <point x="337.75" y="366.55"/>
      <point x="251.5" y="366.55" type="curve"/>
      <point x="251.5" y="361.25" type="line"/>
      <point x="338.6" y="361.25"/>
      <point x="393.1" y="412.1"/>
      <point x="385.25" y="496.85" type="curve" smooth="yes"/>
      <point x="370.25" y="658.9" type="line" smooth="yes"/>
      <point x="365.55" y="712.75"/>
      <point x="400.6" y="741.0"/>
      <point x="460.0" y="741.0" type="curve" smooth="yes"/>
      <point x="506.5" y="741.0" type="line"/>
      <point x="506.5" y="830.0" type="line"/>
      <point x="455.5" y="830.0" type="line" smooth="yes"/>
      <point x="337.5" y="830.0"/>
      <point x="261.1" y="767.2"/>
      <point x="271.25" y="661.9" type="curve" smooth="yes"/>
      <point x="286.25" y="499.85" type="line" smooth="yes"/>
      <point x="291.95" y="433.2"/>
      <point x="272.2" y="404.35"/>
      <point x="192.25" y="404.35" type="curve" smooth="yes"/>
      <point x="73.5" y="404.35" type="line"/>
      <point x="73.5" y="315.35" type="line"/>
      <point x="192.25" y="315.35" type="line" smooth="yes"/>
      <point x="271.35" y="315.35"/>
      <point x="291.95" y="286.5"/>
      <point x="286.25" y="219.85" type="curve" smooth="yes"/>
      <point x="271.25" y="58.7" type="line" smooth="yes"/>
      <point x="260.95" y="-47.05"/>
      <point x="337.35" y="-110.15"/>
    </contour>
  </outline>
</glyph>
<glyph name="braceright" format="2">
  <advance width="600.0"/>
  <unicode hex="007D"/>
  <outline>
    <contour>
      <point x="93.5" y="-110.15" type="line"/>
      <point x="144.5" y="-110.15" type="line" smooth="yes"/>
      <point x="262.5" y="-110.15"/>
      <point x="339.05" y="-47.05"/>
      <point x="328.75" y="58.7" type="curve" smooth="yes"/>
      <point x="313.75" y="219.85" type="line" smooth="yes"/>
      <point x="308.05" y="286.5"/>
      <point x="328.65" y="315.35"/>
      <point x="407.75" y="315.35" type="curve" smooth="yes"/>
      <point x="526.5" y="315.35" type="line"/>
      <point x="526.5" y="404.35" type="line"/>
      <point x="407.75" y="404.35" type="line" smooth="yes"/>
      <point x="327.8" y="404.35"/>
      <point x="308.05" y="433.2"/>
      <point x="313.75" y="499.85" type="curve" smooth="yes"/>
      <point x="328.75" y="661.9" type="line" smooth="yes"/>
      <point x="338.9" y="767.2"/>
      <point x="262.35" y="830.0"/>
      <point x="144.5" y="830.0" type="curve" smooth="yes"/>
      <point x="93.5" y="830.0" type="line"/>
      <point x="93.5" y="741.0" type="line"/>
      <point x="140.0" y="741.0" type="line" smooth="yes"/>
      <point x="199.4" y="741.0"/>
      <point x="234.45" y="712.75"/>
      <point x="229.75" y="658.9" type="curve" smooth="yes"/>
      <point x="214.75" y="496.85" type="line" smooth="yes"/>
      <point x="206.9" y="412.1"/>
      <point x="261.4" y="362.1"/>
      <point x="348.5" y="362.1" type="curve"/>
      <point x="348.5" y="367.4" type="line"/>
      <point x="262.25" y="367.4"/>
      <point x="206.9" y="307.05"/>
      <point x="214.75" y="222.85" type="curve" smooth="yes"/>
      <point x="229.75" y="60.95" type="line" smooth="yes"/>
      <point x="234.6" y="7.1"/>
      <point x="199.55" y="-21.15"/>
      <point x="140.0" y="-21.15" type="curve" smooth="yes"/>
      <point x="93.5" y="-21.15" type="line"/>
    </contour>
  </outline>
</glyph>
<glyph name="asciitilde" format="2">
  <advance width="600.0"/>
  <unicode hex="007E"/>
  <outline>
    <contour>
      <point x="65.5" y="255.0" type="line"/>
      <point x="155.75" y="255.0" type="line"/>
      <point x="155.75" y="325.75" type="line" smooth="yes"/>
      <point x="155.75" y="359.65"/>
      <point x="171.85" y="377.75"/>
      <point x="200.5" y="377.75" type="curve" smooth="yes"/>
      <point x="268.5" y="377.75"/>
      <point x="272.75" y="246.25"/>
      <point x="400.75" y="246.25" type="curve" smooth="yes"/>
      <point x="481.3" y="246.25"/>
      <point x="534.5" y="299.55"/>
      <point x="534.5" y="377.75" type="curve" smooth="yes"/>
      <point x="534.5" y="450.0" type="line"/>
      <point x="444.25" y="450.0" type="line"/>
      <point x="444.25" y="379.25" type="line" smooth="yes"/>
      <point x="444.25" y="345.35"/>
      <point x="428.15" y="327.25"/>
      <point x="399.5" y="327.25" type="curve" smooth="yes"/>
      <point x="331.5" y="327.25"/>
      <point x="327.25" y="458.75"/>
      <point x="199.25" y="458.75" type="curve" smooth="yes"/>
      <point x="118.85" y="458.75"/>
      <point x="65.5" y="406.3"/>
      <point x="65.5" y="327.25" type="curve" smooth="yes"/>
    </contour>
  </outline>
</glyph>
<glyph name="exclamdown" format="2">
  <advance width="600.0"/>
  <unicode hex="00A1"/>
  <outline>
    <contour>
      <point x="243.1" y="-180.0" type="line"/>
      <point x="356.9" y="-180.0" type="line"/>
      <point x="356.9" y="-49.75" type="line"/>
      <point x="335.6" y="331.35" type="line"/>
      <point x="264.4" y="331.35" type="line"/>
      <point x="243.1" y="-49.75" type="line"/>
    </contour>
    <contour>
      <point x="289.25" y="432.85" type="curve" smooth="yes"/>
      <point x="310.75" y="432.85" type="line" smooth="yes"/>
      <point x="350.65" y="432.85"/>
      <point x="377.25" y="458.3"/>
      <point x="377.25" y="496.05" type="curve" smooth="yes"/>
      <point x="377.25" y="532.95"/>
      <point x="350.65" y="555.85"/>
      <point x="310.75" y="555.85" type="curve" smooth="yes"/>
      <point x="289.4" y="555.85" type="line" smooth="yes"/>
      <point x="249.35" y="555.85"/>
      <point x="222.75" y="532.25"/>
      <point x="222.75" y="495.35" type="curve" smooth="yes"/>
      <point x="222.75" y="458.3"/>
      <point x="249.35" y="432.85"/>
    </contour>
  </outline>
</glyph>
<glyph name="cent" format="2">
  <advance width="600.0"/>
  <unicode hex="00A2"/>
  <anchor x="303.85" y="0.0" name="bottom"/>
  <anchor x="303.85" y="550.0" name="top"/>
  <outline>
    <contour>
      <point x="273.3" y="-140.0" type="line"/>
      <point x="334.05" y="-140.0" type="line"/>
      <point x="334.05" y="690.0" type="line"/>
      <point x="273.3" y="690.0" type="line"/>
    </contour>
    <component base="c"/>
  </outline>
</glyph>
<glyph name="sterling" format="2">
  <advance width="600.0"/>
  <unicode hex="00A3"/>
  <outline>
    <contour>
      <point x="75.0" y="0.0" type="line"/>
      <point x="535.0" y="0.0" type="line"/>
      <point x="535.0" y="89.0" type="line"/>
      <point x="165.0" y="89.0" type="line"/>
      <point x="214.7" y="114.3"/>
      <point x="281.0" y="179.0"/>
      <point x="281.0" y="266.0" type="curve" smooth="yes"/>
      <point x="281.0" y="425.0"/>
      <point x="180.9" y="446.45"/>
      <point x="180.9" y="547.3" type="curve" smooth="yes"/>
      <point x="180.9" y="613.25"/>
      <point x="223.55" y="652.5"/>
      <point x="298.55" y="652.5" type="curve" smooth="yes"/>
      <point x="369.0" y="652.5"/>
      <point x="415.2" y="610.55"/>
      <point x="415.95" y="547.0" type="curve"/>
      <point x="519.2" y="547.0" type="line"/>
      <point x="516.15" y="666.75"/>
      <point x="433.5" y="740.0"/>
      <point x="300.0" y="740.0" type="curve" smooth="yes"/>
      <point x="166.0" y="740.0"/>
      <point x="81.05" y="665.6"/>
      <point x="81.05" y="552.75" type="curve" smooth="yes"/>
      <point x="81.05" y="426.6"/>
      <point x="184.0" y="399.5"/>
      <point x="184.0" y="257.0" type="curve" smooth="yes"/>
      <point x="184.0" y="207.0"/>
      <point x="122.0" y="143.45"/>
      <point x="75.0" y="109.0" type="curve"/>
    </contour>
    <contour>
      <point x="73.5" y="302.0" type="line"/>
      <point x="435.0" y="302.0" type="line"/>
      <point x="435.0" y="388.0" type="line"/>
      <point x="73.5" y="388.0" type="line"/>
    </contour>
  </outline>
</glyph>
<glyph name="currency" format="2">
  <advance width="600.0"/>
  <unicode hex="00A4"/>
  <outline>
    <contour>
      <point x="494.7" y="112.55" type="line"/>
      <point x="558.9" y="176.6" type="line"/>
      <point x="473.6" y="261.9" type="line"/>
      <point x="493.3" y="293.75"/>
      <point x="505.0" y="331.45"/>
      <point x="505.0" y="373.0" type="curve" smooth="yes"/>
      <point x="505.0" y="413.55"/>
      <point x="494.15" y="451.25"/>
      <point x="474.6" y="482.95" type="curve"/>
      <point x="557.75" y="566.25" type="line"/>
      <point x="495.4" y="628.6" type="line"/>
      <point x="411.4" y="544.45" type="line"/>
      <point x="380.4" y="564.15"/>
      <point x="342.7" y="575.0"/>
      <point x="301.0" y="575.0" type="curve" smooth="yes"/>
      <point x="261.15" y="575.0"/>
      <point x="225.15" y="565.0"/>
      <point x="194.3" y="547.15" type="curve"/>
      <point x="106.3" y="635.15" type="line"/>
      <point x="42.25" y="570.95" type="line"/>
      <point x="128.25" y="484.8" type="line"/>
      <point x="106.7" y="453.1"/>
      <point x="95.0" y="415.4"/>
      <point x="95.0" y="373.0" type="curve" smooth="yes"/>
      <point x="95.0" y="331.3"/>
      <point x="106.85" y="292.6"/>
      <point x="127.55" y="261.6" type="curve"/>
      <point x="44.25" y="177.45" type="line"/>
      <point x="107.45" y="114.25" type="line"/>
      <point x="192.75" y="199.55" type="line"/>
      <point x="223.6" y="180.85"/>
      <point x="260.45" y="171.0"/>
      <point x="301.0" y="171.0" type="curve" smooth="yes"/>
      <point x="340.7" y="171.0"/>
      <point x="377.55" y="180.85"/>
      <point x="407.55" y="199.55" type="curve"/>
    </contour>
    <contour>
      <point x="301.0" y="243.9" type="curve" smooth="yes"/>
      <point x="228.25" y="243.9"/>
      <point x="172.9" y="299.25"/>
      <point x="172.9" y="373.0" type="curve" smooth="yes"/>
      <point x="172.9" y="446.75"/>
      <point x="228.25" y="502.1"/>
      <point x="301.0" y="502.1" type="curve" smooth="yes"/>
      <point x="372.75" y="502.1"/>
      <point x="427.1" y="446.75"/>
      <point x="427.1" y="373.0" type="curve" smooth="yes"/>
      <point x="427.1" y="299.25"/>
      <point x="372.75" y="243.9"/>
    </contour>
  </outline>
</glyph>
<glyph name="section" format="2">
  <advance width="600.0"/>
  <unicode hex="00A7"/>
  <outline>
    <contour>
      <point x="284.85" y="-154.15" type="curve" smooth="yes"/>
      <point x="314.85" y="-154.15" type="line" smooth="yes"/>
      <point x="449.15" y="-154.15"/>
      <point x="527.8" y="-88.85"/>
      <point x="527.8" y="15.6" type="curve" smooth="yes"/>
      <point x="527.8" y="117.15"/>
      <point x="450.2" y="160.9"/>
      <point x="391.75" y="164.8" type="curve"/>
      <point x="391.75" y="171.8" type="line"/>
      <point x="473.4" y="172.85"/>
      <point x="526.1" y="231.9"/>
      <point x="526.1" y="308.9" type="curve" smooth="yes"/>
      <point x="526.1" y="389.9"/>
      <point x="466.9" y="451.5"/>
      <point x="368.45" y="472.25" type="curve" smooth="yes"/>
      <point x="276.5" y="491.7" type="line" smooth="yes"/>
      <point x="217.6" y="504.25"/>
      <point x="183.85" y="535.6"/>
      <point x="183.85" y="576.8" type="curve" smooth="yes"/>
      <point x="183.85" y="624.55"/>
      <point x="222.05" y="655.2"/>
      <point x="288.25" y="655.2" type="curve" smooth="yes"/>
      <point x="318.25" y="655.2" type="line" smooth="yes"/>
      <point x="369.5" y="655.2"/>
      <point x="408.85" y="630.25"/>
      <point x="418.1" y="593.95" type="curve"/>
      <point x="521.35" y="593.95" type="line"/>
      <point x="507.65" y="682.45"/>
      <point x="427.9" y="740.0"/>
      <point x="318.25" y="740.0" type="curve" smooth="yes"/>
      <point x="288.25" y="740.0" type="line" smooth="yes"/>
      <point x="160.4" y="740.0"/>
      <point x="84.75" y="676.4"/>
      <point x="84.75" y="577.05" type="curve" smooth="yes"/>
      <point x="84.75" y="473.3"/>
      <point x="157.1" y="433.2"/>
      <point x="212.15" y="432.1" type="curve"/>
      <point x="212.15" y="425.1" type="line"/>
      <point x="135.6" y="417.95"/>
      <point x="81.35" y="359.2"/>
      <point x="81.35" y="282.9" type="curve" smooth="yes"/>
      <point x="81.35" y="204.6"/>
      <point x="143.4" y="140.5"/>
      <point x="238.7" y="121.6" type="curve" smooth="yes"/>
      <point x="330.85" y="102.45" type="line" smooth="yes"/>
      <point x="396.2" y="88.75"/>
      <point x="428.7" y="59.25"/>
      <point x="428.7" y="13.65" type="curve" smooth="yes"/>
      <point x="428.7" y="-36.4"/>
      <point x="388.45" y="-69.35"/>
      <point x="314.85" y="-69.35" type="curve" smooth="yes"/>
      <point x="284.85" y="-69.35" type="line" smooth="yes"/>
      <point x="230.5" y="-69.35"/>
      <point x="186.85" y="-41.15"/>
      <point x="175.45" y="0.3" type="curve"/>
      <point x="72.2" y="0.3" type="line"/>
      <point x="86.9" y="-92.9"/>
      <point x="171.2" y="-154.15"/>
    </contour>
    <contour>
      <point x="327.6" y="188.3" type="curve" smooth="yes"/>
      <point x="254.75" y="202.7" type="line" smooth="yes"/>
      <point x="210.25" y="211.4"/>
      <point x="180.3" y="250.5"/>
      <point x="180.3" y="300.6" type="curve" smooth="yes"/>
      <point x="180.3" y="367.55"/>
      <point x="220.25" y="417.55"/>
      <point x="278.2" y="405.7" type="curve" smooth="yes"/>
      <point x="349.35" y="391.15" type="line" smooth="yes"/>
      <point x="395.6" y="381.3"/>
      <point x="427.0" y="343.75"/>
      <point x="427.0" y="297.35" type="curve" smooth="yes"/>
      <point x="427.0" y="228.0"/>
      <point x="386.45" y="176.3"/>
    </contour>
  </outline>
</glyph>
<glyph name="copyright" format="2">
  <advance width="600.0"/>
  <unicode hex="00A9"/>
  <outline>
    <contour>
      <point x="300.0" y="110.0" type="curve" smooth="yes"/>
      <point x="453.0" y="110.0"/>
      <point x="555.0" y="206.0"/>
      <point x="555.0" y="350.0" type="curve" smooth="yes"/>
      <point x="555.0" y="500.0" type="line" smooth="yes"/>
      <point x="555.0" y="644.0"/>
      <point x="453.0" y="740.0"/>
      <point x="300.0" y="740.0" type="curve" smooth="yes"/>
      <point x="147.0" y="740.0"/>
      <point x="45.0" y="644.0"/>
      <point x="45.0" y="500.0" type="curve" smooth="yes"/>
      <point x="45.0" y="350.0" type="line" smooth="yes"/>
      <point x="45.0" y="206.0"/>
      <point x="147.0" y="110.0"/>
    </contour>
    <contour>
      <point x="300.0" y="160.0" type="curve" smooth="yes"/>
      <point x="181.0" y="160.0"/>
      <point x="100.0" y="236.0"/>
      <point x="100.0" y="350.0" type="curve" smooth="yes"/>
      <point x="100.0" y="500.0" type="line" smooth="yes"/>
      <point x="100.0" y="614.0"/>
      <point x="181.0" y="690.0"/>
      <point x="300.0" y="690.0" type="curve" smooth="yes"/>
      <point x="420.0" y="690.0"/>
      <point x="500.0" y="614.0"/>
      <point x="500.0" y="500.0" type="curve" smooth="yes"/>
      <point x="500.0" y="350.0" type="line" smooth="yes"/>
      <point x="500.0" y="236.0"/>
      <point x="420.0" y="160.0"/>
    </contour>
    <contour>
      <point x="305.0" y="245.0" type="curve" smooth="yes"/>
      <point x="379.9" y="245.0"/>
      <point x="430.5" y="291.6"/>
      <point x="430.5" y="361.5" type="curve"/>
      <point x="362.5" y="361.5" type="line"/>
      <point x="362.5" y="326.4"/>
      <point x="339.1" y="303.0"/>
      <point x="305.0" y="303.0" type="curve" smooth="yes"/>
      <point x="269.9" y="303.0"/>
      <point x="246.5" y="326.4"/>
      <point x="246.5" y="361.5" type="curve" smooth="yes"/>
      <point x="246.5" y="488.5" type="line" smooth="yes"/>
      <point x="246.5" y="523.6"/>
      <point x="269.9" y="547.0"/>
      <point x="305.0" y="547.0" type="curve" smooth="yes"/>
      <point x="339.1" y="547.0"/>
      <point x="362.5" y="523.6"/>
      <point x="362.5" y="488.5" type="curve"/>
      <point x="430.5" y="488.5" type="line"/>
      <point x="430.5" y="558.4"/>
      <point x="379.9" y="605.0"/>
      <point x="305.0" y="605.0" type="curve" smooth="yes"/>
      <point x="229.1" y="605.0"/>
      <point x="178.5" y="558.4"/>
      <point x="178.5" y="488.5" type="curve" smooth="yes"/>
      <point x="178.5" y="361.5" type="line" smooth="yes"/>
      <point x="178.5" y="291.6"/>
      <point x="229.1" y="245.0"/>
    </contour>
  </outline>
</glyph>
<glyph name="ordfeminine" format="2">
  <advance width="600.0"/>
  <unicode hex="00AA"/>
  <outline>
    <contour>
      <point x="370.0" y="455.0" type="line"/>
      <point x="421.5" y="455.0" type="line"/>
      <point x="421.5" y="650.0" type="line" smooth="yes"/>
      <point x="421.5" y="705.7"/>
      <point x="376.6" y="740.0"/>
      <point x="305.0" y="740.0" type="curve" smooth="yes"/>
      <point x="239.15" y="740.0"/>
      <point x="195.95" y="710.25"/>
      <point x="188.5" y="659.25" type="curve"/>
      <point x="243.0" y="659.25" type="line"/>
      <point x="246.7" y="681.9"/>
      <point x="271.5" y="697.0"/>
      <point x="305.0" y="697.0" type="curve" smooth="yes"/>
      <point x="343.05" y="697.0"/>
      <point x="367.0" y="679.05"/>
      <point x="367.0" y="650.0" type="curve" smooth="yes"/>
      <point x="367.0" y="510.0" type="line"/>
      <point x="370.0" y="510.0" type="line"/>
    </contour>
    <contour>
      <point x="272.5" y="450.0" type="curve" smooth="yes"/>
      <point x="317.45" y="450.0"/>
      <point x="352.85" y="472.85"/>
      <point x="367.0" y="510.0" type="curve"/>
      <point x="378.0" y="510.0" type="line"/>
      <point x="378.0" y="555.0" type="line"/>
      <point x="367.0" y="555.0" type="line"/>
      <point x="367.0" y="514.8"/>
      <point x="336.75" y="490.55"/>
      <point x="287.0" y="490.55" type="curve" smooth="yes"/>
      <point x="251.1" y="490.55"/>
      <point x="228.0" y="508.1"/>
      <point x="228.0" y="536.6" type="curve" smooth="yes"/>
      <point x="228.0" y="563.7"/>
      <point x="247.1" y="580.1"/>
      <point x="280.0" y="580.1" type="curve" smooth="yes"/>
      <point x="378.0" y="580.1" type="line"/>
      <point x="378.0" y="621.6" type="line"/>
      <point x="280.0" y="621.6" type="line" smooth="yes"/>
      <point x="214.4" y="621.6"/>
      <point x="173.5" y="588.3"/>
      <point x="173.5" y="536.3" type="curve" smooth="yes"/>
      <point x="173.5" y="484.15"/>
      <point x="212.65" y="450.0"/>
    </contour>
  </outline>
</glyph>
<glyph name="guillemetleft" format="2">
  <advance width="600.0"/>
  <unicode hex="00AB"/>
  <outline>
    <contour>
      <point x="459.45" y="40.0" type="line"/>
      <point x="572.25" y="40.0" type="line"/>
      <point x="371.95" y="282.0" type="line"/>
      <point x="572.25" y="520.0" type="line"/>
      <point x="458.9" y="520.0" type="line"/>
      <point x="263.3" y="280.0" type="line"/>
    </contour>
    <contour>
      <point x="223.9" y="40.0" type="line"/>
      <point x="336.7" y="40.0" type="line"/>
      <point x="136.4" y="282.0" type="line"/>
      <point x="336.7" y="520.0" type="line"/>
      <point x="223.35" y="520.0" type="line"/>
      <point x="27.75" y="280.0" type="line"/>
    </contour>
  </outline>
</glyph>
<glyph name="logicalnot" format="2">
  <advance width="600.0"/>
  <unicode hex="00AC"/>
  <outline>
    <contour>
      <point x="435.25" y="200.5" type="line"/>
      <point x="530.0" y="200.5" type="line"/>
      <point x="530.0" y="420.25" type="line"/>
      <point x="70.0" y="420.25" type="line"/>
      <point x="70.0" y="331.25" type="line"/>
      <point x="435.25" y="331.25" type="line"/>
    </contour>
  </outline>
</glyph>
<glyph name="registered" format="2">
  <advance width="600.0"/>
  <unicode hex="00AE"/>
  <outline>
    <contour>
      <point x="300.0" y="110.0" type="curve" smooth="yes"/>
      <point x="453.0" y="110.0"/>
      <point x="555.0" y="206.0"/>
      <point x="555.0" y="350.0" type="curve" smooth="yes"/>
      <point x="555.0" y="500.0" type="line" smooth="yes"/>
      <point x="555.0" y="644.0"/>
      <point x="453.0" y="740.0"/>
      <point x="300.0" y="740.0" type="curve" smooth="yes"/>
      <point x="147.0" y="740.0"/>
      <point x="45.0" y="644.0"/>
      <point x="45.0" y="500.0" type="curve" smooth="yes"/>
      <point x="45.0" y="350.0" type="line" smooth="yes"/>
      <point x="45.0" y="206.0"/>
      <point x="147.0" y="110.0"/>
    </contour>
    <contour>
      <point x="100.0" y="350.0" type="curve" smooth="yes"/>
      <point x="100.0" y="500.0" type="line" smooth="yes"/>
      <point x="100.0" y="614.0"/>
      <point x="181.0" y="690.0"/>
      <point x="300.0" y="690.0" type="curve" smooth="yes"/>
      <point x="420.0" y="690.0"/>
      <point x="500.0" y="614.0"/>
      <point x="500.0" y="500.0" type="curve" smooth="yes"/>
      <point x="500.0" y="350.0" type="line" smooth="yes"/>
      <point x="500.0" y="236.0"/>
      <point x="420.0" y="160.0"/>
      <point x="300.0" y="160.0" type="curve" smooth="yes"/>
      <point x="181.0" y="160.0"/>
      <point x="100.0" y="236.0"/>
    </contour>
    <contour>
      <point x="188.5" y="250.0" type="line"/>
      <point x="251.5" y="250.0" type="line"/>
      <point x="251.5" y="389.25" type="line"/>
      <point x="303.40375" y="389.25" type="line"/>
      <point x="361.5" y="250.0" type="line"/>
      <point x="428.5" y="250.0" type="line"/>
      <point x="362.9522" y="400.3587" type="line"/>
      <point x="400.5509" y="416.545"/>
      <point x="422.5" y="449.75935"/>
      <point x="422.5" y="494.25" type="curve" smooth="yes"/>
      <point x="422.5" y="558.55"/>
      <point x="376.6" y="600.0"/>
      <point x="304.0" y="600.0" type="curve" smooth="yes"/>
      <point x="188.5" y="600.0" type="line"/>
    </contour>
    <contour>
      <point x="251.5" y="441.5" type="line"/>
      <point x="251.5" y="548.5" type="line"/>
      <point x="304.0" y="548.5" type="line" smooth="yes"/>
      <point x="337.95" y="548.5"/>
      <point x="358.5" y="528.8"/>
      <point x="358.5" y="495.0" type="curve" smooth="yes"/>
      <point x="358.5" y="461.2"/>
      <point x="337.95" y="441.5"/>
      <point x="304.0" y="441.5" type="curve" smooth="yes"/>
    </contour>
  </outline>
</glyph>
<glyph name="degree" format="2">
  <advance width="600.0"/>
  <unicode hex="00B0"/>
  <outline>
    <contour>
      <point x="300.0" y="450.0" type="curve" smooth="yes"/>
      <point x="390.0" y="450.0"/>
      <point x="450.0" y="508.0"/>
      <point x="450.0" y="595.0" type="curve" smooth="yes"/>
      <point x="450.0" y="682.0"/>
      <point x="390.0" y="740.0"/>
      <point x="300.0" y="740.0" type="curve" smooth="yes"/>
      <point x="210.0" y="740.0"/>
      <point x="150.0" y="682.0"/>
      <point x="150.0" y="595.0" type="curve" smooth="yes"/>
      <point x="150.0" y="508.0"/>
      <point x="210.0" y="450.0"/>
    </contour>
    <contour>
      <point x="299.15" y="503.1" type="curve" smooth="yes"/>
      <point x="247.35" y="503.1"/>
      <point x="212.25" y="540.2"/>
      <point x="212.25" y="595.0" type="curve" smooth="yes"/>
      <point x="212.25" y="650.65"/>
      <point x="247.35" y="687.75"/>
      <point x="299.15" y="687.75" type="curve" smooth="yes"/>
      <point x="352.65" y="687.75"/>
      <point x="387.75" y="650.65"/>
      <point x="387.75" y="595.0" type="curve" smooth="yes"/>
      <point x="387.75" y="540.2"/>
      <point x="352.65" y="503.1"/>
    </contour>
  </outline>
</glyph>
<glyph name="plusminus" format="2">
  <advance width="600.0"/>
  <unicode hex="00B1"/>
  <outline>
    <contour>
      <point x="69.25" y="0.0" type="line"/>
      <point x="530.75" y="0.0" type="line"/>
      <point x="530.75" y="76.15" type="line"/>
      <point x="349.4" y="76.15" type="line"/>
      <point x="349.4" y="289.75" type="line"/>
      <point x="537.25" y="289.75" type="line"/>
      <point x="537.25" y="378.75" type="line"/>
      <point x="349.4" y="378.75" type="line"/>
      <point x="349.4" y="570.0" type="line"/>
      <point x="252.1" y="570.0" type="line"/>
      <point x="252.1" y="378.75" type="line"/>
      <point x="64.25" y="378.75" type="line"/>
      <point x="64.25" y="289.75" type="line"/>
      <point x="252.1" y="289.75" type="line"/>
      <point x="252.1" y="76.15" type="line"/>
      <point x="69.25" y="76.15" type="line"/>
    </contour>
  </outline>
</glyph>
<glyph name="twosuperior" format="2">
  <advance width="600.0"/>
  <unicode hex="00B2"/>
  <outline>
    <contour>
      <point x="164.05" y="405.0" type="line"/>
      <point x="456.95" y="405.0" type="line"/>
      <point x="456.95" y="471.85" type="line"/>
      <point x="241.05" y="471.85" type="line"/>
      <point x="366.35" y="562.8" type="line" smooth="yes"/>
      <point x="415.95" y="598.35"/>
      <point x="446.7" y="649.95"/>
      <point x="446.7" y="697.55" type="curve" smooth="yes"/>
      <point x="446.7" y="784.7"/>
      <point x="389.65" y="840.0"/>
      <point x="298.6" y="840.0" type="curve" smooth="yes"/>
      <point x="210.95" y="840.0"/>
      <point x="153.05" y="783.85"/>
      <point x="149.65" y="695.7" type="curve"/>
      <point x="223.4" y="695.7" type="line"/>
      <point x="223.4" y="744.05"/>
      <point x="252.8" y="774.15"/>
      <point x="298.6" y="774.15" type="curve" smooth="yes"/>
      <point x="344.4" y="774.15"/>
      <point x="373.8" y="744.05"/>
      <point x="373.8" y="695.7" type="curve" smooth="yes"/>
      <point x="373.8" y="665.85"/>
      <point x="356.1" y="634.15"/>
      <point x="327.85" y="613.9" type="curve" smooth="yes"/>
      <point x="164.05" y="493.5" type="line"/>
    </contour>
  </outline>
</glyph>
<glyph name="threesuperior" format="2">
  <advance width="600.0"/>
  <unicode hex="00B3"/>
  <outline>
    <contour>
      <point x="284.0" y="395.0" type="curve" smooth="yes"/>
      <point x="375.75" y="395.0"/>
      <point x="433.95" y="449.3"/>
      <point x="433.95" y="536.05" type="curve" smooth="yes"/>
      <point x="433.95" y="617.75"/>
      <point x="377.8" y="669.75"/>
      <point x="290.55" y="669.75" type="curve"/>
      <point x="290.55" y="640.7" type="line"/>
      <point x="406.8" y="750.35" type="line"/>
      <point x="406.8" y="830.85" type="line"/>
      <point x="163.2" y="830.85" type="line"/>
      <point x="163.2" y="764.0" type="line"/>
      <point x="345.9" y="764.0" type="line"/>
      <point x="255.0" y="677.55" type="line"/>
      <point x="255.0" y="610.7" type="line"/>
      <point x="285.0" y="610.7" type="line" smooth="yes"/>
      <point x="330.1" y="610.7"/>
      <point x="358.5" y="582.3"/>
      <point x="358.5" y="536.05" type="curve" smooth="yes"/>
      <point x="358.5" y="489.5"/>
      <point x="330.1" y="460.85"/>
      <point x="284.0" y="460.85" type="curve" smooth="yes"/>
      <point x="236.05" y="460.85"/>
      <point x="206.5" y="489.5"/>
      <point x="206.5" y="535.75" type="curve"/>
      <point x="133.6" y="535.75" type="line"/>
      <point x="133.6" y="449.3"/>
      <point x="191.95" y="395.0"/>
    </contour>
  </outline>
</glyph>
<glyph name="paragraph" format="2">
  <advance width="600.0"/>
  <unicode hex="00B6"/>
  <outline>
    <contour>
      <point x="252.75" y="-180.0" type="line"/>
      <point x="337.25" y="-180.0" type="line"/>
      <point x="337.25" y="730.0" type="line"/>
      <point x="252.75" y="730.0" type="line" smooth="yes"/>
      <point x="138.75" y="730.0"/>
      <point x="62.75" y="662.0"/>
      <point x="62.75" y="560.0" type="curve" smooth="yes"/>
      <point x="62.75" y="480.0" type="line" smooth="yes"/>
      <point x="62.75" y="378.0"/>
      <point x="138.75" y="310.0"/>
      <point x="252.75" y="310.0" type="curve"/>
    </contour>
    <contour>
      <point x="424.25" y="-180.0" type="line"/>
      <point x="508.75" y="-180.0" type="line"/>
      <point x="508.75" y="730.0" type="line"/>
      <point x="424.25" y="730.0" type="line"/>
    </contour>
  </outline>
</glyph>
<glyph name="onesuperior" format="2">
  <advance width="600.0"/>
  <unicode hex="00B9"/>
  <outline>
    <contour>
      <point x="153.5" y="405.0" type="line"/>
      <point x="462.25" y="405.0" type="line"/>
      <point x="462.25" y="472.15" type="line"/>
      <point x="358.55" y="472.15" type="line"/>
      <point x="358.55" y="830.0" type="line"/>
      <point x="259.8" y="830.0" type="line"/>
      <point x="162.5" y="758.55" type="line"/>
      <point x="162.5" y="676.7" type="line"/>
      <point x="284.8" y="764.0" type="line"/>
      <point x="284.8" y="472.15" type="line"/>
      <point x="153.5" y="472.15" type="line"/>
    </contour>
  </outline>
</glyph>
<glyph name="ordmasculine" format="2">
  <advance width="600.0"/>
  <unicode hex="00BA"/>
  <outline>
    <contour>
      <point x="300.0" y="445.75" type="curve" smooth="yes"/>
      <point x="370.8" y="445.75"/>
      <point x="418.0" y="489.25"/>
      <point x="418.0" y="553.15" type="curve" smooth="yes"/>
      <point x="418.0" y="628.5" type="line" smooth="yes"/>
      <point x="418.0" y="692.85"/>
      <point x="370.8" y="735.75"/>
      <point x="300.0" y="735.75" type="curve" smooth="yes"/>
      <point x="229.2" y="735.75"/>
      <point x="182.0" y="692.85"/>
      <point x="182.0" y="628.5" type="curve" smooth="yes"/>
      <point x="182.0" y="553.15" type="line" smooth="yes"/>
      <point x="182.0" y="489.25"/>
      <point x="229.2" y="445.75"/>
    </contour>
    <contour>
      <point x="300.0" y="490.25" type="curve" smooth="yes"/>
      <point x="261.9" y="490.25"/>
      <point x="236.5" y="515.35"/>
      <point x="236.5" y="553.15" type="curve" smooth="yes"/>
      <point x="236.5" y="628.5" type="line" smooth="yes"/>
      <point x="236.5" y="666.15"/>
      <point x="261.9" y="691.25"/>
      <point x="300.0" y="691.25" type="curve" smooth="yes"/>
      <point x="338.1" y="691.25"/>
      <point x="363.5" y="666.15"/>
      <point x="363.5" y="628.5" type="curve" smooth="yes"/>
      <point x="363.5" y="553.15" type="line" smooth="yes"/>
      <point x="363.5" y="515.35"/>
      <point x="338.1" y="490.25"/>
    </contour>
  </outline>
</glyph>
<glyph name="guillemetright" format="2">
  <advance width="600.0"/>
  <unicode hex="00BB"/>
  <outline>
    <contour>
      <point x="264.15" y="40.0" type="line"/>
      <point x="376.65" y="40.0" type="line"/>
      <point x="572.25" y="280.0" type="line"/>
      <point x="376.1" y="520.0" type="line"/>
      <point x="263.3" y="520.0" type="line"/>
      <point x="460.9" y="280.85" type="line"/>
    </contour>
    <contour>
      <point x="28.6" y="40.0" type="line"/>
      <point x="141.1" y="40.0" type="line"/>
      <point x="336.7" y="280.0" type="line"/>
      <point x="140.55" y="520.0" type="line"/>
      <point x="27.75" y="520.0" type="line"/>
      <point x="225.35" y="280.85" type="line"/>
    </contour>
  </outline>
</glyph>
<glyph name="onequarter" format="2">
  <advance width="600.0"/>
  <unicode hex="00BC"/>
  <outline>
    <contour>
      <point x="31.05" y="404.85" type="line"/>
      <point x="308.9" y="404.85" type="line"/>
      <point x="308.9" y="458.6" type="line"/>
      <point x="212.95" y="458.6" type="line"/>
      <point x="212.95" y="729.85" type="line"/>
      <point x="123.45" y="729.85" type="line"/>
      <point x="52.7" y="669.9" type="line"/>
      <point x="52.7" y="595.7" type="line"/>
      <point x="114.55" y="648.65" type="line" smooth="yes"/>
      <point x="129.55" y="661.5"/>
      <point x="142.15" y="677.95"/>
      <point x="148.45" y="687.4" type="curve"/>
      <point x="148.45" y="458.6" type="line"/>
      <point x="31.05" y="458.6" type="line"/>
    </contour>
    <contour>
      <point x="476.85" y="0.0" type="line"/>
      <point x="541.35" y="0.0" type="line"/>
      <point x="541.35" y="208.4" type="line"/>
      <point x="476.85" y="208.4" type="line"/>
      <point x="476.85" y="121.5" type="line"/>
      <point x="367.85" y="121.5" type="line"/>
      <point x="367.85" y="137.5" type="line"/>
      <point x="502.85" y="325.0" type="line"/>
      <point x="429.35" y="325.0" type="line"/>
      <point x="303.35" y="151.5" type="line"/>
      <point x="303.35" y="68.5" type="line"/>
      <point x="476.85" y="68.5" type="line"/>
    </contour>
    <component base="fraction"/>
  </outline>
</glyph>
<glyph name="onehalf" format="2">
  <advance width="600.0"/>
  <unicode hex="00BD"/>
  <outline>
    <contour>
      <point x="314.25" y="0.0" type="line"/>
      <point x="572.25" y="0.0" type="line"/>
      <point x="572.25" y="53.75" type="line"/>
      <point x="464.6" y="53.75" type="line" smooth="yes"/>
      <point x="437.25" y="53.75"/>
      <point x="406.85" y="49.05"/>
      <point x="391.85" y="46.2" type="curve"/>
      <point x="391.85" y="56.05" type="line"/>
      <point x="479.6" y="104.9" type="line" smooth="yes"/>
      <point x="536.25" y="136.5"/>
      <point x="567.25" y="177.45"/>
      <point x="567.25" y="219.35" type="curve" smooth="yes"/>
      <point x="567.25" y="285.6"/>
      <point x="516.8" y="330.0"/>
      <point x="441.2" y="330.0" type="curve" smooth="yes"/>
      <point x="367.85" y="330.0"/>
      <point x="316.8" y="284.7"/>
      <point x="314.25" y="216.0" type="curve"/>
      <point x="378.75" y="216.0" type="line"/>
      <point x="378.75" y="253.05"/>
      <point x="403.7" y="277.0"/>
      <point x="441.2" y="277.0" type="curve" smooth="yes"/>
      <point x="478.1" y="277.0"/>
      <point x="502.75" y="253.35"/>
      <point x="502.75" y="216.45" type="curve" smooth="yes"/>
      <point x="502.75" y="188.8"/>
      <point x="481.55" y="163.6"/>
      <point x="437.7" y="138.4" type="curve" smooth="yes"/>
      <point x="314.25" y="67.75" type="line"/>
    </contour>
    <contour>
      <point x="31.05" y="405.0" type="line"/>
      <point x="317.4" y="405.0" type="line"/>
      <point x="317.4" y="458.75" type="line"/>
      <point x="212.95" y="458.75" type="line"/>
      <point x="212.95" y="730.0" type="line"/>
      <point x="123.45" y="730.0" type="line"/>
      <point x="52.7" y="670.05" type="line"/>
      <point x="52.7" y="595.85" type="line"/>
      <point x="114.55" y="648.8" type="line" smooth="yes"/>
      <point x="129.55" y="661.65"/>
      <point x="142.15" y="678.1"/>
      <point x="148.45" y="687.55" type="curve"/>
      <point x="148.45" y="458.75" type="line"/>
      <point x="31.05" y="458.75" type="line"/>
    </contour>
    <component base="fraction"/>
  </outline>
</glyph>
<glyph name="threequarters" format="2">
  <advance width="600.0"/>
  <unicode hex="00BE"/>
  <outline>
    <contour>
      <point x="476.85" y="0.0" type="line"/>
      <point x="541.35" y="0.0" type="line"/>
      <point x="541.35" y="208.4" type="line"/>
      <point x="476.85" y="208.4" type="line"/>
      <point x="476.85" y="121.5" type="line"/>
      <point x="367.85" y="121.5" type="line"/>
      <point x="367.85" y="137.5" type="line"/>
      <point x="502.85" y="325.0" type="line"/>
      <point x="429.35" y="325.0" type="line"/>
      <point x="303.35" y="151.5" type="line"/>
      <point x="303.35" y="68.5" type="line"/>
      <point x="476.85" y="68.5" type="line"/>
    </contour>
    <contour>
      <point x="154.15" y="400.0" type="curve" smooth="yes"/>
      <point x="231.05" y="400.0"/>
      <point x="282.5" y="442.3"/>
      <point x="282.5" y="505.75" type="curve" smooth="yes"/>
      <point x="282.5" y="568.3"/>
      <point x="233.1" y="610.0"/>
      <point x="160.7" y="610.0" type="curve"/>
      <point x="160.7" y="591.7" type="line"/>
      <point x="266.65" y="673.95" type="line"/>
      <point x="266.65" y="730.0" type="line"/>
      <point x="48.65" y="730.0" type="line"/>
      <point x="48.65" y="677.75" type="line"/>
      <point x="203.3" y="677.75" type="line"/>
      <point x="125.15" y="616.85" type="line"/>
      <point x="125.15" y="558.5" type="line"/>
      <point x="155.15" y="558.5" type="line" smooth="yes"/>
      <point x="192.35" y="558.5"/>
      <point x="218.0" y="537.4"/>
      <point x="218.0" y="505.75" type="curve" smooth="yes"/>
      <point x="218.0" y="474.1"/>
      <point x="192.35" y="453.0"/>
      <point x="154.15" y="453.0" type="curve" smooth="yes"/>
      <point x="114.95" y="453.0"/>
      <point x="89.15" y="473.8"/>
      <point x="89.15" y="505.0" type="curve"/>
      <point x="24.65" y="505.0" type="line"/>
      <point x="24.65" y="442.0"/>
      <point x="76.25" y="400.0"/>
    </contour>
    <component base="fraction"/>
  </outline>
</glyph>
<glyph name="questiondown" format="2">
  <advance width="600.0"/>
  <unicode hex="00BF"/>
  <outline>
    <contour>
      <point x="338.5" y="-170.0" type="curve" smooth="yes"/>
      <point x="468.0" y="-170.0" type="line"/>
      <point x="468.0" y="-76.75" type="line"/>
      <point x="337.0" y="-76.75" type="line" smooth="yes"/>
      <point x="254.65" y="-76.75"/>
      <point x="204.5" y="-32.9"/>
      <point x="204.5" y="40.0" type="curve" smooth="yes"/>
      <point x="204.5" y="112.9"/>
      <point x="254.65" y="156.75"/>
      <point x="336.0" y="156.75" type="curve" smooth="yes"/>
      <point x="393.5" y="156.75" type="line"/>
      <point x="392.75" y="342.0" type="line"/>
      <point x="297.5" y="342.0" type="line"/>
      <point x="297.5" y="240.75" type="line"/>
      <point x="182.7" y="235.65"/>
      <point x="105.5" y="155.35"/>
      <point x="105.5" y="40.0" type="curve" smooth="yes"/>
      <point x="105.5" y="-88.55"/>
      <point x="195.3" y="-170.0"/>
    </contour>
    <contour>
      <point x="335.9" y="432.0" type="curve" smooth="yes"/>
      <point x="357.4" y="432.0" type="line" smooth="yes"/>
      <point x="397.3" y="432.0"/>
      <point x="423.9" y="457.45"/>
      <point x="423.9" y="495.2" type="curve" smooth="yes"/>
      <point x="423.9" y="532.1"/>
      <point x="397.3" y="555.0"/>
      <point x="357.4" y="555.0" type="curve" smooth="yes"/>
      <point x="336.05" y="555.0" type="line" smooth="yes"/>
      <point x="296.0" y="555.0"/>
      <point x="269.4" y="531.4"/>
      <point x="269.4" y="494.5" type="curve" smooth="yes"/>
      <point x="269.4" y="457.45"/>
      <point x="296.0" y="432.0"/>
    </contour>
  </outline>
</glyph>
<glyph name="AE" format="2">
  <advance width="600.0"/>
  <unicode hex="00C6"/>
  <anchor x="300.0" y="0.0" name="bottom"/>
  <anchor x="300.0" y="730.0" name="top"/>
  <outline>
    <contour>
      <point x="25.5" y="0.0" type="line"/>
      <point x="124.3" y="0.0" type="line"/>
      <point x="162.2" y="197.3" type="line"/>
      <point x="300.35" y="197.3" type="line"/>
      <point x="300.35" y="0.0" type="line"/>
      <point x="571.5" y="0.0" type="line"/>
      <point x="571.5" y="88.6" type="line"/>
      <point x="392.2" y="88.6" type="line"/>
      <point x="392.2" y="333.05" type="line"/>
      <point x="546.5" y="333.05" type="line"/>
      <point x="546.5" y="422.4" type="line"/>
      <point x="392.2" y="422.4" type="line"/>
      <point x="392.2" y="641.55" type="line"/>
      <point x="571.5" y="641.55" type="line"/>
      <point x="571.5" y="730.0" type="line"/>
      <point x="169.3" y="730.0" type="line"/>
    </contour>
    <contour>
      <point x="176.65" y="276.8" type="line"/>
      <point x="245.4" y="641.55" type="line"/>
      <point x="300.35" y="641.55" type="line"/>
      <point x="300.35" y="276.8" type="line"/>
    </contour>
  </outline>
</glyph>
<glyph name="Ccedilla" format="2">
  <advance width="600.0"/>
  <unicode hex="00C7"/>
  <anchor x="305.0" y="0.0" name="_bottom"/>
  <anchor x="305.0" y="0.0" name="bottom"/>
  <anchor x="305.0" y="730.0" name="top"/>
  <outline>
    <contour>
      <point x="208.5" y="-206.3" type="line"/>
      <point x="297.25" y="-206.3" type="line" smooth="yes"/>
      <point x="371.05" y="-206.3"/>
      <point x="420.25" y="-168.4"/>
      <point x="420.25" y="-121.95" type="curve" smooth="yes"/>
      <point x="420.25" y="-68.6"/>
      <point x="350.3" y="-41.3"/>
      <point x="296.95" y="-35.6" type="curve"/>
      <point x="317.65" y="24.5" type="line"/>
      <point x="258.25" y="24.5" type="line"/>
      <point x="223.25" y="-69.0" type="line"/>
      <point x="291.15" y="-69.0"/>
      <point x="329.9" y="-88.85"/>
      <point x="329.9" y="-113.05" type="curve" smooth="yes"/>
      <point x="329.9" y="-130.75"/>
      <point x="309.6" y="-149.05"/>
      <point x="280.0" y="-149.05" type="curve" smooth="yes"/>
      <point x="208.5" y="-149.05" type="line"/>
    </contour>
    <component base="C"/>
  </outline>
</glyph>
<glyph name="multiply" format="2">
  <advance width="600.0"/>
  <unicode hex="00D7"/>
  <outline>
    <contour>
      <point x="159.6" y="130.6" type="line"/>
      <point x="298.3" y="269.45" type="line"/>
      <point x="436.15" y="130.6" type="line"/>
      <point x="495.8" y="190.25" type="line"/>
      <point x="356.95" y="328.1" type="line"/>
      <point x="498.35" y="469.35" type="line"/>
      <point x="439.55" y="529.0" type="line"/>
      <point x="298.3" y="387.75" type="line"/>
      <point x="159.6" y="525.6" type="line"/>
      <point x="100.8" y="466.8" type="line"/>
      <point x="238.65" y="328.1" type="line"/>
      <point x="100.8" y="190.25" type="line"/>
    </contour>
  </outline>
</glyph>
<glyph name="Oslash" format="2">
  <advance width="600.0"/>
  <unicode hex="00D8"/>
  <anchor x="300.0" y="0.0" name="bottom"/>
  <anchor x="320.0" y="730.0" name="horn"/>
  <anchor x="300.0" y="730.0" name="top"/>
  <outline>
    <contour>
      <point x="32.0" y="-40.0" type="line"/>
      <point x="121.1" y="-40.0" type="line"/>
      <point x="568.0" y="750.0" type="line"/>
      <point x="478.9" y="750.0" type="line"/>
    </contour>
    <contour>
      <point x="300.0" y="-10.0" type="curve" smooth="yes"/>
      <point x="433.4" y="-10.0"/>
      <point x="516.2" y="70.35"/>
      <point x="516.2" y="201.5" type="curve" smooth="yes"/>
      <point x="516.2" y="529.35" type="line" smooth="yes"/>
      <point x="516.2" y="659.65"/>
      <point x="433.4" y="740.0"/>
      <point x="300.0" y="740.0" type="curve" smooth="yes"/>
      <point x="166.6" y="740.0"/>
      <point x="83.8" y="659.65"/>
      <point x="83.8" y="528.5" type="curve" smooth="yes"/>
      <point x="83.8" y="201.5" type="line" smooth="yes"/>
      <point x="83.8" y="70.35"/>
      <point x="166.6" y="-10.0"/>
    </contour>
    <contour>
      <point x="300.0" y="78.35" type="curve" smooth="yes"/>
      <point x="224.55" y="78.35"/>
      <point x="182.05" y="122.25"/>
      <point x="182.05" y="201.5" type="curve" smooth="yes"/>
      <point x="182.05" y="528.5" type="line" smooth="yes"/>
      <point x="182.05" y="607.75"/>
      <point x="224.55" y="651.65"/>
      <point x="300.0" y="651.65" type="curve" smooth="yes"/>
      <point x="375.45" y="651.65"/>
      <point x="417.95" y="607.75"/>
      <point x="417.95" y="528.5" type="curve" smooth="yes"/>
      <point x="417.95" y="201.5" type="line" smooth="yes"/>
      <point x="417.95" y="122.25"/>
      <point x="375.45" y="78.35"/>
    </contour>
  </outline>
</glyph>
<glyph name="Thorn" format="2">
  <advance width="600.0"/>
  <unicode hex="00DE"/>
  <outline>
    <contour>
      <point x="87.0" y="0.0" type="line"/>
      <point x="186.0" y="0.0" type="line"/>
      <point x="186.0" y="177.75" type="line"/>
      <point x="334.05" y="177.75" type="line" smooth="yes"/>
      <point x="467.7" y="177.75"/>
      <point x="553.0" y="256.2"/>
      <point x="553.0" y="380.0" type="curve" smooth="yes"/>
      <point x="553.0" y="502.25"/>
      <point x="467.0" y="582.25"/>
      <point x="334.05" y="582.25" type="curve" smooth="yes"/>
      <point x="186.0" y="582.25" type="line"/>
      <point x="186.0" y="730.0" type="line"/>
      <point x="87.0" y="730.0" type="line"/>
    </contour>
    <contour>
      <point x="186.0" y="264.5" type="line"/>
      <point x="186.0" y="495.5" type="line"/>
      <point x="330.3" y="495.5" type="line" smooth="yes"/>
      <point x="405.1" y="495.5"/>
      <point x="451.45" y="451.6"/>
      <point x="451.45" y="380.0" type="curve" smooth="yes"/>
      <point x="451.45" y="308.4"/>
      <point x="405.95" y="264.5"/>
      <point x="330.3" y="264.5" type="curve" smooth="yes"/>
    </contour>
  </outline>
</glyph>
<glyph name="germandbls" format="2">
  <advance width="600.0"/>
  <unicode hex="00DF"/>
  <outline>
    <contour>
      <point x="87.2" y="0.0" type="line"/>
      <point x="183.95" y="0.0" type="line"/>
      <point x="183.95" y="531.3" type="line" smooth="yes"/>
      <point x="183.95" y="605.9"/>
      <point x="229.75" y="651.55"/>
      <point x="301.8" y="651.55" type="curve" smooth="yes"/>
      <point x="373.15" y="651.55"/>
      <point x="418.1" y="607.6"/>
      <point x="418.1" y="533.15" type="curve" smooth="yes"/>
      <point x="418.1" y="464.55"/>
      <point x="374.6" y="415.25"/>
      <point x="303.3" y="415.25" type="curve" smooth="yes"/>
      <point x="260.85" y="415.25" type="line"/>
      <point x="260.85" y="332.45" type="line"/>
      <point x="305.3" y="332.45" type="line" smooth="yes"/>
      <point x="383.6" y="332.45"/>
      <point x="431.1" y="286.95"/>
      <point x="431.1" y="212.5" type="curve" smooth="yes"/>
      <point x="431.1" y="138.05"/>
      <point x="382.9" y="88.45"/>
      <point x="305.3" y="88.45" type="curve" smooth="yes"/>
      <point x="250.65" y="88.45" type="line"/>
      <point x="250.65" y="0.0" type="line"/>
      <point x="314.55" y="0.0" type="line" smooth="yes"/>
      <point x="446.55" y="0.0"/>
      <point x="534.5" y="85.7"/>
      <point x="534.5" y="208.15" type="curve" smooth="yes"/>
      <point x="534.5" y="324.55"/>
      <point x="458.0" y="399.55"/>
      <point x="341.5" y="397.55" type="curve"/>
      <point x="341.5" y="382.55" type="line"/>
      <point x="451.2" y="380.85"/>
      <point x="520.65" y="451.05"/>
      <point x="520.65" y="552.65" type="curve" smooth="yes"/>
      <point x="520.65" y="672.2"/>
      <point x="433.4" y="740.0"/>
      <point x="301.95" y="740.0" type="curve" smooth="yes"/>
      <point x="171.85" y="740.0"/>
      <point x="87.2" y="656.8"/>
      <point x="87.2" y="531.3" type="curve" smooth="yes"/>
    </contour>
  </outline>
</glyph>
<glyph name="ae" format="2">
  <advance width="600.0"/>
  <unicode hex="00E6"/>
  <anchor x="300.0" y="550.0" name="top"/>
  <outline>
    <contour>
      <point x="170.3" y="-10.0" type="curve" smooth="yes"/>
      <point x="254.7" y="-10.0"/>
      <point x="294.25" y="35.55"/>
      <point x="300.25" y="69.25" type="curve"/>
      <point x="304.85" y="69.25" type="line"/>
      <point x="309.85" y="35.55"/>
      <point x="344.7" y="-10.0"/>
      <point x="420.0" y="-10.0" type="curve" smooth="yes"/>
      <point x="507.0" y="-10.0"/>
      <point x="565.0" y="46.6"/>
      <point x="565.0" y="131.5" type="curve"/>
      <point x="475.5" y="131.5" type="line"/>
      <point x="475.5" y="93.25"/>
      <point x="450.0" y="70.0"/>
      <point x="409.1" y="70.0" type="curve" smooth="yes"/>
      <point x="370.75" y="70.0"/>
      <point x="345.1" y="101.05"/>
      <point x="345.1" y="148.5" type="curve" smooth="yes"/>
      <point x="345.1" y="254.25" type="line"/>
      <point x="565.0" y="254.25" type="line"/>
      <point x="565.0" y="401.5" type="line" smooth="yes"/>
      <point x="565.0" y="499.15"/>
      <point x="509.55" y="560.0"/>
      <point x="420.0" y="560.0" type="curve" smooth="yes"/>
      <point x="345.55" y="560.0"/>
      <point x="310.7" y="514.45"/>
      <point x="304.85" y="480.75" type="curve"/>
      <point x="300.25" y="480.75" type="line"/>
      <point x="294.4" y="514.45"/>
      <point x="257.85" y="560.0"/>
      <point x="180.15" y="560.0" type="curve" smooth="yes"/>
      <point x="98.95" y="560.0"/>
      <point x="45.2" y="502.8"/>
      <point x="45.2" y="417.0" type="curve"/>
      <point x="134.7" y="417.0" type="line"/>
      <point x="134.7" y="455.3"/>
      <point x="158.65" y="480.0"/>
      <point x="195.6" y="480.0" type="curve" smooth="yes"/>
      <point x="238.9" y="480.0"/>
      <point x="259.15" y="454.9"/>
      <point x="259.15" y="400.65" type="curve" smooth="yes"/>
      <point x="259.15" y="325.75" type="line"/>
      <point x="189.8" y="325.75" type="line" smooth="yes"/>
      <point x="95.9" y="325.75"/>
      <point x="35.0" y="272.3"/>
      <point x="35.0" y="190.0" type="curve" smooth="yes"/>
      <point x="35.0" y="131.5" type="line" smooth="yes"/>
      <point x="35.0" y="44.9"/>
      <point x="87.45" y="-10.0"/>
    </contour>
    <contour>
      <point x="191.35" y="70.0" type="curve" smooth="yes"/>
      <point x="152.7" y="70.0"/>
      <point x="128.75" y="93.4"/>
      <point x="128.75" y="131.5" type="curve" smooth="yes"/>
      <point x="128.75" y="190.0" type="line" smooth="yes"/>
      <point x="128.75" y="229.7"/>
      <point x="152.0" y="254.25"/>
      <point x="191.5" y="254.25" type="curve" smooth="yes"/>
      <point x="259.15" y="254.25" type="line"/>
      <point x="259.15" y="148.5" type="line" smooth="yes"/>
      <point x="259.15" y="101.05"/>
      <point x="232.1" y="70.0"/>
    </contour>
    <contour>
      <point x="345.1" y="325.75" type="line"/>
      <point x="345.1" y="401.5" type="line" smooth="yes"/>
      <point x="345.1" y="448.95"/>
      <point x="368.9" y="480.0"/>
      <point x="409.1" y="480.0" type="curve" smooth="yes"/>
      <point x="450.85" y="480.0"/>
      <point x="475.5" y="449.1"/>
      <point x="475.5" y="401.5" type="curve" smooth="yes"/>
      <point x="475.5" y="325.75" type="line"/>
    </contour>
  </outline>
</glyph>
<glyph name="ccedilla" format="2">
  <advance width="600.0"/>
  <unicode hex="00E7"/>
  <anchor x="303.85" y="0.0" name="_bottom"/>
  <anchor x="303.85" y="0.0" name="bottom"/>
  <anchor x="303.85" y="550.0" name="top"/>
  <outline>
    <contour>
      <point x="206.6" y="-206.3" type="line"/>
      <point x="295.35" y="-206.3" type="line" smooth="yes"/>
      <point x="369.15" y="-206.3"/>
      <point x="418.35" y="-168.4"/>
      <point x="418.35" y="-121.95" type="curve" smooth="yes"/>
      <point x="418.35" y="-68.6"/>
      <point x="348.4" y="-41.3"/>
      <point x="295.05" y="-35.6" type="curve"/>
      <point x="315.75" y="24.5" type="line"/>
      <point x="256.35" y="24.5" type="line"/>
      <point x="221.35" y="-69.0" type="line"/>
      <point x="289.25" y="-69.0"/>
      <point x="328.0" y="-88.85"/>
      <point x="328.0" y="-113.05" type="curve" smooth="yes"/>
      <point x="328.0" y="-130.75"/>
      <point x="307.7" y="-149.05"/>
      <point x="278.1" y="-149.05" type="curve" smooth="yes"/>
      <point x="206.6" y="-149.05" type="line"/>
    </contour>
    <component base="c"/>
  </outline>
</glyph>
<glyph name="eth" format="2">
  <advance width="600.0"/>
  <unicode hex="00F0"/>
  <outline>
    <contour>
      <point x="299.15" y="-8.5" type="curve" smooth="yes"/>
      <point x="441.15" y="-8.5"/>
      <point x="534.5" y="84.95"/>
      <point x="534.5" y="227.2" type="curve" smooth="yes"/>
      <point x="534.5" y="312.35"/>
      <point x="497.55" y="411.3"/>
      <point x="434.95" y="499.6" type="curve" smooth="yes"/>
      <point x="360.7" y="606.0" type="line"/>
      <point x="465.8" y="653.05" type="line"/>
      <point x="465.8" y="736.8" type="line"/>
      <point x="315.4" y="669.3" type="line"/>
      <point x="273.05" y="730.0" type="line"/>
      <point x="159.6" y="730.0" type="line"/>
      <point x="231.15" y="632.35" type="line"/>
      <point x="115.35" y="579.8" type="line"/>
      <point x="115.35" y="496.05" type="line"/>
      <point x="277.15" y="569.05" type="line"/>
      <point x="340.35" y="481.35" type="line" smooth="yes"/>
      <point x="380.5" y="427.6"/>
      <point x="401.35" y="391.05"/>
      <point x="406.3" y="379.25" type="curve"/>
      <point x="393.5" y="379.25" type="line"/>
      <point x="377.75" y="404.9"/>
      <point x="334.95" y="439.0"/>
      <point x="275.3" y="439.0" type="curve" smooth="yes"/>
      <point x="149.2" y="439.0"/>
      <point x="65.5" y="351.0"/>
      <point x="65.5" y="218.15" type="curve" smooth="yes"/>
      <point x="65.5" y="82.1"/>
      <point x="159.15" y="-8.5"/>
    </contour>
    <contour>
      <point x="299.15" y="78.25" type="curve" smooth="yes"/>
      <point x="218.55" y="78.25"/>
      <point x="164.5" y="134.0"/>
      <point x="164.5" y="218.0" type="curve" smooth="yes"/>
      <point x="164.5" y="302.0"/>
      <point x="218.55" y="357.75"/>
      <point x="299.15" y="357.75" type="curve" smooth="yes"/>
      <point x="381.3" y="357.75"/>
      <point x="435.5" y="301.85"/>
      <point x="435.5" y="218.0" type="curve" smooth="yes"/>
      <point x="435.5" y="134.0"/>
      <point x="381.45" y="78.25"/>
    </contour>
  </outline>
</glyph>
<glyph name="divide" format="2">
  <advance width="600.0"/>
  <unicode hex="00F7"/>
  <outline>
    <contour>
      <point x="100.0" y="289.75" type="line"/>
      <point x="500.0" y="289.75" type="line"/>
      <point x="500.0" y="374.5" type="line"/>
      <point x="100.0" y="374.5" type="line"/>
    </contour>
    <contour>
      <point x="300.0" y="460.0" type="curve" smooth="yes"/>
      <point x="351.5" y="460.0"/>
      <point x="385.55" y="490.9"/>
      <point x="385.55" y="537.25" type="curve" smooth="yes"/>
      <point x="385.55" y="583.6"/>
      <point x="351.5" y="614.5"/>
      <point x="300.0" y="614.5" type="curve" smooth="yes"/>
      <point x="248.5" y="614.5"/>
      <point x="214.45" y="583.6"/>
      <point x="214.45" y="537.25" type="curve" smooth="yes"/>
      <point x="214.45" y="490.9"/>
      <point x="248.5" y="460.0"/>
    </contour>
    <contour>
      <point x="300.0" y="49.75" type="curve" smooth="yes"/>
      <point x="351.5" y="49.75"/>
      <point x="385.55" y="80.65"/>
      <point x="385.55" y="127.0" type="curve" smooth="yes"/>
      <point x="385.55" y="173.35"/>
      <point x="351.5" y="204.25"/>
      <point x="300.0" y="204.25" type="curve" smooth="yes"/>
      <point x="248.5" y="204.25"/>
      <point x="214.45" y="173.35"/>
      <point x="214.45" y="127.0" type="curve" smooth="yes"/>
      <point x="214.45" y="80.65"/>
      <point x="248.5" y="49.75"/>
    </contour>
  </outline>
</glyph>
<glyph name="oslash" format="2">
  <advance width="600.0"/>
  <unicode hex="00F8"/>
  <anchor x="300.0" y="0.0" name="bottom"/>
  <anchor x="330.2" y="550.0" name="horn"/>
  <anchor x="300.0" y="550.0" name="top"/>
  <outline>
    <contour>
      <point x="33.5" y="-30.0" type="line"/>
      <point x="127.25" y="-30.0" type="line"/>
      <point x="566.5" y="590.0" type="line"/>
      <point x="471.9" y="590.0" type="line"/>
    </contour>
    <contour>
      <point x="300.0" y="-10.0" type="curve" smooth="yes"/>
      <point x="433.4" y="-10.0"/>
      <point x="516.2" y="70.35"/>
      <point x="516.2" y="201.5" type="curve" smooth="yes"/>
      <point x="516.2" y="349.35" type="line" smooth="yes"/>
      <point x="516.2" y="479.65"/>
      <point x="433.4" y="560.0"/>
      <point x="300.0" y="560.0" type="curve" smooth="yes"/>
      <point x="166.6" y="560.0"/>
      <point x="83.8" y="479.65"/>
      <point x="83.8" y="348.5" type="curve" smooth="yes"/>
      <point x="83.8" y="201.5" type="line" smooth="yes"/>
      <point x="83.8" y="70.35"/>
      <point x="166.6" y="-10.0"/>
    </contour>
    <contour>
      <point x="300.0" y="77.5" type="curve" smooth="yes"/>
      <point x="222.55" y="77.5"/>
      <point x="177.05" y="123.4"/>
      <point x="177.05" y="201.5" type="curve" smooth="yes"/>
      <point x="177.05" y="348.5" type="line" smooth="yes"/>
      <point x="177.05" y="426.6"/>
      <point x="222.55" y="472.5"/>
      <point x="300.0" y="472.5" type="curve" smooth="yes"/>
      <point x="377.45" y="472.5"/>
      <point x="422.95" y="426.6"/>
      <point x="422.95" y="348.5" type="curve" smooth="yes"/>
      <point x="422.95" y="201.5" type="line" smooth="yes"/>
      <point x="422.95" y="123.4"/>
      <point x="377.45" y="77.5"/>
    </contour>
  </outline>
</glyph>
<glyph name="thorn" format="2">
  <advance width="600.0"/>
  <unicode hex="00FE"/>
  <anchor x="295.75" y="0.0" name="bottom"/>
  <anchor x="295.75" y="730.0" name="top"/>
  <outline>
    <contour>
      <point x="83.85" y="-170.0" type="line"/>
      <point x="182.1" y="-170.0" type="line"/>
      <point x="182.1" y="57.65" type="line"/>
      <point x="83.85" y="57.65" type="line"/>
    </contour>
    <component base="b" xOffset="-4.25"/>
  </outline>
</glyph>
<glyph name="Aogonek" format="2">
  <advance width="600.0"/>
  <unicode hex="0104"/>
  <anchor x="300.0" y="0.0" name="bottom"/>
  <anchor x="494.75" y="0.0" name="ogonek"/>
  <anchor x="300.0" y="730.0" name="top"/>
  <outline>
    <contour>
      <point x="500.55" y="-206.3" type="curve" smooth="yes"/>
      <point x="583.05" y="-206.3" type="line"/>
      <point x="583.05" y="-139.55" type="line"/>
      <point x="521.7" y="-139.55" type="line" smooth="yes"/>
      <point x="488.45" y="-139.55"/>
      <point x="468.05" y="-119.15"/>
      <point x="468.05" y="-91.5" type="curve" smooth="yes"/>
      <point x="468.05" y="-65.15"/>
      <point x="486.45" y="-36.9"/>
      <point x="528.6" y="-1.85" type="curve"/>
      <point x="542.75" y="10.15" type="line"/>
      <point x="466.1" y="10.15" type="line"/>
      <point x="402.35" y="-31.75"/>
      <point x="377.2" y="-71.4"/>
      <point x="377.2" y="-110.75" type="curve" smooth="yes"/>
      <point x="377.2" y="-166.4"/>
      <point x="425.5" y="-206.3"/>
    </contour>
    <component base="A"/>
  </outline>
</glyph>
<glyph name="aogonek" format="2">
  <advance width="600.0"/>
  <unicode hex="0105"/>
  <anchor x="305.0" y="0.0" name="bottom"/>
  <anchor x="461.25" y="0.0" name="ogonek"/>
  <anchor x="305.0" y="550.0" name="top"/>
  <outline>
    <contour>
      <point x="482.85" y="-206.3" type="curve" smooth="yes"/>
      <point x="565.35" y="-206.3" type="line"/>
      <point x="565.35" y="-139.55" type="line"/>
      <point x="504.0" y="-139.55" type="line" smooth="yes"/>
      <point x="470.75" y="-139.55"/>
      <point x="450.35" y="-119.15"/>
      <point x="450.35" y="-91.5" type="curve" smooth="yes"/>
      <point x="450.35" y="-65.15"/>
      <point x="468.75" y="-37.75"/>
      <point x="513.9" y="0.0" type="curve"/>
      <point x="448.4" y="10.15" type="line"/>
      <point x="384.65" y="-31.75"/>
      <point x="359.5" y="-71.4"/>
      <point x="359.5" y="-110.75" type="curve" smooth="yes"/>
      <point x="359.5" y="-166.4"/>
      <point x="407.8" y="-206.3"/>
    </contour>
    <component base="a"/>
  </outline>
</glyph>
<glyph name="dcaron" format="2">
  <advance width="600.0"/>
  <unicode hex="010F"/>
  <outline>
    <contour>
      <point x="509.25" y="550.0" type="line"/>
      <point x="592.25" y="550.0" type="line"/>
      <point x="602.25" y="730.0" type="line"/>
      <point x="509.25" y="730.0" type="line"/>
    </contour>
    <contour>
      <point x="224.25" y="-10.0" type="curve" smooth="yes"/>
      <point x="306.35" y="-10.0"/>
      <point x="357.9" y="43.75"/>
      <point x="357.9" y="128.1" type="curve"/>
      <point x="337.35" y="105.0" type="line"/>
      <point x="357.9" y="105.0" type="line"/>
      <point x="357.9" y="0.0" type="line"/>
      <point x="454.65" y="0.0" type="line"/>
      <point x="454.65" y="730.0" type="line"/>
      <point x="357.15" y="730.0" type="line"/>
      <point x="357.15" y="571.5" type="line"/>
      <point x="359.6" y="445.0" type="line"/>
      <point x="337.35" y="445.0" type="line"/>
      <point x="357.9" y="421.9" type="line"/>
      <point x="357.9" y="506.25"/>
      <point x="306.35" y="560.0"/>
      <point x="224.25" y="560.0" type="curve" smooth="yes"/>
      <point x="123.4" y="560.0"/>
      <point x="59.55" y="482.4"/>
      <point x="59.55" y="358.65" type="curve" smooth="yes"/>
      <point x="59.55" y="190.65" type="line" smooth="yes"/>
      <point x="59.55" y="67.6"/>
      <point x="123.4" y="-10.0"/>
    </contour>
    <contour>
      <point x="257.85" y="74.3" type="curve" smooth="yes"/>
      <point x="194.55" y="74.3"/>
      <point x="157.05" y="119.5"/>
      <point x="157.05" y="196.5" type="curve" smooth="yes"/>
      <point x="157.05" y="353.65" type="line" smooth="yes"/>
      <point x="157.05" y="430.5"/>
      <point x="194.55" y="475.7"/>
      <point x="257.85" y="475.7" type="curve" smooth="yes"/>
      <point x="320.25" y="475.7"/>
      <point x="357.15" y="430.5"/>
      <point x="357.15" y="353.65" type="curve" smooth="yes"/>
      <point x="357.15" y="196.5" type="line" smooth="yes"/>
      <point x="357.15" y="119.5"/>
      <point x="320.25" y="74.3"/>
    </contour>
  </outline>
</glyph>
<glyph name="dcroat" format="2">
  <advance width="600.0"/>
  <unicode hex="0111"/>
  <outline>
    <contour>
      <point x="264.25" y="-10.0" type="curve" smooth="yes"/>
      <point x="355.25" y="-10.0"/>
      <point x="411.95" y="42.45"/>
      <point x="411.95" y="128.1" type="curve"/>
      <point x="391.4" y="105.0" type="line"/>
      <point x="411.95" y="105.0" type="line"/>
      <point x="411.95" y="0.0" type="line"/>
      <point x="510.2" y="0.0" type="line"/>
      <point x="510.2" y="730.0" type="line"/>
      <point x="411.2" y="730.0" type="line"/>
      <point x="411.2" y="511.5" type="line"/>
      <point x="413.65" y="385.0" type="line"/>
      <point x="391.4" y="385.0" type="line"/>
      <point x="411.95" y="361.9" type="line"/>
      <point x="411.95" y="446.7"/>
      <point x="354.4" y="500.0"/>
      <point x="264.25" y="500.0" type="curve" smooth="yes"/>
      <point x="153.25" y="500.0"/>
      <point x="85.5" y="421.1"/>
      <point x="85.5" y="293.5" type="curve" smooth="yes"/>
      <point x="85.5" y="195.65" type="line" smooth="yes"/>
      <point x="85.5" y="68.75"/>
      <point x="154.1" y="-10.0"/>
    </contour>
    <contour>
      <point x="297.85" y="75.8" type="curve" smooth="yes"/>
      <point x="224.85" y="75.8"/>
      <point x="184.5" y="120.55"/>
      <point x="184.5" y="201.5" type="curve" smooth="yes"/>
      <point x="184.5" y="288.5" type="line" smooth="yes"/>
      <point x="184.5" y="369.3"/>
      <point x="224.85" y="414.2"/>
      <point x="297.85" y="414.2" type="curve" smooth="yes"/>
      <point x="369.0" y="414.2"/>
      <point x="411.2" y="367.6"/>
      <point x="411.2" y="288.5" type="curve" smooth="yes"/>
      <point x="411.2" y="201.5" type="line" smooth="yes"/>
      <point x="411.2" y="122.25"/>
      <point x="369.0" y="75.8"/>
    </contour>
    <contour>
      <point x="248.5" y="567.75" type="line"/>
      <point x="600.0" y="567.75" type="line"/>
      <point x="600.0" y="645.0" type="line"/>
      <point x="248.5" y="645.0" type="line"/>
    </contour>
  </outline>
</glyph>
<glyph name="Eogonek" format="2">
  <advance width="600.0"/>
  <unicode hex="0118"/>
  <anchor x="320.0" y="0.0" name="bottom"/>
  <anchor x="438.5" y="0.0" name="ogonek"/>
  <anchor x="320.0" y="730.0" name="top"/>
  <anchor x="20.0" y="730.0" name="topleft"/>
  <outline>
    <contour>
      <point x="443.85" y="-206.3" type="curve" smooth="yes"/>
      <point x="526.35" y="-206.3" type="line"/>
      <point x="526.35" y="-139.55" type="line"/>
      <point x="465.0" y="-139.55" type="line" smooth="yes"/>
      <point x="431.75" y="-139.55"/>
      <point x="411.35" y="-119.15"/>
      <point x="411.35" y="-91.5" type="curve" smooth="yes"/>
      <point x="411.35" y="-65.15"/>
      <point x="429.75" y="-36.9"/>
      <point x="471.9" y="-1.85" type="curve"/>
      <point x="486.05" y="10.15" type="line"/>
      <point x="409.4" y="10.15" type="line"/>
      <point x="345.65" y="-31.75"/>
      <point x="320.5" y="-71.4"/>
      <point x="320.5" y="-110.75" type="curve" smooth="yes"/>
      <point x="320.5" y="-166.4"/>
      <point x="368.8" y="-206.3"/>
    </contour>
    <component base="E"/>
  </outline>
</glyph>
<glyph name="eogonek" format="2">
  <advance width="600.0"/>
  <unicode hex="0119"/>
  <anchor x="300.0" y="550.0" name="top"/>
  <outline>
    <contour>
      <point x="371.05" y="-206.3" type="curve" smooth="yes"/>
      <point x="453.55" y="-206.3" type="line"/>
      <point x="453.55" y="-139.55" type="line"/>
      <point x="392.2" y="-139.55" type="line" smooth="yes"/>
      <point x="358.95" y="-139.55"/>
      <point x="338.55" y="-119.15"/>
      <point x="338.55" y="-91.5" type="curve" smooth="yes"/>
      <point x="338.55" y="-65.15"/>
      <point x="356.95" y="-36.9"/>
      <point x="399.1" y="-1.85" type="curve" smooth="yes"/>
      <point x="420.35" y="16.25" type="line"/>
      <point x="471.15" y="41.85"/>
      <point x="505.85" y="85.4"/>
      <point x="513.75" y="141.5" type="curve"/>
      <point x="415.2" y="141.5" type="line"/>
      <point x="405.35" y="95.65"/>
      <point x="366.15" y="71.85"/>
      <point x="300.45" y="71.85" type="curve" smooth="yes"/>
      <point x="220.7" y="71.85"/>
      <point x="180.05" y="117.2"/>
      <point x="180.05" y="201.5" type="curve" smooth="yes"/>
      <point x="180.05" y="251.05" type="line"/>
      <point x="516.2" y="251.05" type="line"/>
      <point x="516.2" y="348.5" type="line" smooth="yes"/>
      <point x="516.2" y="476.25"/>
      <point x="432.55" y="560.0"/>
      <point x="300.15" y="560.0" type="curve" smooth="yes"/>
      <point x="167.6" y="560.0"/>
      <point x="83.8" y="476.25"/>
      <point x="83.8" y="348.5" type="curve" smooth="yes"/>
      <point x="83.8" y="201.5" type="line" smooth="yes"/>
      <point x="83.8" y="73.75"/>
      <point x="167.6" y="-10.0"/>
      <point x="300.15" y="-10.0" type="curve" smooth="yes"/>
      <point x="307.95" y="-10.0"/>
      <point x="314.8" y="-7.15"/>
      <point x="317.35" y="-4.15" type="curve"/>
      <point x="271.15" y="-41.1"/>
      <point x="247.7" y="-78.2"/>
      <point x="247.7" y="-110.75" type="curve" smooth="yes"/>
      <point x="247.7" y="-166.4"/>
      <point x="296.0" y="-206.3"/>
    </contour>
    <contour>
      <point x="419.95" y="286.4" type="line"/>
      <point x="455.45" y="321.9" type="line"/>
      <point x="180.05" y="321.6" type="line"/>
      <point x="180.05" y="348.5" type="line" smooth="yes"/>
      <point x="180.05" y="432.65"/>
      <point x="220.55" y="479.3"/>
      <point x="300.15" y="479.3" type="curve" smooth="yes"/>
      <point x="379.6" y="479.3"/>
      <point x="419.95" y="432.95"/>
      <point x="419.95" y="348.8" type="curve" smooth="yes"/>
    </contour>
  </outline>
</glyph>
<glyph name="Iogonek" format="2">
  <advance width="600.0"/>
  <unicode hex="012E"/>
  <anchor x="300.0" y="0.0" name="bottom"/>
  <anchor x="320.0" y="0.0" name="ogonek"/>
  <anchor x="300.0" y="730.0" name="top"/>
  <anchor x="20.0" y="730.0" name="topleft"/>
  <outline>
    <contour>
      <point x="305.35" y="-206.3" type="curve" smooth="yes"/>
      <point x="387.85" y="-206.3" type="line"/>
      <point x="387.85" y="-139.55" type="line"/>
      <point x="326.5" y="-139.55" type="line" smooth="yes"/>
      <point x="293.25" y="-139.55"/>
      <point x="272.85" y="-119.15"/>
      <point x="272.85" y="-91.5" type="curve" smooth="yes"/>
      <point x="272.85" y="-65.15"/>
      <point x="291.25" y="-36.9"/>
      <point x="333.4" y="-1.85" type="curve"/>
      <point x="347.55" y="10.15" type="line"/>
      <point x="270.9" y="10.15" type="line"/>
      <point x="207.15" y="-31.75"/>
      <point x="182.0" y="-71.4"/>
      <point x="182.0" y="-110.75" type="curve" smooth="yes"/>
      <point x="182.0" y="-166.4"/>
      <point x="230.3" y="-206.3"/>
    </contour>
    <component base="I"/>
  </outline>
</glyph>
<glyph name="iogonek" format="2">
  <advance width="600.0"/>
  <unicode hex="012F"/>
  <anchor x="315.75" y="0.0" name="bottom"/>
  <anchor x="330.0" y="0.0" name="ogonek"/>
  <anchor x="315.75" y="779.4" name="top"/>
  <outline>
    <contour>
      <point x="321.1" y="-206.3" type="curve" smooth="yes"/>
      <point x="403.6" y="-206.3" type="line"/>
      <point x="403.6" y="-139.55" type="line"/>
      <point x="342.25" y="-139.55" type="line" smooth="yes"/>
      <point x="309.0" y="-139.55"/>
      <point x="288.6" y="-119.15"/>
      <point x="288.6" y="-91.5" type="curve" smooth="yes"/>
      <point x="288.6" y="-65.15"/>
      <point x="307.0" y="-36.9"/>
      <point x="349.15" y="-1.85" type="curve"/>
      <point x="363.3" y="10.15" type="line"/>
      <point x="286.65" y="10.15" type="line"/>
      <point x="222.9" y="-31.75"/>
      <point x="197.75" y="-71.4"/>
      <point x="197.75" y="-110.75" type="curve" smooth="yes"/>
      <point x="197.75" y="-166.4"/>
      <point x="246.05" y="-206.3"/>
    </contour>
    <component base="idotless"/>
    <component base="dotaccentcomb" xOffset="615.75"/>
  </outline>
</glyph>
<glyph name="idotless" format="2">
  <advance width="600.0"/>
  <unicode hex="0131"/>
  <anchor x="315.75" y="0.0" name="bottom"/>
  <anchor x="330.0" y="0.0" name="ogonek"/>
  <anchor x="315.75" y="550.0" name="top"/>
  <outline>
    <contour>
      <point x="82.75" y="0.0" type="line"/>
      <point x="555.75" y="0.0" type="line"/>
      <point x="555.75" y="89.95" type="line"/>
      <point x="374.8" y="89.95" type="line"/>
      <point x="374.8" y="550.0" type="line"/>
      <point x="102.75" y="550.0" type="line"/>
      <point x="102.75" y="460.05" type="line"/>
      <point x="275.8" y="460.05" type="line"/>
      <point x="275.8" y="89.95" type="line"/>
      <point x="82.75" y="89.95" type="line"/>
    </contour>
  </outline>
</glyph>
<glyph name="Lslash" format="2">
  <advance width="600.0"/>
  <unicode hex="0141"/>
  <anchor x="341.5" y="0.0" name="bottom"/>
  <anchor x="301.5" y="365.0" name="center"/>
  <anchor x="178.75" y="730.0" name="top"/>
  <anchor x="581.5" y="730.0" name="topright"/>
  <outline>
    <contour>
      <point x="20.0" y="230.0" type="line"/>
      <point x="391.5" y="471.0" type="line"/>
      <point x="391.5" y="560.0" type="line"/>
      <point x="20.0" y="319.0" type="line"/>
    </contour>
    <component base="L" xOffset="1.5"/>
  </outline>
</glyph>
<glyph name="Eng" format="2">
  <advance width="600.0"/>
  <unicode hex="014A"/>
  <outline>
    <contour>
      <point x="241.5" y="-180.0" type="line"/>
      <point x="304.25" y="-180.0" type="line" smooth="yes"/>
      <point x="430.8" y="-180.0"/>
      <point x="514.5" y="-101.95"/>
      <point x="514.5" y="16.5" type="curve" smooth="yes"/>
      <point x="514.5" y="730.0" type="line"/>
      <point x="420.75" y="730.0" type="line"/>
      <point x="420.75" y="416.35" type="line" smooth="yes"/>
      <point x="420.75" y="343.95"/>
      <point x="427.2" y="246.45"/>
      <point x="431.65" y="193.0" type="curve"/>
      <point x="213.75" y="730.0" type="line"/>
      <point x="85.5" y="730.0" type="line"/>
      <point x="85.5" y="0.0" type="line"/>
      <point x="179.25" y="0.0" type="line"/>
      <point x="179.25" y="396.5" type="line" smooth="yes"/>
      <point x="179.25" y="468.9"/>
      <point x="173.8" y="564.75"/>
      <point x="169.5" y="616.0" type="curve"/>
      <point x="415.5" y="18.9" type="line"/>
      <point x="415.5" y="-47.8"/>
      <point x="373.75" y="-88.55"/>
      <point x="305.75" y="-88.55" type="curve" smooth="yes"/>
      <point x="241.5" y="-88.55" type="line"/>
    </contour>
  </outline>
</glyph>
<glyph name="eng" format="2">
  <advance width="600.0"/>
  <unicode hex="014B"/>
  <outline>
    <contour>
      <point x="240.9" y="-180.0" type="line"/>
      <point x="301.95" y="-180.0" type="line" smooth="yes"/>
      <point x="428.5" y="-180.0"/>
      <point x="512.2" y="-101.95"/>
      <point x="512.2" y="16.5" type="curve" smooth="yes"/>
      <point x="512.2" y="367.75" type="line" smooth="yes"/>
      <point x="512.2" y="485.8"/>
      <point x="443.05" y="560.0"/>
      <point x="333.5" y="560.0" type="curve" smooth="yes"/>
      <point x="241.65" y="560.0"/>
      <point x="188.05" y="508.95"/>
      <point x="188.05" y="421.9" type="curve"/>
      <point x="210.8" y="445.0" type="line"/>
      <point x="188.05" y="445.0" type="line"/>
      <point x="188.05" y="550.0" type="line"/>
      <point x="89.8" y="550.0" type="line"/>
      <point x="89.8" y="0.0" type="line"/>
      <point x="188.8" y="0.0" type="line"/>
      <point x="188.8" y="348.5" type="line" smooth="yes"/>
      <point x="188.8" y="429.3"/>
      <point x="230.85" y="475.9"/>
      <point x="302.55" y="475.9" type="curve" smooth="yes"/>
      <point x="371.85" y="475.9"/>
      <point x="413.2" y="431.85"/>
      <point x="413.2" y="357.0" type="curve" smooth="yes"/>
      <point x="413.2" y="18.9" type="line" smooth="yes"/>
      <point x="413.2" y="-47.8"/>
      <point x="371.45" y="-88.55"/>
      <point x="303.45" y="-88.55" type="curve" smooth="yes"/>
      <point x="240.9" y="-88.55" type="line"/>
    </contour>
  </outline>
</glyph>
<glyph name="OE" format="2">
  <advance width="600.0"/>
  <unicode hex="0152"/>
  <outline>
    <contour>
      <point x="192.0" y="-9.1" type="curve" smooth="yes"/>
      <point x="261.45" y="-9.1"/>
      <point x="296.15" y="41.9"/>
      <point x="302.0" y="80.9" type="curve"/>
      <point x="307.0" y="80.9" type="line"/>
      <point x="307.0" y="0.0" type="line"/>
      <point x="575.75" y="0.0" type="line"/>
      <point x="575.75" y="88.6" type="line"/>
      <point x="401.15" y="88.6" type="line"/>
      <point x="401.15" y="332.25" type="line"/>
      <point x="550.75" y="332.25" type="line"/>
      <point x="550.75" y="420.85" type="line"/>
      <point x="401.15" y="420.85" type="line"/>
      <point x="401.15" y="641.55" type="line"/>
      <point x="575.75" y="641.55" type="line"/>
      <point x="575.75" y="730.0" type="line"/>
      <point x="307.0" y="730.0" type="line"/>
      <point x="307.0" y="650.0" type="line"/>
      <point x="302.0" y="650.0" type="line"/>
      <point x="296.15" y="689.0"/>
      <point x="261.45" y="740.0"/>
      <point x="192.0" y="740.0" type="curve" smooth="yes"/>
      <point x="96.75" y="740.0"/>
      <point x="38.5" y="666.85"/>
      <point x="38.5" y="548.65" type="curve" smooth="yes"/>
      <point x="38.5" y="182.25" type="line" smooth="yes"/>
      <point x="38.5" y="64.05"/>
      <point x="96.75" y="-9.1"/>
    </contour>
    <contour>
      <point x="221.05" y="77.65" type="curve" smooth="yes"/>
      <point x="168.2" y="77.65"/>
      <point x="136.0" y="117.55"/>
      <point x="136.0" y="182.25" type="curve" smooth="yes"/>
      <point x="136.0" y="548.65" type="line" smooth="yes"/>
      <point x="136.0" y="613.35"/>
      <point x="168.2" y="653.25"/>
      <point x="221.05" y="653.25" type="curve" smooth="yes"/>
      <point x="274.05" y="653.25"/>
      <point x="306.1" y="613.5"/>
      <point x="306.1" y="548.65" type="curve" smooth="yes"/>
      <point x="306.1" y="182.25" type="line" smooth="yes"/>
      <point x="306.1" y="117.4"/>
      <point x="274.05" y="77.65"/>
    </contour>
  </outline>
</glyph>
<glyph name="oe" format="2">
  <advance width="600.0"/>
  <unicode hex="0153"/>
  <outline>
    <contour>
      <point x="180.0" y="-10.0" type="curve" smooth="yes"/>
      <point x="259.1" y="-10.0"/>
      <point x="294.25" y="35.55"/>
      <point x="297.7" y="69.25" type="curve"/>
      <point x="302.3" y="69.25" type="line"/>
      <point x="305.6" y="35.55"/>
      <point x="340.45" y="-10.0"/>
      <point x="420.0" y="-10.0" type="curve" smooth="yes"/>
      <point x="495.95" y="-10.0"/>
      <point x="551.4" y="43.2"/>
      <point x="562.45" y="127.25" type="curve"/>
      <point x="472.95" y="127.25" type="line"/>
      <point x="467.85" y="92.4"/>
      <point x="442.35" y="70.0"/>
      <point x="409.1" y="70.0" type="curve" smooth="yes"/>
      <point x="369.9" y="70.0"/>
      <point x="345.1" y="100.2"/>
      <point x="345.1" y="148.5" type="curve" smooth="yes"/>
      <point x="345.1" y="250.0" type="line"/>
      <point x="565.0" y="250.0" type="line"/>
      <point x="565.0" y="401.5" type="line" smooth="yes"/>
      <point x="565.0" y="498.3"/>
      <point x="508.7" y="560.0"/>
      <point x="420.0" y="560.0" type="curve" smooth="yes"/>
      <point x="340.45" y="560.0"/>
      <point x="305.6" y="514.45"/>
      <point x="302.3" y="480.75" type="curve"/>
      <point x="297.7" y="480.75" type="line"/>
      <point x="294.25" y="514.45"/>
      <point x="259.1" y="560.0"/>
      <point x="180.0" y="560.0" type="curve" smooth="yes"/>
      <point x="91.3" y="560.0"/>
      <point x="35.0" y="498.3"/>
      <point x="35.0" y="401.5" type="curve" smooth="yes"/>
      <point x="35.0" y="148.5" type="line" smooth="yes"/>
      <point x="35.0" y="51.7"/>
      <point x="91.3" y="-10.0"/>
    </contour>
    <contour>
      <point x="191.05" y="70.0" type="curve" smooth="yes"/>
      <point x="150.15" y="70.0"/>
      <point x="124.5" y="100.2"/>
      <point x="124.5" y="148.5" type="curve" smooth="yes"/>
      <point x="124.5" y="401.5" type="line" smooth="yes"/>
      <point x="124.5" y="449.8"/>
      <point x="150.15" y="480.0"/>
      <point x="191.05" y="480.0" type="curve" smooth="yes"/>
      <point x="230.25" y="480.0"/>
      <point x="254.9" y="449.95"/>
      <point x="254.9" y="401.5" type="curve" smooth="yes"/>
      <point x="254.9" y="148.5" type="line" smooth="yes"/>
      <point x="254.9" y="100.05"/>
      <point x="230.25" y="70.0"/>
    </contour>
    <contour>
      <point x="345.1" y="324.05" type="line"/>
      <point x="345.1" y="401.5" type="line" smooth="yes"/>
      <point x="345.1" y="449.8"/>
      <point x="369.75" y="480.0"/>
      <point x="409.1" y="480.0" type="curve" smooth="yes"/>
      <point x="450.0" y="480.0"/>
      <point x="475.5" y="449.95"/>
      <point x="475.5" y="401.5" type="curve" smooth="yes"/>
      <point x="475.5" y="324.05" type="line"/>
    </contour>
  </outline>
</glyph>
<glyph name="Scedilla" format="2">
  <advance width="600.0"/>
  <unicode hex="015E"/>
  <anchor x="300.0" y="0.0" name="_bottom"/>
  <anchor x="300.0" y="0.0" name="bottom"/>
  <anchor x="300.0" y="730.0" name="top"/>
  <outline>
    <contour>
      <point x="203.5" y="-206.3" type="line"/>
      <point x="292.25" y="-206.3" type="line" smooth="yes"/>
      <point x="366.05" y="-206.3"/>
      <point x="415.25" y="-168.4"/>
      <point x="415.25" y="-121.95" type="curve" smooth="yes"/>
      <point x="415.25" y="-68.6"/>
      <point x="345.3" y="-41.3"/>
      <point x="291.95" y="-35.6" type="curve"/>
      <point x="312.65" y="24.5" type="line"/>
      <point x="253.25" y="24.5" type="line"/>
      <point x="218.25" y="-69.0" type="line"/>
      <point x="286.15" y="-69.0"/>
      <point x="324.9" y="-88.85"/>
      <point x="324.9" y="-113.05" type="curve" smooth="yes"/>
      <point x="324.9" y="-130.75"/>
      <point x="304.6" y="-149.05"/>
      <point x="275.0" y="-149.05" type="curve" smooth="yes"/>
      <point x="203.5" y="-149.05" type="line"/>
    </contour>
    <component base="S"/>
  </outline>
</glyph>
<glyph name="Tcedilla" format="2">
  <advance width="600.0"/>
  <unicode hex="0162"/>
  <anchor x="300.0" y="0.0" name="_bottom"/>
  <anchor x="300.0" y="0.0" name="bottom"/>
  <anchor x="300.0" y="365.0" name="center"/>
  <anchor x="300.0" y="730.0" name="top"/>
  <outline>
    <contour>
      <point x="248.9" y="-206.3" type="line"/>
      <point x="337.65" y="-206.3" type="line" smooth="yes"/>
      <point x="411.45" y="-206.3"/>
      <point x="460.65" y="-168.4"/>
      <point x="460.65" y="-121.95" type="curve" smooth="yes"/>
      <point x="460.65" y="-68.6"/>
      <point x="390.7" y="-41.3"/>
      <point x="337.35" y="-35.6" type="curve"/>
      <point x="349.5" y="0.0" type="line"/>
      <point x="298.65" y="24.5" type="line"/>
      <point x="263.65" y="-69.0" type="line"/>
      <point x="331.55" y="-69.0"/>
      <point x="370.3" y="-88.85"/>
      <point x="370.3" y="-113.05" type="curve" smooth="yes"/>
      <point x="370.3" y="-130.75"/>
      <point x="350.0" y="-149.05"/>
      <point x="320.4" y="-149.05" type="curve" smooth="yes"/>
      <point x="248.9" y="-149.05" type="line"/>
    </contour>
    <component base="T"/>
  </outline>
</glyph>
<glyph name="tcedilla" format="2">
  <advance width="600.0"/>
  <unicode hex="0163"/>
  <anchor x="360.0" y="0.0" name="_bottom"/>
  <anchor x="360.0" y="0.0" name="bottom"/>
  <anchor x="300.0" y="275.0" name="center"/>
  <anchor x="300.0" y="705.0" name="top"/>
  <anchor x="580.0" y="550.0" name="topright"/>
  <outline>
    <contour>
      <point x="262.75" y="-206.3" type="line"/>
      <point x="351.5" y="-206.3" type="line" smooth="yes"/>
      <point x="425.3" y="-206.3"/>
      <point x="474.5" y="-168.4"/>
      <point x="474.5" y="-121.95" type="curve" smooth="yes"/>
      <point x="474.5" y="-68.6"/>
      <point x="404.55" y="-41.3"/>
      <point x="351.2" y="-35.6" type="curve"/>
      <point x="371.9" y="24.5" type="line"/>
      <point x="312.5" y="24.5" type="line"/>
      <point x="277.5" y="-69.0" type="line"/>
      <point x="345.4" y="-69.0"/>
      <point x="384.15" y="-88.85"/>
      <point x="384.15" y="-113.05" type="curve" smooth="yes"/>
      <point x="384.15" y="-130.75"/>
      <point x="363.85" y="-149.05"/>
      <point x="334.25" y="-149.05" type="curve" smooth="yes"/>
      <point x="262.75" y="-149.05" type="line"/>
    </contour>
    <component base="t"/>
  </outline>
</glyph>
<glyph name="tcaron" format="2">
  <advance width="600.0"/>
  <unicode hex="0165"/>
  <anchor x="360.0" y="0.0" name="bottom"/>
  <anchor x="300.0" y="275.0" name="center"/>
  <anchor x="300.0" y="705.0" name="top"/>
  <anchor x="580.0" y="550.0" name="topright"/>
  <outline>
    <contour>
      <point x="373.2" y="620.0" type="line"/>
      <point x="457.7" y="620.0" type="line"/>
      <point x="556.2" y="775.85" type="line"/>
      <point x="461.7" y="775.85" type="line"/>
    </contour>
    <component base="t"/>
  </outline>
</glyph>
<glyph name="Uogonek" format="2">
  <advance width="600.0"/>
  <unicode hex="0172"/>
  <anchor x="385.0" y="730.0" name="horn"/>
  <anchor x="300.0" y="730.0" name="top"/>
  <outline>
    <contour>
      <point x="375.25" y="-206.3" type="curve" smooth="yes"/>
      <point x="457.75" y="-206.3" type="line"/>
      <point x="457.75" y="-139.55" type="line"/>
      <point x="396.4" y="-139.55" type="line" smooth="yes"/>
      <point x="363.15" y="-139.55"/>
      <point x="342.75" y="-119.15"/>
      <point x="342.75" y="-91.35" type="curve" smooth="yes"/>
      <point x="342.75" y="-65.0"/>
      <point x="357.3" y="-36.3"/>
      <point x="398.75" y="-1.6999999999999997" type="curve" smooth="yes"/>
      <point x="430.6" y="24.4" type="line"/>
      <point x="484.4" y="59.7"/>
      <point x="514.5" y="121.9"/>
      <point x="514.5" y="201.5" type="curve" smooth="yes"/>
      <point x="514.5" y="730.0" type="line"/>
      <point x="415.5" y="730.0" type="line"/>
      <point x="415.5" y="201.5" type="line" smooth="yes"/>
      <point x="415.5" y="122.25"/>
      <point x="375.3" y="78.35"/>
      <point x="300.0" y="78.35" type="curve" smooth="yes"/>
      <point x="224.7" y="78.35"/>
      <point x="184.5" y="122.25"/>
      <point x="184.5" y="201.5" type="curve" smooth="yes"/>
      <point x="184.5" y="730.0" type="line"/>
      <point x="85.5" y="730.0" type="line"/>
      <point x="85.5" y="201.5" type="line" smooth="yes"/>
      <point x="85.5" y="70.35"/>
      <point x="166.6" y="-10.0"/>
      <point x="300.0" y="-10.0" type="curve" smooth="yes"/>
      <point x="308.35" y="-10.0"/>
      <point x="314.85" y="-6.85"/>
      <point x="318.25" y="-5.3500000000000005" type="curve"/>
      <point x="277.45" y="-39.6"/>
      <point x="251.9" y="-79.9"/>
      <point x="251.9" y="-110.75" type="curve" smooth="yes"/>
      <point x="251.9" y="-166.4"/>
      <point x="300.2" y="-206.3"/>
    </contour>
  </outline>
</glyph>
<glyph name="uogonek" format="2">
  <advance width="600.0"/>
  <unicode hex="0173"/>
  <anchor x="418.5" y="550.0" name="horn"/>
  <anchor x="300.0" y="550.0" name="top"/>
  <outline>
    <contour>
      <point x="370.05" y="-206.3" type="curve" smooth="yes"/>
      <point x="452.55" y="-206.3" type="line"/>
      <point x="452.55" y="-139.55" type="line"/>
      <point x="391.2" y="-139.55" type="line" smooth="yes"/>
      <point x="357.95" y="-139.55"/>
      <point x="337.55" y="-119.15"/>
      <point x="337.55" y="-91.5" type="curve" smooth="yes"/>
      <point x="337.55" y="-65.15"/>
      <point x="355.8" y="-36.75"/>
      <point x="398.1" y="-1.85" type="curve" smooth="yes"/>
      <point x="426.9" y="22.5" type="line"/>
      <point x="483.45" y="57.25"/>
      <point x="513.9" y="119.7"/>
      <point x="513.9" y="201.5" type="curve" smooth="yes"/>
      <point x="513.9" y="550.0" type="line"/>
      <point x="414.9" y="550.0" type="line"/>
      <point x="414.9" y="201.5" type="line" smooth="yes"/>
      <point x="414.9" y="120.55"/>
      <point x="375.0" y="77.5"/>
      <point x="300.0" y="77.5" type="curve" smooth="yes"/>
      <point x="225.0" y="77.5"/>
      <point x="185.1" y="120.55"/>
      <point x="185.1" y="201.5" type="curve" smooth="yes"/>
      <point x="185.1" y="550.0" type="line"/>
      <point x="86.1" y="550.0" type="line"/>
      <point x="86.1" y="201.5" type="line" smooth="yes"/>
      <point x="86.1" y="70.35"/>
      <point x="166.6" y="-10.0"/>
      <point x="300.0" y="-10.0" type="curve" smooth="yes"/>
      <point x="305.7" y="-10.0"/>
      <point x="314.55" y="-6.7"/>
      <point x="317.1" y="-3.8500000000000005" type="curve"/>
      <point x="264.2" y="-46.2"/>
      <point x="246.7" y="-79.05"/>
      <point x="246.7" y="-110.75" type="curve" smooth="yes"/>
      <point x="246.7" y="-166.4"/>
      <point x="295.0" y="-206.3"/>
    </contour>
  </outline>
</glyph>
<glyph name="longs" format="2">
  <advance width="600.0"/>
  <unicode hex="017F"/>
  <outline>
    <contour>
      <point x="160.5" y="0.0" type="line"/>
      <point x="259.5" y="0.0" type="line"/>
      <point x="259.5" y="563.25" type="line" smooth="yes"/>
      <point x="259.5" y="610.8"/>
      <point x="291.2" y="642.5"/>
      <point x="337.9" y="642.5" type="curve" smooth="yes"/>
      <point x="513.75" y="642.5" type="line"/>
      <point x="513.75" y="730.0" type="line"/>
      <point x="336.4" y="730.0" type="line" smooth="yes"/>
      <point x="230.9" y="730.0"/>
      <point x="160.5" y="663.6"/>
      <point x="160.5" y="564.1" type="curve" smooth="yes"/>
    </contour>
  </outline>
</glyph>
<glyph name="Schwa" format="2">
  <advance width="600.0"/>
  <unicode hex="018F"/>
  <outline>
    <contour>
      <point x="300.15" y="-10.0" type="curve" smooth="yes"/>
      <point x="432.7" y="-10.0"/>
      <point x="514.5" y="73.75"/>
      <point x="514.5" y="201.5" type="curve" smooth="yes"/>
      <point x="514.5" y="528.5" type="line" smooth="yes"/>
      <point x="514.5" y="659.8"/>
      <point x="435.25" y="740.0"/>
      <point x="300.15" y="740.0" type="curve" smooth="yes"/>
      <point x="166.9" y="740.0"/>
      <point x="85.8" y="658.25"/>
      <point x="85.8" y="528.5" type="curve"/>
      <point x="184.8" y="528.5" type="line"/>
      <point x="184.8" y="607.75"/>
      <point x="224.85" y="652.5"/>
      <point x="300.15" y="652.5" type="curve" smooth="yes"/>
      <point x="376.3" y="652.5"/>
      <point x="415.5" y="607.75"/>
      <point x="415.5" y="529.35" type="curve" smooth="yes"/>
      <point x="415.5" y="402.4" type="line"/>
      <point x="85.5" y="402.4" type="line"/>
      <point x="85.5" y="201.5" type="line" smooth="yes"/>
      <point x="85.5" y="73.75"/>
      <point x="167.75" y="-10.0"/>
    </contour>
    <contour>
      <point x="300.15" y="71.0" type="curve" smooth="yes"/>
      <point x="221.15" y="71.0"/>
      <point x="184.5" y="116.75"/>
      <point x="184.5" y="201.5" type="curve" smooth="yes"/>
      <point x="184.5" y="334.7" type="line"/>
      <point x="177.05" y="326.4" type="line"/>
      <point x="415.5" y="326.4" type="line"/>
      <point x="415.5" y="201.5" type="line" smooth="yes"/>
      <point x="415.5" y="117.35"/>
      <point x="379.75" y="71.0"/>
    </contour>
  </outline>
</glyph>
<glyph name="florin" format="2">
  <advance width="600.0"/>
  <unicode hex="0192"/>
  <outline>
    <contour>
      <point x="0.0" y="-180.0" type="line"/>
      <point x="106.5" y="-180.0" type="line" smooth="yes"/>
      <point x="233.05" y="-180.0"/>
      <point x="316.75" y="-101.95"/>
      <point x="316.75" y="16.5" type="curve" smooth="yes"/>
      <point x="316.75" y="308.8" type="line"/>
      <point x="538.75" y="308.8" type="line"/>
      <point x="538.75" y="398.0" type="line"/>
      <point x="316.75" y="398.0" type="line"/>
      <point x="316.75" y="584.75" type="line" smooth="yes"/>
      <point x="316.75" y="622.95"/>
      <point x="337.3" y="642.5"/>
      <point x="377.9" y="642.5" type="curve" smooth="yes"/>
      <point x="538.0" y="642.5" type="line"/>
      <point x="538.0" y="730.0" type="line"/>
      <point x="374.9" y="730.0" type="line" smooth="yes"/>
      <point x="276.55" y="730.0"/>
      <point x="217.75" y="676.3"/>
      <point x="217.75" y="585.6" type="curve" smooth="yes"/>
      <point x="217.75" y="398.0" type="line"/>
      <point x="58.5" y="398.0" type="line"/>
      <point x="58.5" y="308.8" type="line"/>
      <point x="217.75" y="308.8" type="line"/>
      <point x="217.75" y="18.9" type="line" smooth="yes"/>
      <point x="217.75" y="-47.8"/>
      <point x="176.0" y="-88.55"/>
      <point x="108.0" y="-88.55" type="curve" smooth="yes"/>
      <point x="0.0" y="-88.55" type="line"/>
    </contour>
  </outline>
</glyph>
<glyph name="Ohorn" format="2">
  <advance width="600.0"/>
  <unicode hex="01A0"/>
  <anchor x="290.0" y="730.0" name="top"/>
  <anchor x="300.0" y="0.0" name="bottom"/>
  <anchor x="300.0" y="365.0" name="center"/>
  <anchor x="320.0" y="700.0" name="horn"/>
  <anchor x="349.25" y="0.0" name="ogonek"/>
  <anchor x="20.0" y="730.0" name="topleft"/>
  <anchor x="580.0" y="730.0" name="topright"/>
  <outline>
    <contour>
      <point x="397.15" y="629.75" type="line"/>
      <point x="427.4" y="629.75" type="line" smooth="yes"/>
      <point x="494.85" y="629.75"/>
      <point x="538.4" y="669.3"/>
      <point x="538.4" y="730.75" type="curve" smooth="yes"/>
      <point x="538.4" y="810.0" type="line"/>
      <point x="456.65" y="810.0" type="line"/>
      <point x="456.65" y="735.0" type="line" smooth="yes"/>
      <point x="456.65" y="713.85"/>
      <point x="442.8" y="700.0"/>
      <point x="421.65" y="700.0" type="curve" smooth="yes"/>
      <point x="397.15" y="700.0" type="line"/>
    </contour>
    <component base="O"/>
  </outline>
</glyph>
